STARTFONT 2.1
COMMENT 
COMMENT k20b.bdf, a part of Kappa 20dot Fonts Version 0.396 (2003/10/06).
COMMENT 
COMMENT All kanjis are designed by KANOU Hiroki (kanou@khdd.net).
COMMENT All hiraganas, katakanas, numerics, Roman and Cyrillic alphabets, and
COMMENT some of Greek alphabets and symbols are designed by NAGAO Sadakazu
COMMENT (snagao@tkb.att.ne.jp).
COMMENT For more information, see http://khdd.net/20dot.fonts/
COMMENT 
COMMENT THIS FONT IS PUBLIC DOMAIN: YOU CAN USE, COPY, MODIFY, EVEN COPYRIGHT
COMMENT AS YOURS AND SELL THIS FONT, BUT YOU CAN'T PROHIBIT ANYONE FROM FREE
COMMENT CIRCULATION OF THIS FONT AND ITS DESCENDANTS INDEPENDENT OF YOUR
COMMENT VARIATIONS AND/OR DERIVATIONS. SEE `README' (IN JAPANESE) FOR DETAILS.
COMMENT 
FONT -Kappa-Mincho-Bold-R-Normal--20-190-75-75-C-200-JISX0208.1990-0
SIZE 19 75 75
FONTBOUNDINGBOX 20 20 0 -3
STARTPROPERTIES 19
FONT_ASCENT 17
FONT_DESCENT 3
COPYRIGHT "public domain"
DEFAULT_CHAR 8481
FONTNAME_REGISTRY ""
FOUNDRY "Kappa"
FAMILY_NAME "Mincho"
WEIGHT_NAME "Bold"
SLANT "R"
SETWIDTH_NAME "Normal"
ADD_STYLE_NAME ""
PIXEL_SIZE 20
POINT_SIZE 190
RESOLUTION_X 75
RESOLUTION_Y 75
SPACING "C"
AVERAGE_WIDTH 200
CHARSET_REGISTRY "JISX0208.1990"
CHARSET_ENCODING "0"
ENDPROPERTIES
CHARS 6879
STARTCHAR 01-01
ENCODING 8481
SWIDTH 1010 0
DWIDTH 20 0
BBX 20 20 0 -3
BITMAP
000000
000000
000000
000000
000000
000000
000000
000000
000000
000000
000000
000000
000000
000000
000000
000000
000000
000000
000000
000000
ENDCHAR
STARTCHAR 01-02
ENCODING 8482
SWIDTH 1010 0
DWIDTH 20 0
BBX 20 20 0 -3
BITMAP
000000
000000
000000
000000
000000
000000
000000
000000
000000
000000
000000
000000
000000
000000
400000
300000
180000
0c0000
0c0000
000000
ENDCHAR
STARTCHAR 01-03
ENCODING 8483
SWIDTH 1010 0
DWIDTH 20 0
BBX 20 20 0 -3
BITMAP
000000
000000
000000
000000
000000
000000
000000
000000
000000
000000
000000
000000
000000
000000
380000
440000
440000
440000
380000
000000
ENDCHAR
STARTCHAR 01-04
ENCODING 8484
SWIDTH 1010 0
DWIDTH 20 0
BBX 20 20 0 -3
BITMAP
000000
000000
000000
000000
000000
000000
000000
000000
000000
000000
000000
000000
000000
000000
000000
380000
380000
180000
100000
200000
ENDCHAR
STARTCHAR 01-05
ENCODING 8485
SWIDTH 1010 0
DWIDTH 20 0
BBX 20 20 0 -3
BITMAP
000000
000000
000000
000000
000000
000000
000000
000000
000000
000000
000000
000000
000000
000000
000000
380000
380000
380000
000000
000000
ENDCHAR
STARTCHAR 01-06
ENCODING 8486
SWIDTH 1010 0
DWIDTH 20 0
BBX 20 20 0 -3
BITMAP
000000
000000
000000
000000
000000
000000
000000
000000
006000
00f000
00f000
006000
000000
000000
000000
000000
000000
000000
000000
000000
ENDCHAR
STARTCHAR 01-07
ENCODING 8487
SWIDTH 1010 0
DWIDTH 20 0
BBX 20 20 0 -3
BITMAP
000000
000000
000000
000000
000000
00e000
00e000
00e000
000000
000000
000000
000000
000000
00e000
00e000
00e000
000000
000000
000000
000000
ENDCHAR
STARTCHAR 01-08
ENCODING 8488
SWIDTH 1010 0
DWIDTH 20 0
BBX 20 20 0 -3
BITMAP
000000
000000
000000
000000
000000
00e000
00e000
00e000
000000
000000
000000
000000
000000
00e000
00e000
006000
004000
008000
000000
000000
ENDCHAR
STARTCHAR 01-09
ENCODING 8489
SWIDTH 1010 0
DWIDTH 20 0
BBX 20 20 0 -3
BITMAP
000000
007800
018400
020200
070300
078300
030300
000600
001c00
003000
002000
002000
002000
002000
000000
000000
002000
007000
002000
000000
ENDCHAR
STARTCHAR 01-10
ENCODING 8490
SWIDTH 1010 0
DWIDTH 20 0
BBX 20 20 0 -3
BITMAP
000000
004000
00e000
00e000
00e000
00e000
00e000
00e000
00e000
00e000
004000
004000
004000
004000
000000
000000
004000
00e000
004000
000000
ENDCHAR
STARTCHAR 01-11
ENCODING 8491
SWIDTH 1010 0
DWIDTH 20 0
BBX 20 20 0 -3
BITMAP
040000
420000
230000
310000
110000
100000
000000
000000
000000
000000
000000
000000
000000
000000
000000
000000
000000
000000
000000
000000
ENDCHAR
STARTCHAR 01-12
ENCODING 8492
SWIDTH 1010 0
DWIDTH 20 0
BBX 20 20 0 -3
BITMAP
000000
000000
380000
440000
440000
440000
380000
000000
000000
000000
000000
000000
000000
000000
000000
000000
000000
000000
000000
000000
ENDCHAR
STARTCHAR 01-13
ENCODING 8493
SWIDTH 1010 0
DWIDTH 20 0
BBX 20 20 0 -3
BITMAP
003800
007000
00c000
010000
000000
000000
000000
000000
000000
000000
000000
000000
000000
000000
000000
000000
000000
000000
000000
000000
ENDCHAR
STARTCHAR 01-14
ENCODING 8494
SWIDTH 1010 0
DWIDTH 20 0
BBX 20 20 0 -3
BITMAP
01c000
00e000
003000
000800
000000
000000
000000
000000
000000
000000
000000
000000
000000
000000
000000
000000
000000
000000
000000
000000
ENDCHAR
STARTCHAR 01-15
ENCODING 8495
SWIDTH 1010 0
DWIDTH 20 0
BBX 20 20 0 -3
BITMAP
020400
070e00
020400
000000
000000
000000
000000
000000
000000
000000
000000
000000
000000
000000
000000
000000
000000
000000
000000
000000
ENDCHAR
STARTCHAR 01-16
ENCODING 8496
SWIDTH 1010 0
DWIDTH 20 0
BBX 20 20 0 -3
BITMAP
006000
019800
060600
000000
000000
000000
000000
000000
000000
000000
000000
000000
000000
000000
000000
000000
000000
000000
000000
000000
ENDCHAR
STARTCHAR 01-17
ENCODING 8497
SWIDTH 1010 0
DWIDTH 20 0
BBX 20 20 0 -3
BITMAP
fffff0
000000
000000
000000
000000
000000
000000
000000
000000
000000
000000
000000
000000
000000
000000
000000
000000
000000
000000
000000
ENDCHAR
STARTCHAR 01-18
ENCODING 8498
SWIDTH 1010 0
DWIDTH 20 0
BBX 20 20 0 -3
BITMAP
000000
000000
000000
000000
000000
000000
000000
000000
000000
000000
000000
000000
000000
000000
000000
000000
000000
000000
000000
fffff0
ENDCHAR
STARTCHAR 01-19
ENCODING 8499
SWIDTH 1010 0
DWIDTH 20 0
BBX 20 20 0 -3
BITMAP
000000
000000
000000
000000
000000
000000
030000
008000
006000
003000
001800
001c00
000e00
000e00
000400
000000
000000
000000
000000
000000
ENDCHAR
STARTCHAR 01-20
ENCODING 8500
SWIDTH 1010 0
DWIDTH 20 0
BBX 20 20 0 -3
BITMAP
000000
000000
000000
000800
000600
002200
061800
010800
00c000
006000
003000
003800
001c00
001c00
000800
000000
000000
000000
000000
000000
ENDCHAR
STARTCHAR 01-21
ENCODING 8501
SWIDTH 1010 0
DWIDTH 20 0
BBX 20 20 0 -3
BITMAP
000000
000000
000000
000000
000000
020000
010000
008000
00c000
006000
003800
001c00
003c00
00c000
000000
000000
000000
000000
000000
000000
ENDCHAR
STARTCHAR 01-22
ENCODING 8502
SWIDTH 1010 0
DWIDTH 20 0
BBX 20 20 0 -3
BITMAP
000000
000000
000100
0008c0
000640
020200
010000
008000
00c000
006000
003800
001c00
003c00
00c000
000000
000000
000000
000000
000000
000000
ENDCHAR
STARTCHAR 01-23
ENCODING 8503
SWIDTH 1010 0
DWIDTH 20 0
BBX 20 20 0 -3
BITMAP
000000
000000
000000
000000
000000
018c00
018c00
018c00
018c00
018c00
010800
031800
021000
021000
042000
000000
000000
000000
000000
000000
ENDCHAR
STARTCHAR 01-24
ENCODING 8504
SWIDTH 1010 0
DWIDTH 20 0
BBX 20 20 0 -3
BITMAP
006000
006000
00d000
009000
018800
030c00
060600
0c0300
1801c0
200cf0
c7fe60
006000
006000
006000
006000
006000
006000
0060c0
7fffe0
000000
ENDCHAR
STARTCHAR 01-25
ENCODING 8505
SWIDTH 1010 0
DWIDTH 20 0
BBX 20 20 0 -3
BITMAP
000000
000000
00c000
006000
00c000
008100
01ff80
030300
020600
040400
080800
119000
206000
003000
001800
001c00
000c00
000000
000000
000000
ENDCHAR
STARTCHAR 01-26
ENCODING 8506
SWIDTH 1010 0
DWIDTH 20 0
BBX 20 20 0 -3
BITMAP
000020
000030
000070
0000c0
000180
01c200
026400
043800
043800
086c00
08c600
098600
130000
160000
1c0000
3c0000
380000
700000
600000
000000
ENDCHAR
STARTCHAR 01-27
ENCODING 8507
SWIDTH 1010 0
DWIDTH 20 0
BBX 20 20 0 -3
BITMAP
000000
000000
000000
01f800
070e00
1c0380
3000c0
200040
600060
400020
400020
400020
600060
200040
3000c0
1c0380
070e00
01f800
000000
000000
ENDCHAR
STARTCHAR 01-28
ENCODING 8508
SWIDTH 1010 0
DWIDTH 20 0
BBX 20 20 0 -3
BITMAP
000000
000000
000000
000000
000000
000000
000000
000000
2003c0
3fffe0
1e0000
000000
000000
000000
000000
000000
000000
000000
000000
000000
ENDCHAR
STARTCHAR 01-29
ENCODING 8509
SWIDTH 1010 0
DWIDTH 20 0
BBX 20 20 0 -3
BITMAP
000000
000000
000000
000000
000000
000000
000000
000000
000000
fffff0
000000
000000
000000
000000
000000
000000
000000
000000
000000
000000
ENDCHAR
STARTCHAR 01-30
ENCODING 8510
SWIDTH 1010 0
DWIDTH 20 0
BBX 20 20 0 -3
BITMAP
000000
000000
000000
000000
000000
000000
000000
000000
000000
03fc00
000000
000000
000000
000000
000000
000000
000000
000000
000000
000000
ENDCHAR
STARTCHAR 01-31
ENCODING 8511
SWIDTH 1010 0
DWIDTH 20 0
BBX 20 20 0 -3
BITMAP
000010
000020
000040
000080
000100
000200
000400
000800
001000
002000
004000
008000
010000
020000
040000
080000
100000
200000
400000
800000
ENDCHAR
STARTCHAR 01-32
ENCODING 8512
SWIDTH 1010 0
DWIDTH 20 0
BBX 20 20 0 -3
BITMAP
800000
400000
200000
100000
080000
040000
020000
010000
008000
004000
002000
001000
000800
000400
000200
000100
000080
000040
000020
000010
ENDCHAR
STARTCHAR 01-33
ENCODING 8513
SWIDTH 1010 0
DWIDTH 20 0
BBX 20 20 0 -3
BITMAP
000000
000000
000000
000000
000000
000000
000000
000000
078000
19e010
207020
403cc0
000f00
000000
000000
000000
000000
000000
000000
000000
ENDCHAR
STARTCHAR 01-34
ENCODING 8514
SWIDTH 1010 0
DWIDTH 20 0
BBX 20 20 0 -3
BITMAP
010400
010400
010400
010400
010400
010400
010400
010400
010400
010400
010400
010400
010400
010400
010400
010400
010400
010400
010400
010400
ENDCHAR
STARTCHAR 01-35
ENCODING 8515
SWIDTH 1010 0
DWIDTH 20 0
BBX 20 20 0 -3
BITMAP
002000
002000
002000
002000
002000
002000
002000
002000
002000
002000
002000
002000
002000
002000
002000
002000
002000
002000
002000
002000
ENDCHAR
STARTCHAR 01-36
ENCODING 8516
SWIDTH 1010 0
DWIDTH 20 0
BBX 20 20 0 -3
BITMAP
000000
000000
000000
000000
000000
000000
000000
000000
70e1c0
70e1c0
70e1c0
000000
000000
000000
000000
000000
000000
000000
000000
000000
ENDCHAR
STARTCHAR 01-37
ENCODING 8517
SWIDTH 1010 0
DWIDTH 20 0
BBX 20 20 0 -3
BITMAP
000000
000000
000000
000000
000000
000000
000000
000000
1c0700
1c0700
1c0700
000000
000000
000000
000000
000000
000000
000000
000000
000000
ENDCHAR
STARTCHAR 01-38
ENCODING 8518
SWIDTH 1010 0
DWIDTH 20 0
BBX 20 20 0 -3
BITMAP
000080
000100
000300
000380
000380
000000
000000
000000
000000
000000
000000
000000
000000
000000
000000
000000
000000
000000
000000
000000
ENDCHAR
STARTCHAR 01-39
ENCODING 8519
SWIDTH 1010 0
DWIDTH 20 0
BBX 20 20 0 -3
BITMAP
380000
380000
180000
100000
200000
000000
000000
000000
000000
000000
000000
000000
000000
000000
000000
000000
000000
000000
000000
000000
ENDCHAR
STARTCHAR 01-40
ENCODING 8520
SWIDTH 1010 0
DWIDTH 20 0
BBX 20 20 0 -3
BITMAP
000440
000880
001980
001dc0
001dc0
000000
000000
000000
000000
000000
000000
000000
000000
000000
000000
000000
000000
000000
000000
000000
ENDCHAR
STARTCHAR 01-41
ENCODING 8521
SWIDTH 1010 0
DWIDTH 20 0
BBX 20 20 0 -3
BITMAP
3b8000
3b8000
198000
110000
220000
000000
000000
000000
000000
000000
000000
000000
000000
000000
000000
000000
000000
000000
000000
000000
ENDCHAR
STARTCHAR 01-42
ENCODING 8522
SWIDTH 1010 0
DWIDTH 20 0
BBX 20 20 0 -3
BITMAP
000100
000200
000600
000400
000c00
000800
001800
001800
001800
001800
001800
001800
001800
001800
000800
000c00
000400
000600
000200
000100
ENDCHAR
STARTCHAR 01-43
ENCODING 8523
SWIDTH 1010 0
DWIDTH 20 0
BBX 20 20 0 -3
BITMAP
080000
040000
060000
020000
030000
010000
018000
018000
018000
018000
018000
018000
018000
018000
010000
030000
020000
060000
040000
080000
ENDCHAR
STARTCHAR 01-44
ENCODING 8524
SWIDTH 1010 0
DWIDTH 20 0
BBX 20 20 0 -3
BITMAP
000300
000c00
003800
003000
003000
003000
003000
003000
003000
003000
003000
003000
003000
003000
003000
003000
003000
003800
000c00
000300
ENDCHAR
STARTCHAR 01-45
ENCODING 8525
SWIDTH 1010 0
DWIDTH 20 0
BBX 20 20 0 -3
BITMAP
0c0000
030000
01c000
00c000
00c000
00c000
00c000
00c000
00c000
00c000
00c000
00c000
00c000
00c000
00c000
00c000
00c000
01c000
030000
0c0000
ENDCHAR
STARTCHAR 01-46
ENCODING 8526
SWIDTH 1010 0
DWIDTH 20 0
BBX 20 20 0 -3
BITMAP
003f00
003000
003000
003000
003000
003000
003000
003000
003000
003000
003000
003000
003000
003000
003000
003000
003000
003000
003000
003f00
ENDCHAR
STARTCHAR 01-47
ENCODING 8527
SWIDTH 1010 0
DWIDTH 20 0
BBX 20 20 0 -3
BITMAP
0fc000
00c000
00c000
00c000
00c000
00c000
00c000
00c000
00c000
00c000
00c000
00c000
00c000
00c000
00c000
00c000
00c000
00c000
00c000
0fc000
ENDCHAR
STARTCHAR 01-48
ENCODING 8528
SWIDTH 1010 0
DWIDTH 20 0
BBX 20 20 0 -3
BITMAP
000700
000c00
001800
001800
001800
001800
001800
001800
001800
007000
003000
001800
001800
001800
001800
001800
001800
001800
000c00
000700
ENDCHAR
STARTCHAR 01-49
ENCODING 8529
SWIDTH 1010 0
DWIDTH 20 0
BBX 20 20 0 -3
BITMAP
0e0000
030000
018000
018000
018000
018000
018000
018000
018000
00e000
00c000
018000
018000
018000
018000
018000
018000
018000
030000
0e0000
ENDCHAR
STARTCHAR 01-50
ENCODING 8530
SWIDTH 1010 0
DWIDTH 20 0
BBX 20 20 0 -3
BITMAP
000100
000300
000200
000600
000c00
000800
001800
003000
002000
006000
006000
002000
003000
001800
000800
000c00
000600
000200
000300
000100
ENDCHAR
STARTCHAR 01-51
ENCODING 8531
SWIDTH 1010 0
DWIDTH 20 0
BBX 20 20 0 -3
BITMAP
080000
0c0000
040000
060000
030000
010000
018000
00c000
004000
006000
006000
004000
00c000
018000
010000
030000
060000
040000
0c0000
080000
ENDCHAR
STARTCHAR 01-52
ENCODING 8532
SWIDTH 1010 0
DWIDTH 20 0
BBX 20 20 0 -3
BITMAP
000440
000cc0
000880
001980
003300
002200
006600
00cc00
008800
019800
019800
008800
00cc00
006600
002200
003300
001980
000880
000cc0
000440
ENDCHAR
STARTCHAR 01-53
ENCODING 8533
SWIDTH 1010 0
DWIDTH 20 0
BBX 20 20 0 -3
BITMAP
220000
330000
110000
198000
0cc000
044000
066000
033000
011000
019800
019800
011000
033000
066000
044000
0cc000
198000
110000
330000
220000
ENDCHAR
STARTCHAR 01-54
ENCODING 8534
SWIDTH 1010 0
DWIDTH 20 0
BBX 20 20 0 -3
BITMAP
007f80
006000
006000
006000
006000
006000
006000
006000
006000
006000
006000
006000
006000
006000
006000
006000
006000
006000
000000
000000
ENDCHAR
STARTCHAR 01-55
ENCODING 8535
SWIDTH 1010 0
DWIDTH 20 0
BBX 20 20 0 -3
BITMAP
000000
000000
006000
006000
006000
006000
006000
006000
006000
006000
006000
006000
006000
006000
006000
006000
006000
006000
006000
0fe000
ENDCHAR
STARTCHAR 01-56
ENCODING 8536
SWIDTH 1010 0
DWIDTH 20 0
BBX 20 20 0 -3
BITMAP
007f80
004080
005f80
005000
005000
005000
005000
005000
005000
005000
005000
005000
005000
005000
005000
005000
005000
007000
000000
000000
ENDCHAR
STARTCHAR 01-57
ENCODING 8537
SWIDTH 1010 0
DWIDTH 20 0
BBX 20 20 0 -3
BITMAP
000000
000000
00e000
00a000
00a000
00a000
00a000
00a000
00a000
00a000
00a000
00a000
00a000
00a000
00a000
00a000
00a000
1fa000
102000
1fe000
ENDCHAR
STARTCHAR 01-58
ENCODING 8538
SWIDTH 1010 0
DWIDTH 20 0
BBX 20 20 0 -3
BITMAP
003f00
003e00
003c00
003800
003800
003000
003000
003000
003000
003000
003000
003000
003000
003000
003000
003800
003800
003c00
003e00
003f00
ENDCHAR
STARTCHAR 01-59
ENCODING 8539
SWIDTH 1010 0
DWIDTH 20 0
BBX 20 20 0 -3
BITMAP
0fc000
07c000
03c000
01c000
01c000
00c000
00c000
00c000
00c000
00c000
00c000
00c000
00c000
00c000
00c000
01c000
01c000
03c000
07c000
0fc000
ENDCHAR
STARTCHAR 01-60
ENCODING 8540
SWIDTH 1010 0
DWIDTH 20 0
BBX 20 20 0 -3
BITMAP
000000
000000
000000
004000
004000
004000
004000
004000
004000
004000
1fff00
004000
004000
004000
004000
004000
004000
004000
000000
000000
ENDCHAR
STARTCHAR 01-61
ENCODING 8541
SWIDTH 1010 0
DWIDTH 20 0
BBX 20 20 0 -3
BITMAP
000000
000000
000000
000000
000000
000000
000000
000000
000000
3fff80
000000
000000
000000
000000
000000
000000
000000
000000
000000
000000
ENDCHAR
STARTCHAR 01-62
ENCODING 8542
SWIDTH 1010 0
DWIDTH 20 0
BBX 20 20 0 -3
BITMAP
000000
000000
000000
004000
004000
004000
004000
004000
1fff00
004000
004000
004000
004000
004000
000000
000000
1fff00
000000
000000
000000
ENDCHAR
STARTCHAR 01-63
ENCODING 8543
SWIDTH 1010 0
DWIDTH 20 0
BBX 20 20 0 -3
BITMAP
000000
000000
000000
000000
000000
040200
020400
010800
009000
006000
006000
009000
010800
020400
040200
000000
000000
000000
000000
000000
ENDCHAR
STARTCHAR 01-64
ENCODING 8544
SWIDTH 1010 0
DWIDTH 20 0
BBX 20 20 0 -3
BITMAP
000000
000000
000000
000000
006000
006000
000000
000000
000000
1fff80
000000
000000
000000
006000
006000
000000
000000
000000
000000
000000
ENDCHAR
STARTCHAR 01-65
ENCODING 8545
SWIDTH 1010 0
DWIDTH 20 0
BBX 20 20 0 -3
BITMAP
000000
000000
000000
000000
000000
000000
000000
1fff80
000000
000000
000000
1fff80
000000
000000
000000
000000
000000
000000
000000
000000
ENDCHAR
STARTCHAR 01-66
ENCODING 8546
SWIDTH 1010 0
DWIDTH 20 0
BBX 20 20 0 -3
BITMAP
000000
000000
000000
000800
000800
001000
001000
1fff80
002000
004000
004000
1fff80
008000
008000
010000
010000
000000
000000
000000
000000
ENDCHAR
STARTCHAR 01-67
ENCODING 8547
SWIDTH 1010 0
DWIDTH 20 0
BBX 20 20 0 -3
BITMAP
000000
000000
0000c0
000300
000c00
003000
00c000
030000
0c0000
300000
300000
0c0000
030000
00c000
003000
000c00
000300
0000c0
000000
000000
ENDCHAR
STARTCHAR 01-68
ENCODING 8548
SWIDTH 1010 0
DWIDTH 20 0
BBX 20 20 0 -3
BITMAP
000000
000000
300000
0c0000
030000
00c000
003000
000c00
000300
0000c0
0000c0
000300
000c00
003000
00c000
030000
0c0000
300000
000000
000000
ENDCHAR
STARTCHAR 01-69
ENCODING 8549
SWIDTH 1010 0
DWIDTH 20 0
BBX 20 20 0 -3
BITMAP
000000
000000
000000
0003c0
003c00
03c000
3c0000
3c0000
03c000
003c00
0003c0
000000
000000
3fffc0
000000
000000
3fffc0
000000
000000
000000
ENDCHAR
STARTCHAR 01-70
ENCODING 8550
SWIDTH 1010 0
DWIDTH 20 0
BBX 20 20 0 -3
BITMAP
000000
000000
000000
3c0000
03c000
003c00
0003c0
0003c0
003c00
03c000
3c0000
000000
000000
3fffc0
000000
000000
3fffc0
000000
000000
000000
ENDCHAR
STARTCHAR 01-71
ENCODING 8551
SWIDTH 1010 0
DWIDTH 20 0
BBX 20 20 0 -3
BITMAP
000000
000000
000000
000000
000000
1e0780
2308c0
419060
40d020
406020
406020
40b020
609820
310c40
1e0780
000000
000000
000000
000000
000000
ENDCHAR
STARTCHAR 01-72
ENCODING 8552
SWIDTH 1010 0
DWIDTH 20 0
BBX 20 20 0 -3
BITMAP
000000
000000
000000
00e000
00e000
00e000
000000
000000
000000
000000
000000
000000
000000
1c0700
1c0700
1c0700
000000
000000
000000
000000
ENDCHAR
STARTCHAR 01-73
ENCODING 8553
SWIDTH 1010 0
DWIDTH 20 0
BBX 20 20 0 -3
BITMAP
000000
003fe0
000060
0000a0
000120
000220
000420
000820
0f9020
106020
202000
401000
401000
401000
401000
401000
202000
104000
0f8000
000000
ENDCHAR
STARTCHAR 01-74
ENCODING 8554
SWIDTH 1010 0
DWIDTH 20 0
BBX 20 20 0 -3
BITMAP
01f000
020800
040400
080200
080200
080200
080200
080200
040400
020800
01f000
004000
004000
3fff80
004000
004000
004000
004000
004000
000000
ENDCHAR
STARTCHAR 01-75
ENCODING 8555
SWIDTH 1010 0
DWIDTH 20 0
BBX 20 20 0 -3
BITMAP
000000
000000
180000
240000
240000
180000
000000
000000
000000
000000
000000
000000
000000
000000
000000
000000
000000
000000
000000
000000
ENDCHAR
STARTCHAR 01-76
ENCODING 8556
SWIDTH 1010 0
DWIDTH 20 0
BBX 20 20 0 -3
BITMAP
000000
060000
040000
0c0000
080000
080000
100000
100000
000000
000000
000000
000000
000000
000000
000000
000000
000000
000000
000000
000000
ENDCHAR
STARTCHAR 01-77
ENCODING 8557
SWIDTH 1010 0
DWIDTH 20 0
BBX 20 20 0 -3
BITMAP
000000
1b0000
120000
360000
240000
240000
480000
480000
000000
000000
000000
000000
000000
000000
000000
000000
000000
000000
000000
000000
ENDCHAR
STARTCHAR 01-78
ENCODING 8558
SWIDTH 1010 0
DWIDTH 20 0
BBX 20 20 0 -3
BITMAP
000000
380000
440000
441e40
4461c0
38c0e0
018060
018020
030000
030000
030000
030000
030000
018000
018020
00c020
0060c0
001f00
000000
000000
ENDCHAR
STARTCHAR 01-79
ENCODING 8559
SWIDTH 1010 0
DWIDTH 20 0
BBX 20 20 0 -3
BITMAP
000000
000000
3f8fc0
0e0300
060600
030400
018800
00d000
3fffc0
006000
006000
006000
3fffc0
006000
006000
006000
006000
01f800
000000
000000
ENDCHAR
STARTCHAR 01-80
ENCODING 8560
SWIDTH 1010 0
DWIDTH 20 0
BBX 20 20 0 -3
BITMAP
000000
004000
004000
01f000
064c00
0c4600
0c4600
0e4000
074000
01e000
005800
004400
004600
0c4600
0c4600
064c00
01f000
004000
004000
000000
ENDCHAR
STARTCHAR 01-81
ENCODING 8561
SWIDTH 1010 0
DWIDTH 20 0
BBX 20 20 0 -3
BITMAP
000000
000000
000000
000000
000400
000400
000800
00f800
031c00
031600
062400
062000
064000
064000
028200
018c00
01f000
010000
020000
020000
ENDCHAR
STARTCHAR 01-82
ENCODING 8562
SWIDTH 1010 0
DWIDTH 20 0
BBX 20 20 0 -3
BITMAP
000000
000000
003c00
00c300
018380
010100
030000
030000
030000
1ffe00
030000
018000
018000
008000
1f8000
21c020
3370c0
1c1f00
000000
000000
ENDCHAR
STARTCHAR 01-83
ENCODING 8563
SWIDTH 1010 0
DWIDTH 20 0
BBX 20 20 0 -3
BITMAP
000000
000000
0f0040
188080
308100
208200
218400
230800
1e1000
002000
004000
008780
010c40
021840
041040
0810c0
101180
200f00
000000
000000
ENDCHAR
STARTCHAR 01-84
ENCODING 8564
SWIDTH 1010 0
DWIDTH 20 0
BBX 20 20 0 -3
BITMAP
000000
004100
004100
008200
008200
0fffc0
0fffc0
010400
010400
010400
020800
020800
020800
3fff00
3fff00
041000
041000
082000
082000
000000
ENDCHAR
STARTCHAR 01-85
ENCODING 8565
SWIDTH 1010 0
DWIDTH 20 0
BBX 20 20 0 -3
BITMAP
000000
000000
03c000
042000
0c3000
0c3000
0c6000
06c000
078f80
030200
070200
0d8400
18c400
306800
303000
303820
184e40
0f8380
000000
000000
ENDCHAR
STARTCHAR 01-86
ENCODING 8566
SWIDTH 1010 0
DWIDTH 20 0
BBX 20 20 0 -3
BITMAP
000000
000000
000000
004000
00e000
00e000
0c4600
0e4e00
035800
00e000
035800
0e4e00
0c4600
00e000
00e000
004000
000000
000000
000000
000000
ENDCHAR
STARTCHAR 01-87
ENCODING 8567
SWIDTH 1010 0
DWIDTH 20 0
BBX 20 20 0 -3
BITMAP
000000
000000
000000
00f800
038600
060100
0c0100
086880
18d880
119880
119880
119900
19b900
08ce00
0c0040
060080
038300
00fc00
000000
000000
ENDCHAR
STARTCHAR 01-88
ENCODING 8568
SWIDTH 1010 0
DWIDTH 20 0
BBX 20 20 0 -3
BITMAP
000000
00f000
031c00
060600
060600
038000
01e000
017800
021c00
060600
060600
038400
01e800
007800
001c00
060600
060600
038c00
00f000
000000
ENDCHAR
STARTCHAR 01-89
ENCODING 8569
SWIDTH 1010 0
DWIDTH 20 0
BBX 20 20 0 -3
BITMAP
000000
000000
004000
004000
00a000
00a000
00a000
011000
7f1fc0
300180
080200
040400
020800
044400
04a400
0b1a00
0c0600
180300
000000
000000
ENDCHAR
STARTCHAR 01-90
ENCODING 8570
SWIDTH 1010 0
DWIDTH 20 0
BBX 20 20 0 -3
BITMAP
000000
000000
004000
004000
00e000
00e000
00e000
01f000
7fffc0
3fff80
0ffe00
07fc00
03f800
07fc00
07bc00
0f1e00
0c0600
180300
000000
000000
ENDCHAR
STARTCHAR 01-91
ENCODING 8571
SWIDTH 1010 0
DWIDTH 20 0
BBX 20 20 0 -3
BITMAP
000000
01f800
060600
080100
100080
200040
200040
400020
400020
400020
400020
400020
400020
200040
200040
100080
080100
060600
01f800
000000
ENDCHAR
STARTCHAR 01-92
ENCODING 8572
SWIDTH 1010 0
DWIDTH 20 0
BBX 20 20 0 -3
BITMAP
000000
01f800
07fe00
0fff00
1fff80
3fffc0
3fffc0
7fffe0
7fffe0
7fffe0
7fffe0
7fffe0
7fffe0
3fffc0
3fffc0
1fff80
0fff00
07fe00
01f800
000000
ENDCHAR
STARTCHAR 01-93
ENCODING 8573
SWIDTH 1010 0
DWIDTH 20 0
BBX 20 20 0 -3
BITMAP
000000
01f800
060600
080100
100080
20f040
230c40
420420
440220
440220
440220
440220
420420
230c40
20f040
100080
080100
060600
01f800
000000
ENDCHAR
STARTCHAR 01-94
ENCODING 8574
SWIDTH 1010 0
DWIDTH 20 0
BBX 20 20 0 -3
BITMAP
004000
00a000
011000
020800
040400
080200
100100
200080
400040
800020
400040
200080
100100
080200
040400
020800
011000
00a000
004000
000000
ENDCHAR
STARTCHAR 02-01
ENCODING 8737
SWIDTH 1010 0
DWIDTH 20 0
BBX 20 20 0 -3
BITMAP
004000
00e000
01f000
03f800
07fc00
0ffe00
1fff00
3fff80
7fffc0
ffffe0
7fffc0
3fff80
1fff00
0ffe00
07fc00
03f800
01f000
00e000
004000
000000
ENDCHAR
STARTCHAR 02-02
ENCODING 8738
SWIDTH 1010 0
DWIDTH 20 0
BBX 20 20 0 -3
BITMAP
000000
7fffe0
400020
400020
400020
400020
400020
400020
400020
400020
400020
400020
400020
400020
400020
400020
400020
400020
7fffe0
000000
ENDCHAR
STARTCHAR 02-03
ENCODING 8739
SWIDTH 1010 0
DWIDTH 20 0
BBX 20 20 0 -3
BITMAP
000000
7fffe0
7fffe0
7fffe0
7fffe0
7fffe0
7fffe0
7fffe0
7fffe0
7fffe0
7fffe0
7fffe0
7fffe0
7fffe0
7fffe0
7fffe0
7fffe0
7fffe0
7fffe0
000000
ENDCHAR
STARTCHAR 02-04
ENCODING 8740
SWIDTH 1010 0
DWIDTH 20 0
BBX 20 20 0 -3
BITMAP
000000
004000
004000
00a000
00a000
011000
011000
020800
020800
040400
040400
080200
080200
100100
100100
200080
200080
7fffc0
000000
000000
ENDCHAR
STARTCHAR 02-05
ENCODING 8741
SWIDTH 1010 0
DWIDTH 20 0
BBX 20 20 0 -3
BITMAP
000000
004000
004000
00e000
00e000
01f000
01f000
03f800
03f800
07fc00
07fc00
0ffe00
0ffe00
1fff00
1fff00
3fff80
3fff80
7fffc0
000000
000000
ENDCHAR
STARTCHAR 02-06
ENCODING 8742
SWIDTH 1010 0
DWIDTH 20 0
BBX 20 20 0 -3
BITMAP
000000
000000
7fffc0
200080
200080
100100
100100
080200
080200
040400
040400
020800
020800
011000
011000
00a000
00a000
004000
004000
000000
ENDCHAR
STARTCHAR 02-07
ENCODING 8743
SWIDTH 1010 0
DWIDTH 20 0
BBX 20 20 0 -3
BITMAP
000000
000000
7fffc0
3fff80
3fff80
1fff00
1fff00
0ffe00
0ffe00
07fc00
07fc00
03f800
03f800
01f000
01f000
00e000
00e000
004000
004000
000000
ENDCHAR
STARTCHAR 02-08
ENCODING 8744
SWIDTH 1010 0
DWIDTH 20 0
BBX 20 20 0 -3
BITMAP
000000
000000
000000
106080
086100
040200
020400
010800
009000
186180
186180
009000
010800
020400
040200
086100
106080
000000
000000
000000
ENDCHAR
STARTCHAR 02-09
ENCODING 8745
SWIDTH 1010 0
DWIDTH 20 0
BBX 20 20 0 -3
BITMAP
000000
000000
7fffe0
7fffe0
000000
000000
000000
7fffe0
7fffe0
006000
006000
006000
006000
006000
006000
006000
006000
006000
006000
000000
ENDCHAR
STARTCHAR 02-10
ENCODING 8746
SWIDTH 1010 0
DWIDTH 20 0
BBX 20 20 0 -3
BITMAP
000000
000000
000000
000000
000000
000000
000400
000200
000180
ffffe0
000180
000200
000400
000000
000000
000000
000000
000000
000000
000000
ENDCHAR
STARTCHAR 02-11
ENCODING 8747
SWIDTH 1010 0
DWIDTH 20 0
BBX 20 20 0 -3
BITMAP
000000
000000
000000
000000
000000
000000
040000
080000
300000
ffffe0
300000
080000
040000
000000
000000
000000
000000
000000
000000
000000
ENDCHAR
STARTCHAR 02-12
ENCODING 8748
SWIDTH 1010 0
DWIDTH 20 0
BBX 20 20 0 -3
BITMAP
004000
004000
00e000
00e000
015000
024800
004000
004000
004000
004000
004000
004000
004000
004000
004000
004000
004000
004000
004000
000000
ENDCHAR
STARTCHAR 02-13
ENCODING 8749
SWIDTH 1010 0
DWIDTH 20 0
BBX 20 20 0 -3
BITMAP
004000
004000
004000
004000
004000
004000
004000
004000
004000
004000
004000
004000
004000
024800
015000
00e000
00e000
004000
004000
000000
ENDCHAR
STARTCHAR 02-14
ENCODING 8750
SWIDTH 1010 0
DWIDTH 20 0
BBX 20 20 0 -3
BITMAP
000000
000000
000000
000000
3fffc0
3fffc0
3fffc0
3fffc0
000000
000000
000000
000000
3fffc0
3fffc0
3fffc0
3fffc0
000000
000000
000000
000000
ENDCHAR
STARTCHAR 02-26
ENCODING 8762
SWIDTH 1010 0
DWIDTH 20 0
BBX 20 20 0 -3
BITMAP
000000
000000
000000
000000
00ff00
030000
040000
040000
080000
0fff00
080000
040000
040000
030000
00ff00
000000
000000
000000
000000
000000
ENDCHAR
STARTCHAR 02-27
ENCODING 8763
SWIDTH 1010 0
DWIDTH 20 0
BBX 20 20 0 -3
BITMAP
000000
000000
000000
000000
0ff000
000c00
000200
000200
000100
0fff00
000100
000200
000200
000c00
0ff000
000000
000000
000000
000000
000000
ENDCHAR
STARTCHAR 02-28
ENCODING 8764
SWIDTH 1010 0
DWIDTH 20 0
BBX 20 20 0 -3
BITMAP
000000
000000
000000
01ff80
060000
080000
080000
100000
100000
080000
080000
060000
01ff80
000000
000000
1fff80
000000
000000
000000
000000
ENDCHAR
STARTCHAR 02-29
ENCODING 8765
SWIDTH 1010 0
DWIDTH 20 0
BBX 20 20 0 -3
BITMAP
000000
000000
000000
1ff800
000600
000100
000100
000080
000080
000100
000100
000600
1ff800
000000
000000
1fff80
000000
000000
000000
000000
ENDCHAR
STARTCHAR 02-30
ENCODING 8766
SWIDTH 1010 0
DWIDTH 20 0
BBX 20 20 0 -3
BITMAP
000000
000000
000000
000000
01ff80
060000
080000
080000
100000
100000
100000
100000
080000
080000
060000
01ff80
000000
000000
000000
000000
ENDCHAR
STARTCHAR 02-31
ENCODING 8767
SWIDTH 1010 0
DWIDTH 20 0
BBX 20 20 0 -3
BITMAP
000000
000000
000000
000000
1ff800
000600
000100
000100
000080
000080
000080
000080
000100
000100
000600
1ff800
000000
000000
000000
000000
ENDCHAR
STARTCHAR 02-32
ENCODING 8768
SWIDTH 1010 0
DWIDTH 20 0
BBX 20 20 0 -3
BITMAP
000000
000000
000000
080100
080100
080100
080100
080100
080100
080100
080100
080100
080100
040200
040200
030c00
00f000
000000
000000
000000
ENDCHAR
STARTCHAR 02-33
ENCODING 8769
SWIDTH 1010 0
DWIDTH 20 0
BBX 20 20 0 -3
BITMAP
000000
000000
000000
00f000
030c00
040200
040200
080100
080100
080100
080100
080100
080100
080100
080100
080100
080100
080100
000000
000000
ENDCHAR
STARTCHAR 02-42
ENCODING 8778
SWIDTH 1010 0
DWIDTH 20 0
BBX 20 20 0 -3
BITMAP
000000
000000
000000
004000
004000
00a000
00a000
011000
011000
020800
020800
040400
040400
080200
080200
100100
100100
000000
000000
000000
ENDCHAR
STARTCHAR 02-43
ENCODING 8779
SWIDTH 1010 0
DWIDTH 20 0
BBX 20 20 0 -3
BITMAP
000000
000000
000000
100100
100100
080200
080200
040400
040400
020800
020800
011000
011000
00a000
00a000
004000
004000
000000
000000
000000
ENDCHAR
STARTCHAR 02-44
ENCODING 8780
SWIDTH 1010 0
DWIDTH 20 0
BBX 20 20 0 -3
BITMAP
000000
000000
000000
000000
000000
000000
000000
000000
1fff80
000080
000080
000080
000080
000080
000000
000000
000000
000000
000000
000000
ENDCHAR
STARTCHAR 02-45
ENCODING 8781
SWIDTH 1010 0
DWIDTH 20 0
BBX 20 20 0 -3
BITMAP
000000
000000
000000
000000
000400
000200
000100
ffff80
000040
000020
000040
ffff80
000100
000200
000400
000000
000000
000000
000000
000000
ENDCHAR
STARTCHAR 02-46
ENCODING 8782
SWIDTH 1010 0
DWIDTH 20 0
BBX 20 20 0 -3
BITMAP
000000
000000
000000
000000
040400
080200
100100
3fff80
400040
800020
400040
3fff80
100100
080200
040400
000000
000000
000000
000000
000000
ENDCHAR
STARTCHAR 02-47
ENCODING 8783
SWIDTH 1010 0
DWIDTH 20 0
BBX 20 20 0 -3
BITMAP
000000
000000
200080
200080
100100
100100
080200
0ffe00
040400
040400
020800
020800
011000
011000
00a000
00a000
004000
004000
000000
000000
ENDCHAR
STARTCHAR 02-48
ENCODING 8784
SWIDTH 1010 0
DWIDTH 20 0
BBX 20 20 0 -3
BITMAP
000000
000000
000000
0ffe00
000200
000200
000200
000200
000200
0ffe00
000200
000200
000200
000200
000200
0ffe00
000000
000000
000000
000000
ENDCHAR
STARTCHAR 02-60
ENCODING 8796
SWIDTH 1010 0
DWIDTH 20 0
BBX 20 20 0 -3
BITMAP
000000
000000
000000
000100
000200
000400
000800
001000
002000
004000
008000
010000
020000
040000
080000
1fffc0
000000
000000
000000
000000
ENDCHAR
STARTCHAR 02-61
ENCODING 8797
SWIDTH 1010 0
DWIDTH 20 0
BBX 20 20 0 -3
BITMAP
000000
000000
000000
004000
004000
004000
004000
004000
004000
004000
004000
004000
004000
004000
004000
3fff80
000000
000000
000000
000000
ENDCHAR
STARTCHAR 02-62
ENCODING 8798
SWIDTH 1010 0
DWIDTH 20 0
BBX 20 20 0 -3
BITMAP
03f800
1c0700
6000c0
800020
000000
000000
000000
000000
000000
000000
000000
000000
000000
000000
000000
000000
000000
000000
000000
000000
ENDCHAR
STARTCHAR 02-63
ENCODING 8799
SWIDTH 1010 0
DWIDTH 20 0
BBX 20 20 0 -3
BITMAP
000000
000000
007000
01f800
020c00
000400
000400
000400
00ec00
031c00
060c00
040800
0c1800
081800
083000
083000
046000
03c000
000000
000000
ENDCHAR
STARTCHAR 02-64
ENCODING 8800
SWIDTH 1010 0
DWIDTH 20 0
BBX 20 20 0 -3
BITMAP
000000
000000
7fffe0
300040
3000c0
180080
180180
0c0100
0c0300
060200
060600
030400
030c00
018800
019800
00d000
00f000
006000
006000
000000
ENDCHAR
STARTCHAR 02-65
ENCODING 8801
SWIDTH 1010 0
DWIDTH 20 0
BBX 20 20 0 -3
BITMAP
000000
000000
000000
000000
1fffc0
000000
000000
000000
000000
1fffc0
000000
000000
000000
000000
1fffc0
000000
000000
000000
000000
000000
ENDCHAR
STARTCHAR 02-66
ENCODING 8802
SWIDTH 1010 0
DWIDTH 20 0
BBX 20 20 0 -3
BITMAP
000000
000000
000000
060000
060000
000000
000000
1fffc0
000000
000000
000000
1fffc0
000000
000000
000300
000300
000000
000000
000000
000000
ENDCHAR
STARTCHAR 02-67
ENCODING 8803
SWIDTH 1010 0
DWIDTH 20 0
BBX 20 20 0 -3
BITMAP
000000
000000
000820
0030c0
004100
018600
020800
0c3000
104000
618000
618000
104000
0c3000
020800
018600
004100
0030c0
000820
000000
000000
ENDCHAR
STARTCHAR 02-68
ENCODING 8804
SWIDTH 1010 0
DWIDTH 20 0
BBX 20 20 0 -3
BITMAP
000000
000000
410000
30c000
082000
061800
010400
00c300
002080
001860
001860
002080
00c300
010400
061800
082000
30c000
410000
000000
000000
ENDCHAR
STARTCHAR 02-69
ENCODING 8805
SWIDTH 1010 0
DWIDTH 20 0
BBX 20 20 0 -3
BITMAP
003ff0
002000
002000
002000
004000
004000
004000
004000
008000
008000
008000
108000
310000
590000
890000
0d0000
060000
060000
020000
020000
ENDCHAR
STARTCHAR 02-70
ENCODING 8806
SWIDTH 1010 0
DWIDTH 20 0
BBX 20 20 0 -3
BITMAP
000000
000000
000000
000000
000000
0e0700
100880
201040
402020
402020
404020
404020
208040
110080
0e0700
000000
000000
000000
000000
000000
ENDCHAR
STARTCHAR 02-71
ENCODING 8807
SWIDTH 1010 0
DWIDTH 20 0
BBX 20 20 0 -3
BITMAP
000000
000000
000000
000000
000000
0e0f00
111080
20a040
404000
404000
404000
404000
20a040
111080
0e0f00
000000
000000
000000
000000
000000
ENDCHAR
STARTCHAR 02-72
ENCODING 8808
SWIDTH 1010 0
DWIDTH 20 0
BBX 20 20 0 -3
BITMAP
000000
000000
000000
000000
1c0700
1c0700
1c0700
000000
000000
000000
000000
000000
000000
000000
00e000
00e000
00e000
000000
000000
000000
ENDCHAR
STARTCHAR 02-73
ENCODING 8809
SWIDTH 1010 0
DWIDTH 20 0
BBX 20 20 0 -3
BITMAP
007000
009800
011800
010000
018000
018000
00c000
00c000
00e000
006000
006000
007000
003000
003000
001800
001800
000800
018800
019000
00e000
ENDCHAR
STARTCHAR 02-74
ENCODING 8810
SWIDTH 1010 0
DWIDTH 20 0
BBX 20 20 0 -3
BITMAP
070e00
099300
11a300
102000
183000
183000
0c1800
0c1800
0e1c00
060c00
060c00
070e00
030600
030600
018300
018300
008100
18b100
193200
0e1c00
ENDCHAR
STARTCHAR 02-82
ENCODING 8818
SWIDTH 1010 0
DWIDTH 20 0
BBX 20 20 0 -3
BITMAP
000000
006000
009000
009000
006000
000000
006000
006000
00b000
00b000
011800
011800
020c00
03fc00
040e00
040600
0c0700
3f1fc0
000000
000000
ENDCHAR
STARTCHAR 02-83
ENCODING 8819
SWIDTH 1010 0
DWIDTH 20 0
BBX 20 20 0 -3
BITMAP
000000
380800
441000
441000
442000
444000
444000
448000
450000
390000
0271c0
048a20
048a20
088a20
108a20
108a20
208a20
408a20
4071c0
000000
ENDCHAR
STARTCHAR 02-84
ENCODING 8820
SWIDTH 1010 0
DWIDTH 20 0
BBX 20 20 0 -3
BITMAP
000800
020800
020800
020800
020f00
03ff00
1ff800
1e0800
020800
020800
020800
020f00
03ff00
1ff800
1e0800
020800
020800
020800
020000
000000
ENDCHAR
STARTCHAR 02-85
ENCODING 8821
SWIDTH 1010 0
DWIDTH 20 0
BBX 20 20 0 -3
BITMAP
010000
010000
010000
010000
010000
010000
010000
010000
013800
014c00
018600
010600
010600
010c00
011800
013000
016000
018000
010000
000000
ENDCHAR
STARTCHAR 02-86
ENCODING 8822
SWIDTH 1010 0
DWIDTH 20 0
BBX 20 20 0 -3
BITMAP
004000
004000
006000
007000
007800
005c00
004e00
004600
004300
004100
004100
004200
004200
004400
03c800
0fc000
1f8000
1f8000
0e0000
000000
ENDCHAR
STARTCHAR 02-87
ENCODING 8823
SWIDTH 1010 0
DWIDTH 20 0
BBX 20 20 0 -3
BITMAP
004000
00e000
00e000
044400
0ffe00
044400
004000
004000
03f800
01f000
00e000
00e000
00e000
00e000
00e000
004000
004000
004000
004000
004000
ENDCHAR
STARTCHAR 02-88
ENCODING 8824
SWIDTH 1010 0
DWIDTH 20 0
BBX 20 20 0 -3
BITMAP
004000
00e000
00e000
044400
0ffe00
044400
00e000
00e000
00e000
004000
004000
00e000
00e000
00e000
044400
0ffe00
044400
00e000
00e000
004000
ENDCHAR
STARTCHAR 02-89
ENCODING 8825
SWIDTH 1010 0
DWIDTH 20 0
BBX 20 20 0 -3
BITMAP
000000
01fc00
07c400
07c400
0fc400
0fc400
07c400
07c400
01c400
004400
004400
004400
004400
004400
004400
004400
004400
004400
004400
004400
ENDCHAR
STARTCHAR 02-94
ENCODING 8830
SWIDTH 1010 0
DWIDTH 20 0
BBX 20 20 0 -3
BITMAP
03fc00
0c0300
100080
200040
400020
400020
800010
800010
800010
800010
800010
800010
800010
800010
400020
400020
200040
100080
0c0300
03fc00
ENDCHAR
STARTCHAR 03-16
ENCODING 9008
SWIDTH 1010 0
DWIDTH 20 0
BBX 20 20 0 -3
BITMAP
000000
00f000
030c00
060600
060600
0c0300
0c0300
0c0300
0c0300
0c0300
0c0300
0c0300
0c0300
0c0300
060600
060600
030c00
00f000
000000
000000
ENDCHAR
STARTCHAR 03-17
ENCODING 9009
SWIDTH 1010 0
DWIDTH 20 0
BBX 20 20 0 -3
BITMAP
000000
002000
00e000
03e000
006000
006000
006000
006000
006000
006000
006000
006000
006000
006000
006000
006000
006000
03fc00
000000
000000
ENDCHAR
STARTCHAR 03-18
ENCODING 9010
SWIDTH 1010 0
DWIDTH 20 0
BBX 20 20 0 -3
BITMAP
000000
00f800
030e00
060600
070300
020300
000300
000200
000600
000c00
001800
006000
00c000
010000
020100
060300
0ffe00
0ffe00
000000
000000
ENDCHAR
STARTCHAR 03-19
ENCODING 9011
SWIDTH 1010 0
DWIDTH 20 0
BBX 20 20 0 -3
BITMAP
000000
00f000
030c00
020600
070600
020600
000600
000c00
007800
000e00
000600
000300
000300
040300
0e0300
0c0600
060e00
01f800
000000
000000
ENDCHAR
STARTCHAR 03-20
ENCODING 9012
SWIDTH 1010 0
DWIDTH 20 0
BBX 20 20 0 -3
BITMAP
000000
001800
003800
003800
005800
009800
009800
011800
021800
021800
041800
081800
081800
1fff00
001800
001800
001800
007e00
000000
000000
ENDCHAR
STARTCHAR 03-21
ENCODING 9013
SWIDTH 1010 0
DWIDTH 20 0
BBX 20 20 0 -3
BITMAP
000000
07ff00
07fe00
040000
040000
040000
040000
05f800
070e00
060600
000300
000300
000300
040300
0e0300
0c0600
060e00
01f800
000000
000000
ENDCHAR
STARTCHAR 03-22
ENCODING 9014
SWIDTH 1010 0
DWIDTH 20 0
BBX 20 20 0 -3
BITMAP
000000
00f000
038c00
060600
060e00
0c0400
0c0000
0cf800
0d0c00
0e0600
0c0200
0c0300
0c0300
0c0300
060600
060600
039c00
00f000
000000
000000
ENDCHAR
STARTCHAR 03-23
ENCODING 9015
SWIDTH 1010 0
DWIDTH 20 0
BBX 20 20 0 -3
BITMAP
000000
07ff00
07ff00
0c0200
080400
000800
000800
001000
001000
002000
002000
006000
006000
004000
00c000
00c000
00c000
00c000
000000
000000
ENDCHAR
STARTCHAR 03-24
ENCODING 9016
SWIDTH 1010 0
DWIDTH 20 0
BBX 20 20 0 -3
BITMAP
000000
01f000
060c00
0c0600
0c0600
0c0600
0e0600
078c00
01f000
067c00
0c1e00
180700
180300
180300
180300
0c0600
060c00
01f000
000000
000000
ENDCHAR
STARTCHAR 03-25
ENCODING 9017
SWIDTH 1010 0
DWIDTH 20 0
BBX 20 20 0 -3
BITMAP
000000
00f000
039c00
060600
060600
0c0700
0c0300
0c0300
0e0300
060700
030b00
00f300
000300
020300
070600
060600
031c00
00f000
000000
000000
ENDCHAR
STARTCHAR 03-33
ENCODING 9025
SWIDTH 1010 0
DWIDTH 20 0
BBX 20 20 0 -3
BITMAP
000000
000000
004000
006000
00e000
00b000
00b000
013000
011800
021800
021800
020c00
07fc00
040e00
080600
080600
180700
3e1fc0
000000
000000
ENDCHAR
STARTCHAR 03-34
ENCODING 9026
SWIDTH 1010 0
DWIDTH 20 0
BBX 20 20 0 -3
BITMAP
000000
000000
1ff000
060c00
060600
060600
060600
060400
060800
07f800
060600
060300
060300
060300
060300
060300
060600
1ff800
000000
000000
ENDCHAR
STARTCHAR 03-35
ENCODING 9027
SWIDTH 1010 0
DWIDTH 20 0
BBX 20 20 0 -3
BITMAP
000000
000000
00f200
030e00
060600
0c0300
0c0100
180000
180000
180000
180000
180000
180000
0c0000
0c0100
060200
030c00
00f000
000000
000000
ENDCHAR
STARTCHAR 03-36
ENCODING 9028
SWIDTH 1010 0
DWIDTH 20 0
BBX 20 20 0 -3
BITMAP
000000
000000
1fe000
061800
060c00
060600
060600
060300
060300
060300
060300
060300
060300
060700
060600
060c00
063800
1fe000
000000
000000
ENDCHAR
STARTCHAR 03-37
ENCODING 9029
SWIDTH 1010 0
DWIDTH 20 0
BBX 20 20 0 -3
BITMAP
000000
000000
1fff00
060300
060100
060100
061000
061000
063000
07f000
063000
061000
061000
060000
060100
060100
060300
1fff00
000000
000000
ENDCHAR
STARTCHAR 03-38
ENCODING 9030
SWIDTH 1010 0
DWIDTH 20 0
BBX 20 20 0 -3
BITMAP
000000
000000
1fff00
060300
060100
060100
061000
061000
063000
07f000
063000
061000
061000
060000
060000
060000
060000
1fc000
000000
000000
ENDCHAR
STARTCHAR 03-39
ENCODING 9031
SWIDTH 1010 0
DWIDTH 20 0
BBX 20 20 0 -3
BITMAP
000000
000000
00f200
030e00
060700
0c0300
0c0100
180000
180000
180000
181f80
180300
180300
0c0300
0c0300
060700
030b00
00f100
000000
000000
ENDCHAR
STARTCHAR 03-40
ENCODING 9032
SWIDTH 1010 0
DWIDTH 20 0
BBX 20 20 0 -3
BITMAP
000000
000000
3f1f80
0c0600
0c0600
0c0600
0c0600
0c0600
0c0600
0ffe00
0c0600
0c0600
0c0600
0c0600
0c0600
0c0600
0c0600
3f1f80
000000
000000
ENDCHAR
STARTCHAR 03-41
ENCODING 9033
SWIDTH 1010 0
DWIDTH 20 0
BBX 20 20 0 -3
BITMAP
000000
000000
01f800
006000
006000
006000
006000
006000
006000
006000
006000
006000
006000
006000
006000
006000
006000
01f800
000000
000000
ENDCHAR
STARTCHAR 03-42
ENCODING 9034
SWIDTH 1010 0
DWIDTH 20 0
BBX 20 20 0 -3
BITMAP
000000
000000
003f00
000c00
000c00
000c00
000c00
000c00
000c00
000c00
000c00
000c00
000c00
060c00
0e0c00
0c1800
063800
01e000
000000
000000
ENDCHAR
STARTCHAR 03-43
ENCODING 9035
SWIDTH 1010 0
DWIDTH 20 0
BBX 20 20 0 -3
BITMAP
000000
000000
1f9f80
060400
060800
061000
062000
064000
06c000
07e000
066000
063000
063800
061c00
060c00
060e00
060700
1f9fc0
000000
000000
ENDCHAR
STARTCHAR 03-44
ENCODING 9036
SWIDTH 1010 0
DWIDTH 20 0
BBX 20 20 0 -3
BITMAP
000000
000000
1f8000
060000
060000
060000
060000
060000
060000
060000
060000
060000
060000
060000
060100
060100
060300
1fff00
000000
000000
ENDCHAR
STARTCHAR 03-45
ENCODING 9037
SWIDTH 1010 0
DWIDTH 20 0
BBX 20 20 0 -3
BITMAP
000000
000000
7803e0
180380
1c0380
1c0580
1e0580
160980
170980
131180
139180
11a180
11e180
10e180
10c180
104180
104180
7c07e0
000000
000000
ENDCHAR
STARTCHAR 03-46
ENCODING 9038
SWIDTH 1010 0
DWIDTH 20 0
BBX 20 20 0 -3
BITMAP
000000
000000
3e0f80
0f0200
0b0200
0b8200
09c200
08c200
08e200
086200
087200
083a00
081a00
081e00
080e00
080600
080600
3e0200
000000
000000
ENDCHAR
STARTCHAR 03-47
ENCODING 9039
SWIDTH 1010 0
DWIDTH 20 0
BBX 20 20 0 -3
BITMAP
000000
000000
01f000
060c00
0c0600
180300
180300
300180
300180
300180
300180
300180
300180
180300
180300
0c0600
060c00
01f000
000000
000000
ENDCHAR
STARTCHAR 03-48
ENCODING 9040
SWIDTH 1010 0
DWIDTH 20 0
BBX 20 20 0 -3
BITMAP
000000
000000
1ff800
060600
060300
060300
060300
060300
060600
07f800
060000
060000
060000
060000
060000
060000
060000
1f8000
000000
000000
ENDCHAR
STARTCHAR 03-49
ENCODING 9041
SWIDTH 1010 0
DWIDTH 20 0
BBX 20 20 0 -3
BITMAP
000000
000000
01f000
060c00
0c0600
180300
180300
300180
300180
300180
300180
300180
300180
180300
18e300
0d1600
060c00
01f440
0007c0
000380
ENDCHAR
STARTCHAR 03-50
ENCODING 9042
SWIDTH 1010 0
DWIDTH 20 0
BBX 20 20 0 -3
BITMAP
000000
000000
1ff800
060600
060300
060300
060300
060300
060600
07f800
063000
061800
061800
060c00
060c00
060600
060700
1f87c0
000000
000000
ENDCHAR
STARTCHAR 03-51
ENCODING 9043
SWIDTH 1010 0
DWIDTH 20 0
BBX 20 20 0 -3
BITMAP
000000
000000
01f200
071e00
0c0600
0c0200
0c0000
0f0000
07c000
01f800
007e00
000e00
000700
080300
0c0300
0e0200
0b8600
08f800
000000
000000
ENDCHAR
STARTCHAR 03-52
ENCODING 9044
SWIDTH 1010 0
DWIDTH 20 0
BBX 20 20 0 -3
BITMAP
000000
000000
1fff80
186180
106080
106080
006000
006000
006000
006000
006000
006000
006000
006000
006000
006000
006000
01f800
000000
000000
ENDCHAR
STARTCHAR 03-53
ENCODING 9045
SWIDTH 1010 0
DWIDTH 20 0
BBX 20 20 0 -3
BITMAP
000000
000000
3f07c0
0c0100
0c0100
0c0100
0c0100
0c0100
0c0100
0c0100
0c0100
0c0100
0c0100
0c0100
060200
060200
030c00
00f000
000000
000000
ENDCHAR
STARTCHAR 03-54
ENCODING 9046
SWIDTH 1010 0
DWIDTH 20 0
BBX 20 20 0 -3
BITMAP
000000
000000
3f0fc0
0c0100
0e0100
060200
060200
030400
030400
018400
018800
00c800
00d000
00f000
007000
007000
002000
002000
000000
000000
ENDCHAR
STARTCHAR 03-55
ENCODING 9047
SWIDTH 1010 0
DWIDTH 20 0
BBX 20 20 0 -3
BITMAP
000000
000000
7ef3e0
186080
186080
186080
187100
0cb100
0cb100
0c9100
0c9a00
051a00
051a00
070e00
070c00
020400
020400
020400
000000
000000
ENDCHAR
STARTCHAR 03-56
ENCODING 9048
SWIDTH 1010 0
DWIDTH 20 0
BBX 20 20 0 -3
BITMAP
000000
000000
3f0f80
0e0600
060400
030800
019000
01d000
00e000
006000
007000
00b000
011800
011c00
020c00
040600
0c0700
3f0fc0
000000
000000
ENDCHAR
STARTCHAR 03-57
ENCODING 9049
SWIDTH 1010 0
DWIDTH 20 0
BBX 20 20 0 -3
BITMAP
000000
000000
3f8fc0
0e0300
060600
030400
018800
019000
00d000
006000
006000
006000
006000
006000
006000
006000
006000
01f800
000000
000000
ENDCHAR
STARTCHAR 03-58
ENCODING 9050
SWIDTH 1010 0
DWIDTH 20 0
BBX 20 20 0 -3
BITMAP
000000
000000
07ff00
060600
0c0c00
081800
001800
003000
006000
006000
00c000
018000
018000
030000
060100
060100
0c0300
1fff00
000000
000000
ENDCHAR
STARTCHAR 03-65
ENCODING 9057
SWIDTH 1010 0
DWIDTH 20 0
BBX 20 20 0 -3
BITMAP
000000
000000
000000
000000
000000
000000
000000
00f800
030c00
070c00
020c00
003c00
01cc00
030c00
060c00
060c00
061d00
03e600
000000
000000
ENDCHAR
STARTCHAR 03-66
ENCODING 9058
SWIDTH 1010 0
DWIDTH 20 0
BBX 20 20 0 -3
BITMAP
000000
000000
0f0000
030000
030000
030000
030000
037800
038e00
030600
030300
030300
030300
030300
030300
030600
038e00
0f7800
000000
000000
ENDCHAR
STARTCHAR 03-67
ENCODING 9059
SWIDTH 1010 0
DWIDTH 20 0
BBX 20 20 0 -3
BITMAP
000000
000000
000000
000000
000000
000000
000000
00f800
038c00
030e00
060400
060000
060000
060000
060000
030200
038400
00f800
000000
000000
ENDCHAR
STARTCHAR 03-68
ENCODING 9060
SWIDTH 1010 0
DWIDTH 20 0
BBX 20 20 0 -3
BITMAP
000000
000000
003c00
000c00
000c00
000c00
000c00
01ec00
071c00
060c00
0c0c00
0c0c00
0c0c00
0c0c00
0c0c00
060c00
071c00
01ef00
000000
000000
ENDCHAR
STARTCHAR 03-69
ENCODING 9061
SWIDTH 1010 0
DWIDTH 20 0
BBX 20 20 0 -3
BITMAP
000000
000000
000000
000000
000000
000000
000000
00f800
038c00
030600
060600
07fe00
060000
060000
060000
030200
038400
00f800
000000
000000
ENDCHAR
STARTCHAR 03-70
ENCODING 9062
SWIDTH 1010 0
DWIDTH 20 0
BBX 20 20 0 -3
BITMAP
000000
000000
003c00
004e00
00c600
00c000
00c000
07fc00
00c000
00c000
00c000
00c000
00c000
00c000
00c000
00c000
00c000
03f000
000000
000000
ENDCHAR
STARTCHAR 03-71
ENCODING 9063
SWIDTH 1010 0
DWIDTH 20 0
BBX 20 20 0 -3
BITMAP
000000
000000
000000
000000
000000
000000
000380
00e580
031800
060c00
060c00
031800
00e000
010000
01e000
067c00
0c0e00
0c0600
060600
03f800
ENDCHAR
STARTCHAR 03-72
ENCODING 9064
SWIDTH 1010 0
DWIDTH 20 0
BBX 20 20 0 -3
BITMAP
000000
000000
0f0000
030000
030000
030000
030000
037800
038c00
030600
030600
030600
030600
030600
030600
030600
030600
0fdf80
000000
000000
ENDCHAR
STARTCHAR 03-73
ENCODING 9065
SWIDTH 1010 0
DWIDTH 20 0
BBX 20 20 0 -3
BITMAP
000000
000000
004000
00e000
004000
000000
000000
01e000
006000
006000
006000
006000
006000
006000
006000
006000
006000
01f800
000000
000000
ENDCHAR
STARTCHAR 03-74
ENCODING 9066
SWIDTH 1010 0
DWIDTH 20 0
BBX 20 20 0 -3
BITMAP
000000
000000
001000
003800
001000
000000
000000
007800
001800
001800
001800
001800
001800
001800
001800
001800
001800
061800
063000
03c000
ENDCHAR
STARTCHAR 03-75
ENCODING 9067
SWIDTH 1010 0
DWIDTH 20 0
BBX 20 20 0 -3
BITMAP
000000
000000
1e0000
060000
060000
060000
060000
063e00
061800
063000
064000
06c000
076000
063000
063000
061800
060c00
1f9f00
000000
000000
ENDCHAR
STARTCHAR 03-76
ENCODING 9068
SWIDTH 1010 0
DWIDTH 20 0
BBX 20 20 0 -3
BITMAP
000000
000000
01e000
006000
006000
006000
006000
006000
006000
006000
006000
006000
006000
006000
006000
006000
006000
01f800
000000
000000
ENDCHAR
STARTCHAR 03-77
ENCODING 9069
SWIDTH 1010 0
DWIDTH 20 0
BBX 20 20 0 -3
BITMAP
000000
000000
000000
000000
000000
000000
000000
73cf00
1c7180
186180
186180
186180
186180
186180
186180
186180
186180
7cf3e0
000000
000000
ENDCHAR
STARTCHAR 03-78
ENCODING 9070
SWIDTH 1010 0
DWIDTH 20 0
BBX 20 20 0 -3
BITMAP
000000
000000
000000
000000
000000
000000
000000
1ef000
071800
060c00
060c00
060c00
060c00
060c00
060c00
060c00
060c00
1fbf00
000000
000000
ENDCHAR
STARTCHAR 03-79
ENCODING 9071
SWIDTH 1010 0
DWIDTH 20 0
BBX 20 20 0 -3
BITMAP
000000
000000
000000
000000
000000
000000
000000
00f000
039c00
030c00
060600
060600
060600
060600
060600
030c00
039c00
00f000
000000
000000
ENDCHAR
STARTCHAR 03-80
ENCODING 9072
SWIDTH 1010 0
DWIDTH 20 0
BBX 20 20 0 -3
BITMAP
000000
000000
000000
000000
000000
000000
000000
0f7800
038e00
030600
030300
030300
030300
030300
030600
038e00
037800
030000
030000
0fc000
ENDCHAR
STARTCHAR 03-81
ENCODING 9073
SWIDTH 1010 0
DWIDTH 20 0
BBX 20 20 0 -3
BITMAP
000000
000000
000000
000000
000000
000000
000000
01ee00
073c00
060c00
0c0c00
0c0c00
0c0c00
0c0c00
060c00
071c00
01ec00
000c00
000c00
003f00
ENDCHAR
STARTCHAR 03-82
ENCODING 9074
SWIDTH 1010 0
DWIDTH 20 0
BBX 20 20 0 -3
BITMAP
000000
000000
000000
000000
000000
000000
000000
079c00
01ae00
01c400
018000
018000
018000
018000
018000
018000
018000
07e000
000000
000000
ENDCHAR
STARTCHAR 03-83
ENCODING 9075
SWIDTH 1010 0
DWIDTH 20 0
BBX 20 20 0 -3
BITMAP
000000
000000
000000
000000
000000
000000
000000
01e800
033800
060800
070000
03c000
00f000
003800
040c00
060c00
079800
04f000
000000
000000
ENDCHAR
STARTCHAR 03-84
ENCODING 9076
SWIDTH 1010 0
DWIDTH 20 0
BBX 20 20 0 -3
BITMAP
000000
000000
004000
004000
004000
00c000
00c000
07fc00
00c000
00c000
00c000
00c000
00c000
00c000
00c000
00c000
006200
003c00
000000
000000
ENDCHAR
STARTCHAR 03-85
ENCODING 9077
SWIDTH 1010 0
DWIDTH 20 0
BBX 20 20 0 -3
BITMAP
000000
000000
000000
000000
000000
000000
000000
1e3c00
060c00
060c00
060c00
060c00
060c00
060c00
060c00
060c00
031c00
01ef00
000000
000000
ENDCHAR
STARTCHAR 03-86
ENCODING 9078
SWIDTH 1010 0
DWIDTH 20 0
BBX 20 20 0 -3
BITMAP
000000
000000
000000
000000
000000
000000
000000
0f8f80
030200
030400
018400
018800
00c800
00d000
007000
007000
002000
002000
000000
000000
ENDCHAR
STARTCHAR 03-87
ENCODING 9079
SWIDTH 1010 0
DWIDTH 20 0
BBX 20 20 0 -3
BITMAP
000000
000000
000000
000000
000000
000000
000000
7cf3c0
186100
186100
0cb200
0cb200
0d3400
071c00
071c00
071c00
020800
020800
000000
000000
ENDCHAR
STARTCHAR 03-88
ENCODING 9080
SWIDTH 1010 0
DWIDTH 20 0
BBX 20 20 0 -3
BITMAP
000000
000000
000000
000000
000000
000000
000000
0f9f00
030400
018800
00d000
00e000
006000
007000
00b800
011800
020c00
0f9f00
000000
000000
ENDCHAR
STARTCHAR 03-89
ENCODING 9081
SWIDTH 1010 0
DWIDTH 20 0
BBX 20 20 0 -3
BITMAP
000000
000000
000000
000000
000000
000000
000000
0f8f00
030400
030400
018800
018800
00d000
00d000
006000
006000
004000
0c4000
0e8000
070000
ENDCHAR
STARTCHAR 03-90
ENCODING 9082
SWIDTH 1010 0
DWIDTH 20 0
BBX 20 20 0 -3
BITMAP
000000
000000
000000
000000
000000
000000
000000
03fe00
030c00
021800
003000
003000
006000
00c000
00c200
018200
030600
07fe00
000000
000000
ENDCHAR
STARTCHAR 04-01
ENCODING 9249
SWIDTH 1010 0
DWIDTH 20 0
BBX 20 20 0 -3
BITMAP
000000
000000
000000
000000
018000
008000
00bc00
1ff000
0d0000
011000
01f800
032600
056300
094300
118300
110300
1a8600
0c0c00
003000
000000
ENDCHAR
STARTCHAR 04-02
ENCODING 9250
SWIDTH 1010 0
DWIDTH 20 0
BBX 20 20 0 -3
BITMAP
018000
00c000
00c000
008e00
10bf00
1fc000
0d0800
010c00
017e00
039980
0530c0
092040
114060
108060
218060
2340c0
360080
1c0300
001c00
000000
ENDCHAR
STARTCHAR 04-03
ENCODING 9251
SWIDTH 1010 0
DWIDTH 20 0
BBX 20 20 0 -3
BITMAP
000000
000000
000000
000000
000000
000000
180000
0c0800
0c0400
080200
080300
080100
080180
0c4780
0c8100
070000
070000
020000
000000
000000
ENDCHAR
STARTCHAR 04-04
ENCODING 9252
SWIDTH 1010 0
DWIDTH 20 0
BBX 20 20 0 -3
BITMAP
000000
000000
000000
400000
200400
300200
300100
200180
2000c0
2000c0
200060
2081e0
310060
120040
1e0000
1c0000
0c0000
000000
000000
000000
ENDCHAR
STARTCHAR 04-05
ENCODING 9253
SWIDTH 1010 0
DWIDTH 20 0
BBX 20 20 0 -3
BITMAP
000000
000000
000000
000000
038000
006000
00f000
000000
00e000
1b1800
0c0c00
000c00
000c00
000800
001800
001000
002000
004000
038000
000000
ENDCHAR
STARTCHAR 04-06
ENCODING 9254
SWIDTH 1010 0
DWIDTH 20 0
BBX 20 20 0 -3
BITMAP
00c000
003800
001e00
006600
000000
000000
003c00
08c200
0f0100
060180
000180
000180
000180
000100
000300
000200
000400
000800
003000
00c000
ENDCHAR
STARTCHAR 04-07
ENCODING 9255
SWIDTH 1010 0
DWIDTH 20 0
BBX 20 20 0 -3
BITMAP
000000
000000
000000
000000
01c000
007000
007000
008800
083c00
0fcc00
061800
002000
004000
01c000
032000
062000
0c2000
183f80
181f00
000000
ENDCHAR
STARTCHAR 04-08
ENCODING 9256
SWIDTH 1010 0
DWIDTH 20 0
BBX 20 20 0 -3
BITMAP
010000
00e000
003c00
001c00
006000
000600
083f00
0fc600
060c00
001000
006000
008000
01c000
032000
062000
0c2000
183000
381fe0
300fc0
000000
ENDCHAR
STARTCHAR 04-09
ENCODING 9257
SWIDTH 1010 0
DWIDTH 20 0
BBX 20 20 0 -3
BITMAP
000000
000000
000000
000000
060000
030c00
030300
026180
33c200
1f0000
020000
023800
02c600
030300
060300
2a0300
326600
0e1c00
040000
000000
ENDCHAR
STARTCHAR 04-10
ENCODING 9258
SWIDTH 1010 0
DWIDTH 20 0
BBX 20 20 0 -3
BITMAP
000000
060000
030000
030300
0230c0
02f060
33c0e0
1e0100
020000
020000
023e00
02c180
0300c0
0600c0
4a00c0
7200c0
2a6380
061e00
040000
000000
ENDCHAR
STARTCHAR 04-11
ENCODING 9259
SWIDTH 1010 0
DWIDTH 20 0
BBX 20 20 0 -3
BITMAP
000000
030000
018000
018000
010400
010300
43e080
3f30c0
321040
041060
041060
0411e0
081040
081000
102000
322000
61e000
60c000
008000
000000
ENDCHAR
STARTCHAR 04-12
ENCODING 9260
SWIDTH 1010 0
DWIDTH 20 0
BBX 20 20 0 -3
BITMAP
000040
030230
018190
018080
010400
010300
43e080
3f30c0
321040
041060
041060
0411e0
081040
081000
102000
322000
61e000
60c000
008000
000000
ENDCHAR
STARTCHAR 04-13
ENCODING 9261
SWIDTH 1010 0
DWIDTH 20 0
BBX 20 20 0 -3
BITMAP
00c000
006000
006000
002700
1ffe00
0f9000
0019c0
000f80
1ffc00
0f8400
000600
000200
01fb00
060780
080180
080000
060000
03fe00
00fc00
000000
ENDCHAR
STARTCHAR 04-14
ENCODING 9262
SWIDTH 1010 0
DWIDTH 20 0
BBX 20 20 0 -3
BITMAP
00c040
006030
006110
0026c0
1ffc40
0f9000
0019c0
000f80
1ffc00
0f8400
000600
000200
01fb00
060780
080180
080000
060000
03fe00
00fc00
000000
ENDCHAR
STARTCHAR 04-15
ENCODING 9263
SWIDTH 1010 0
DWIDTH 20 0
BBX 20 20 0 -3
BITMAP
000800
000c00
001c00
001800
003000
004000
018000
060000
080000
080000
060000
030000
00c000
006000
003000
001800
001800
000c00
000c00
000000
ENDCHAR
STARTCHAR 04-16
ENCODING 9264
SWIDTH 1010 0
DWIDTH 20 0
BBX 20 20 0 -3
BITMAP
001000
001840
003a30
003190
006080
008000
030000
0c0000
100000
100000
0c0000
060000
018000
00c000
006000
003000
003000
001800
001800
000000
ENDCHAR
STARTCHAR 04-17
ENCODING 9265
SWIDTH 1010 0
DWIDTH 20 0
BBX 20 20 0 -3
BITMAP
000800
100600
180300
180300
100200
1003c0
313ee0
20e200
200200
200300
240300
240300
280200
380600
380600
180400
100c00
100800
001000
002000
ENDCHAR
STARTCHAR 04-18
ENCODING 9266
SWIDTH 1010 0
DWIDTH 20 0
BBX 20 20 0 -3
BITMAP
001040
200c30
300510
3004c0
200440
200780
627dc0
41c400
400400
400600
480600
480600
500400
700c00
700c00
300800
201800
201000
002000
004000
ENDCHAR
STARTCHAR 04-19
ENCODING 9267
SWIDTH 1010 0
DWIDTH 20 0
BBX 20 20 0 -3
BITMAP
000000
000000
000000
060000
01fe00
000f00
003800
004000
000000
000000
000000
000000
100000
200000
200000
300000
180000
1fffc0
07ff80
000000
ENDCHAR
STARTCHAR 04-20
ENCODING 9268
SWIDTH 1010 0
DWIDTH 20 0
BBX 20 20 0 -3
BITMAP
000040
000130
0000d0
060040
01fe00
000f00
003800
004000
000000
000000
000000
000000
100000
200000
200000
300000
180000
1fffc0
07ff80
000000
ENDCHAR
STARTCHAR 04-21
ENCODING 9269
SWIDTH 1010 0
DWIDTH 20 0
BBX 20 20 0 -3
BITMAP
002000
006000
003200
003180
001380
1ffe00
0f9800
000800
000400
000400
00fa00
030700
040380
080180
080000
040000
070000
01fc00
007e00
000000
ENDCHAR
STARTCHAR 04-22
ENCODING 9270
SWIDTH 1010 0
DWIDTH 20 0
BBX 20 20 0 -3
BITMAP
002040
006130
0030d0
003040
001300
1ffe00
0f9800
000800
000400
000400
00fa00
030700
040380
080180
080000
040000
070000
01fc00
007e00
000000
ENDCHAR
STARTCHAR 04-23
ENCODING 9271
SWIDTH 1010 0
DWIDTH 20 0
BBX 20 20 0 -3
BITMAP
000000
180000
0c0000
0c0000
0c0000
0c0000
0c0000
0c0000
0c0000
080000
080000
080000
080000
080080
080100
080200
040c00
063800
03e000
000000
ENDCHAR
STARTCHAR 04-24
ENCODING 9272
SWIDTH 1010 0
DWIDTH 20 0
BBX 20 20 0 -3
BITMAP
000000
180200
0c0180
0c0880
0c0600
0c0200
0c0000
0c0000
0c0000
080000
080000
080000
080000
080080
080100
080200
040c00
063800
03e000
000000
ENDCHAR
STARTCHAR 04-25
ENCODING 9273
SWIDTH 1010 0
DWIDTH 20 0
BBX 20 20 0 -3
BITMAP
006000
003800
001800
001800
0011c0
407fe0
7f9000
381000
00f000
011000
011800
011800
01b800
00d800
001000
003000
002000
004000
008000
010000
ENDCHAR
STARTCHAR 04-26
ENCODING 9274
SWIDTH 1010 0
DWIDTH 20 0
BBX 20 20 0 -3
BITMAP
006040
003a30
001990
001880
0010c0
407fe0
7f9000
381000
00f000
011000
011800
011800
01b800
00d800
001000
003000
002000
004000
008000
010000
ENDCHAR
STARTCHAR 04-27
ENCODING 9275
SWIDTH 1010 0
DWIDTH 20 0
BBX 20 20 0 -3
BITMAP
000000
000c00
000600
000600
060400
030400
0304e0
021ff0
43e400
7f0400
3a0400
022400
021c00
021800
020000
030000
018000
01ff80
007f00
000000
ENDCHAR
STARTCHAR 04-28
ENCODING 9276
SWIDTH 1010 0
DWIDTH 20 0
BBX 20 20 0 -3
BITMAP
000040
001930
000cd0
000c40
0c0800
060800
0609c0
043fe0
87c800
fe0800
740800
044800
043800
043000
040000
060000
030000
03ff00
00fe00
000000
ENDCHAR
STARTCHAR 04-29
ENCODING 9277
SWIDTH 1010 0
DWIDTH 20 0
BBX 20 20 0 -3
BITMAP
000000
000c00
047600
07cc00
031800
002000
004000
0087c0
017fe0
47b000
7c4000
308000
008000
010000
010000
008000
00c000
007c00
001e00
000000
ENDCHAR
STARTCHAR 04-30
ENCODING 9278
SWIDTH 1010 0
DWIDTH 20 0
BBX 20 20 0 -3
BITMAP
000040
000c30
047610
07cc80
031860
002020
004000
0087c0
017fe0
47b000
7c4000
308000
008000
010000
010000
008000
00c000
007c00
001e00
000000
ENDCHAR
STARTCHAR 04-31
ENCODING 9279
SWIDTH 1010 0
DWIDTH 20 0
BBX 20 20 0 -3
BITMAP
000000
060000
030000
030000
036000
43c000
7e1f00
3601c0
0403c0
040400
0c0000
080000
080000
180000
108000
308000
30c000
607fc0
601fc0
000000
ENDCHAR
STARTCHAR 04-32
ENCODING 9280
SWIDTH 1010 0
DWIDTH 20 0
BBX 20 20 0 -3
BITMAP
000080
060060
030220
030180
036080
43c000
7e1f00
3601c0
0403c0
040400
0c0000
080000
080000
180000
108000
308000
30c000
607fc0
601fc0
000000
ENDCHAR
STARTCHAR 04-33
ENCODING 9281
SWIDTH 1010 0
DWIDTH 20 0
BBX 20 20 0 -3
BITMAP
030000
018000
018000
018000
011c00
337800
1fc000
020000
020000
060000
043e00
04c180
0f00c0
0e00c0
0c00c0
000180
000300
000e00
007000
000000
ENDCHAR
STARTCHAR 04-34
ENCODING 9282
SWIDTH 1010 0
DWIDTH 20 0
BBX 20 20 0 -3
BITMAP
030040
018030
018110
0180c0
011c40
337800
1fc000
020000
020000
060000
043e00
04c180
0f00c0
0e00c0
0c00c0
000180
000300
000e00
007000
000000
ENDCHAR
STARTCHAR 04-35
ENCODING 9283
SWIDTH 1010 0
DWIDTH 20 0
BBX 20 20 0 -3
BITMAP
000000
000000
000000
000000
000000
000000
000000
000000
000000
003c00
11c300
1f0180
0c0180
000180
000180
000300
000600
001800
00e000
000000
ENDCHAR
STARTCHAR 04-36
ENCODING 9284
SWIDTH 1010 0
DWIDTH 20 0
BBX 20 20 0 -3
BITMAP
000000
000000
000000
000000
001e00
00e180
4700c0
7c0060
300060
000060
000060
0000c0
000080
000300
000e00
00f000
000000
000000
000000
000000
ENDCHAR
STARTCHAR 04-37
ENCODING 9285
SWIDTH 1010 0
DWIDTH 20 0
BBX 20 20 0 -3
BITMAP
000040
000230
000190
000080
000000
001e00
00e180
4700c0
7c0060
300060
000060
000060
0000c0
000080
000300
000e00
00f000
000000
000000
000000
ENDCHAR
STARTCHAR 04-38
ENCODING 9286
SWIDTH 1010 0
DWIDTH 20 0
BBX 20 20 0 -3
BITMAP
000000
000000
0003c0
001fe0
41ec00
7e1000
382000
004000
004000
008000
008000
008000
008000
004000
004000
003000
001e00
000700
000000
000000
ENDCHAR
STARTCHAR 04-39
ENCODING 9287
SWIDTH 1010 0
DWIDTH 20 0
BBX 20 20 0 -3
BITMAP
000000
000000
0003c0
001fe0
41ec00
7e1080
382060
004220
004180
008080
008000
008000
008000
004000
004000
003000
001e00
000700
000000
000000
ENDCHAR
STARTCHAR 04-40
ENCODING 9288
SWIDTH 1010 0
DWIDTH 20 0
BBX 20 20 0 -3
BITMAP
000000
030000
018000
018000
018000
018000
010200
010700
010e00
013800
00e000
018000
020000
040000
080000
080000
0c0000
07ff00
01fe00
000000
ENDCHAR
STARTCHAR 04-41
ENCODING 9289
SWIDTH 1010 0
DWIDTH 20 0
BBX 20 20 0 -3
BITMAP
000000
030080
018460
018320
018100
018000
010200
010700
010e00
013800
00e000
018000
020000
040000
080000
080000
0c0000
07ff00
01fe00
000000
ENDCHAR
STARTCHAR 04-42
ENCODING 9290
SWIDTH 1010 0
DWIDTH 20 0
BBX 20 20 0 -3
BITMAP
000000
018000
00c000
00c000
00b000
1fc300
0d00c0
0101e0
020260
060400
040400
0c0400
180400
380400
300400
00ff00
0105c0
018cc0
007800
000000
ENDCHAR
STARTCHAR 04-43
ENCODING 9291
SWIDTH 1010 0
DWIDTH 20 0
BBX 20 20 0 -3
BITMAP
000000
000000
200000
100000
181f00
1861c0
100380
100400
200000
200000
200000
240000
340000
388000
388000
384000
307fc0
101fc0
100000
000000
ENDCHAR
STARTCHAR 04-44
ENCODING 9292
SWIDTH 1010 0
DWIDTH 20 0
BBX 20 20 0 -3
BITMAP
000000
003000
001800
001800
101000
187e00
09a380
0e60c0
044040
0cc060
148060
270060
230060
420040
471f80
6d31e0
382370
001c20
000000
000000
ENDCHAR
STARTCHAR 04-45
ENCODING 9293
SWIDTH 1010 0
DWIDTH 20 0
BBX 20 20 0 -3
BITMAP
060000
030000
030000
020000
020000
038f00
6f31c0
3b40c0
028060
070060
060060
0e0060
1a0060
1a0040
320fc0
7210e0
6a18b0
060f10
060000
040000
ENDCHAR
STARTCHAR 04-46
ENCODING 9294
SWIDTH 1010 0
DWIDTH 20 0
BBX 20 20 0 -3
BITMAP
000000
000000
000000
00fc00
034300
042180
0860c0
104040
20c060
208060
418060
410060
430060
2200c0
3c0080
180180
000600
003800
000000
000000
ENDCHAR
STARTCHAR 04-47
ENCODING 9295
SWIDTH 1010 0
DWIDTH 20 0
BBX 20 20 0 -3
BITMAP
000000
200600
100300
180300
180200
1082e0
10ff80
306200
200200
200200
200200
240200
240200
280200
287f00
3883c0
38c6e0
107c40
100000
000000
ENDCHAR
STARTCHAR 04-48
ENCODING 9296
SWIDTH 1010 0
DWIDTH 20 0
BBX 20 20 0 -3
BITMAP
000040
400d30
2006d0
300640
300400
2105c0
21ff00
60c400
400400
400400
400400
480400
480400
500400
70fe00
710780
718dc0
20f880
200000
000000
ENDCHAR
STARTCHAR 04-49
ENCODING 9297
SWIDTH 1010 0
DWIDTH 20 0
BBX 20 20 0 -3
BITMAP
000060
400c90
200690
300660
300400
2105c0
21ff00
60c400
400400
400400
400400
480400
480400
500400
70fe00
710780
718dc0
20f880
200000
000000
ENDCHAR
STARTCHAR 04-50
ENCODING 9298
SWIDTH 1010 0
DWIDTH 20 0
BBX 20 20 0 -3
BITMAP
000000
000000
018400
078400
7d0600
320200
060300
040380
0802c0
0802e0
100260
100400
100400
100400
100800
181800
0c3000
0fe000
038000
000000
ENDCHAR
STARTCHAR 04-51
ENCODING 9299
SWIDTH 1010 0
DWIDTH 20 0
BBX 20 20 0 -3
BITMAP
000040
000030
018410
078480
7d0660
320220
060300
040380
0802c0
0802e0
100260
100400
100400
100400
100800
181800
0c3000
0fe000
038000
000000
ENDCHAR
STARTCHAR 04-52
ENCODING 9300
SWIDTH 1010 0
DWIDTH 20 0
BBX 20 20 0 -3
BITMAP
000000
000060
018490
078490
7d0660
320200
060300
040380
0802c0
0802e0
100260
100400
100400
100400
100800
181800
0c3000
0fe000
038000
000000
ENDCHAR
STARTCHAR 04-53
ENCODING 9301
SWIDTH 1010 0
DWIDTH 20 0
BBX 20 20 0 -3
BITMAP
000000
008000
004000
002000
003000
007000
00c000
010000
010000
008000
004000
007c00
01e380
4630c0
583060
7833e0
31f060
306000
000000
000000
ENDCHAR
STARTCHAR 04-54
ENCODING 9302
SWIDTH 1010 0
DWIDTH 20 0
BBX 20 20 0 -3
BITMAP
000000
008080
004060
002220
003180
007080
00c000
010000
010000
008000
004000
007c00
01e380
4630c0
583060
7833e0
31f060
306000
000000
000000
ENDCHAR
STARTCHAR 04-55
ENCODING 9303
SWIDTH 1010 0
DWIDTH 20 0
BBX 20 20 0 -3
BITMAP
000000
008000
004180
002240
003240
007180
00c000
010000
010000
008000
004000
007c00
01e380
4630c0
583060
7833e0
31f060
306000
000000
000000
ENDCHAR
STARTCHAR 04-56
ENCODING 9304
SWIDTH 1010 0
DWIDTH 20 0
BBX 20 20 0 -3
BITMAP
000000
000000
000000
000000
000000
038000
044000
0c2000
083000
181000
701800
200c00
000600
000300
0001c0
0000e0
000000
000000
000000
000000
ENDCHAR
STARTCHAR 04-57
ENCODING 9305
SWIDTH 1010 0
DWIDTH 20 0
BBX 20 20 0 -3
BITMAP
000000
000080
000060
000220
000180
038080
044000
0c2000
083000
181000
701800
200c00
000600
000300
0001c0
0000e0
000000
000000
000000
000000
ENDCHAR
STARTCHAR 04-58
ENCODING 9306
SWIDTH 1010 0
DWIDTH 20 0
BBX 20 20 0 -3
BITMAP
000000
000000
000300
000480
000480
038300
044000
0c2000
083000
181000
701800
200c00
000600
000300
0001c0
0000e0
000000
000000
000000
000000
ENDCHAR
STARTCHAR 04-59
ENCODING 9307
SWIDTH 1010 0
DWIDTH 20 0
BBX 20 20 0 -3
BITMAP
000000
300000
1867c0
183c80
100600
100600
102200
30c2c0
207f80
200200
200200
240200
240200
280200
387f00
3883c0
38c660
107c20
100000
000000
ENDCHAR
STARTCHAR 04-60
ENCODING 9308
SWIDTH 1010 0
DWIDTH 20 0
BBX 20 20 0 -3
BITMAP
000000
600000
30cf40
307830
200c90
200c60
204420
618580
40ff00
400400
400400
480400
480400
500400
70fe00
710780
718cc0
20f840
200000
000000
ENDCHAR
STARTCHAR 04-61
ENCODING 9309
SWIDTH 1010 0
DWIDTH 20 0
BBX 20 20 0 -3
BITMAP
000000
600000
30cf60
307890
200c90
200c60
204400
618580
40ff00
400400
400400
480400
480400
500400
70fe00
710780
718cc0
20f840
200000
000000
ENDCHAR
STARTCHAR 04-62
ENCODING 9310
SWIDTH 1010 0
DWIDTH 20 0
BBX 20 20 0 -3
BITMAP
006000
003000
002000
007f80
3fa1c0
1c2200
002000
022000
0c2700
07fe00
002000
002000
002000
002000
003000
0ffe00
183780
186180
07c000
000000
ENDCHAR
STARTCHAR 04-63
ENCODING 9311
SWIDTH 1010 0
DWIDTH 20 0
BBX 20 20 0 -3
BITMAP
000000
000000
086000
0ff000
062000
006000
004300
004180
008180
008180
07f900
190700
220380
4602c0
4c0460
380460
000800
001000
006000
000000
ENDCHAR
STARTCHAR 04-64
ENCODING 9312
SWIDTH 1010 0
DWIDTH 20 0
BBX 20 20 0 -3
BITMAP
000000
0c0000
070000
030000
028000
73c180
3e0240
020260
0202e0
1e0260
260220
220200
260100
3c0100
1c0100
080180
0c0380
07ff00
03fc00
000000
ENDCHAR
STARTCHAR 04-65
ENCODING 9313
SWIDTH 1010 0
DWIDTH 20 0
BBX 20 20 0 -3
BITMAP
000000
003000
001800
001800
101000
18fc00
0b3300
0c2080
0c60c0
144040
228060
238060
410060
438040
4680c0
2c0180
180600
003800
000000
000000
ENDCHAR
STARTCHAR 04-66
ENCODING 9314
SWIDTH 1010 0
DWIDTH 20 0
BBX 20 20 0 -3
BITMAP
018000
00c000
00c000
00c000
188000
0e8000
03e000
050000
090000
090200
070100
03f100
026080
020080
020080
020080
020100
010300
01fe00
007800
ENDCHAR
STARTCHAR 04-67
ENCODING 9315
SWIDTH 1010 0
DWIDTH 20 0
BBX 20 20 0 -3
BITMAP
000000
000000
000000
000000
008000
007000
082000
045c00
026300
038180
070180
391300
118c00
008000
00c000
004000
006000
006000
006000
000000
ENDCHAR
STARTCHAR 04-68
ENCODING 9316
SWIDTH 1010 0
DWIDTH 20 0
BBX 20 20 0 -3
BITMAP
000000
00c000
003000
001800
183000
0c0f00
0630c0
02c060
030060
4d0060
7990c0
308f00
00c000
004000
006000
006000
003000
003000
003000
000000
ENDCHAR
STARTCHAR 04-69
ENCODING 9317
SWIDTH 1010 0
DWIDTH 20 0
BBX 20 20 0 -3
BITMAP
000000
000000
000000
000000
00c000
012000
012000
42f000
232c00
262600
2a2600
2a2600
322600
322600
312400
10f800
004000
00c000
008000
010000
ENDCHAR
STARTCHAR 04-70
ENCODING 9318
SWIDTH 1010 0
DWIDTH 20 0
BBX 20 20 0 -3
BITMAP
000000
003800
004c00
008c00
40be00
21cd80
330cc0
350c40
250c60
290c60
290c60
288840
3098c0
305980
103e00
101000
003000
002000
004000
008000
ENDCHAR
STARTCHAR 04-71
ENCODING 9319
SWIDTH 1010 0
DWIDTH 20 0
BBX 20 20 0 -3
BITMAP
000000
000000
000000
000000
000000
008000
006000
006000
004000
005e00
007000
004000
004000
004000
004000
0ff000
105c00
18ce00
0f0400
000000
ENDCHAR
STARTCHAR 04-72
ENCODING 9320
SWIDTH 1010 0
DWIDTH 20 0
BBX 20 20 0 -3
BITMAP
004000
002000
003000
003000
002000
002300
002f80
003800
002000
002000
002000
002000
002000
002000
0ff000
182e00
102380
186180
0f8000
000000
ENDCHAR
STARTCHAR 04-73
ENCODING 9321
SWIDTH 1010 0
DWIDTH 20 0
BBX 20 20 0 -3
BITMAP
008000
006000
001800
000c00
00fc00
030000
040000
040000
040000
0c0000
0c3e00
0cc180
0d0080
0e00c0
0c00c0
000080
000180
000700
007800
000000
ENDCHAR
STARTCHAR 04-74
ENCODING 9322
SWIDTH 1010 0
DWIDTH 20 0
BBX 20 20 0 -3
BITMAP
080000
041800
066400
068600
068200
050300
050300
0d0300
0a0300
0a0300
0e0300
040200
040200
040600
000400
000c00
000800
001000
002000
00c000
ENDCHAR
STARTCHAR 04-75
ENCODING 9323
SWIDTH 1010 0
DWIDTH 20 0
BBX 20 20 0 -3
BITMAP
000000
000c00
063e00
03cc00
031800
003000
006000
004000
008000
017c00
038300
060180
0c0080
1c00c0
1800c0
00f0c0
019980
018b00
00fc00
000000
ENDCHAR
STARTCHAR 04-76
ENCODING 9324
SWIDTH 1010 0
DWIDTH 20 0
BBX 20 20 0 -3
BITMAP
060000
030000
030000
020000
020000
038e00
6f3300
3b4300
028300
070300
060200
0e0200
1a0400
1a0400
320400
720610
6a0660
0603c0
060000
040000
ENDCHAR
STARTCHAR 04-77
ENCODING 9325
SWIDTH 1010 0
DWIDTH 20 0
BBX 20 20 0 -3
BITMAP
000000
000c00
047e00
07cc00
031800
003000
002000
004000
008000
01bc00
03c300
070180
0e00c0
1c00c0
1800c0
000080
000180
000600
007800
000000
ENDCHAR
STARTCHAR 04-78
ENCODING 9326
SWIDTH 1010 0
DWIDTH 20 0
BBX 20 20 0 -3
BITMAP
000000
000000
000000
000000
060000
030000
020000
030000
363800
1ec600
030300
020100
060100
0a0100
1a0300
320600
2a0c00
063000
040000
000000
ENDCHAR
STARTCHAR 04-79
ENCODING 9327
SWIDTH 1010 0
DWIDTH 20 0
BBX 20 20 0 -3
BITMAP
060000
030000
030000
020000
020000
038000
6f1e00
3b6180
0280c0
070040
060060
0e0060
1a0060
1a0040
3200c0
720080
6a0300
061c00
060000
040000
ENDCHAR
STARTCHAR 04-80
ENCODING 9328
SWIDTH 1010 0
DWIDTH 20 0
BBX 20 20 0 -3
BITMAP
000000
000000
000c00
07fe00
030c00
001800
001000
002000
00fe00
034380
0440c0
088040
118060
310060
220060
261c40
3c22c0
183180
001e00
000000
ENDCHAR
STARTCHAR 04-81
ENCODING 9329
SWIDTH 1010 0
DWIDTH 20 0
BBX 20 20 0 -3
BITMAP
000000
000800
03fc00
01b000
002000
004000
00f800
038600
0e0300
0cc300
016200
012c00
00f000
008000
030000
0c0f00
3b98c0
70e060
6061e0
000200
ENDCHAR
STARTCHAR 04-82
ENCODING 9330
SWIDTH 1010 0
DWIDTH 20 0
BBX 20 20 0 -3
BITMAP
008000
006000
006000
004000
10bc00
1fe000
0c8080
0100c0
03c180
066600
0c3800
187000
18b000
013000
022000
040000
060000
03fe00
01fc00
000000
ENDCHAR
STARTCHAR 04-83
ENCODING 9331
SWIDTH 1010 0
DWIDTH 20 0
BBX 20 20 0 -3
BITMAP
000000
00c000
006000
006000
00c000
008000
018000
010000
020000
020000
05c000
064020
0c2020
182040
182040
302080
301180
601f00
600e00
000000
ENDCHAR
STARTCHAR 05-01
ENCODING 9505
SWIDTH 1010 0
DWIDTH 20 0
BBX 20 20 0 -3
BITMAP
000000
000000
000000
000000
000000
000000
000600
1fff00
0e0700
008c00
005000
004000
00c000
00c000
008000
018000
010000
020000
040000
000000
ENDCHAR
STARTCHAR 05-02
ENCODING 9506
SWIDTH 1010 0
DWIDTH 20 0
BBX 20 20 0 -3
BITMAP
000000
000000
000180
203fe0
3fe0c0
1c0180
006200
003400
003000
002000
006000
006000
004000
00c000
008000
018000
010000
020000
040000
000000
ENDCHAR
STARTCHAR 05-03
ENCODING 9507
SWIDTH 1010 0
DWIDTH 20 0
BBX 20 20 0 -3
BITMAP
000000
000000
000000
000000
000000
000800
000c00
001800
003000
006000
00c000
01c000
026000
0c6000
306000
006000
006000
006000
004000
000000
ENDCHAR
STARTCHAR 05-04
ENCODING 9508
SWIDTH 1010 0
DWIDTH 20 0
BBX 20 20 0 -3
BITMAP
000200
000180
000180
000300
000600
000c00
001800
003000
005000
019800
021800
0c1800
301800
001800
001800
001800
001800
001800
001000
000000
ENDCHAR
STARTCHAR 05-05
ENCODING 9509
SWIDTH 1010 0
DWIDTH 20 0
BBX 20 20 0 -3
BITMAP
000000
000000
000000
000000
00c000
006000
006000
004600
18ff00
0f8600
0c0600
0c0600
080400
000c00
001800
001000
002000
00c000
030000
000000
ENDCHAR
STARTCHAR 05-06
ENCODING 9510
SWIDTH 1010 0
DWIDTH 20 0
BBX 20 20 0 -3
BITMAP
000000
006000
003000
003000
1020c0
183fe0
1fe0c0
1800c0
1800c0
180180
180180
080100
000300
000200
000400
000800
001000
006000
018000
000000
ENDCHAR
STARTCHAR 05-07
ENCODING 9511
SWIDTH 1010 0
DWIDTH 20 0
BBX 20 20 0 -3
BITMAP
000000
000000
000000
000000
000000
000000
000000
000c00
0ffe00
064000
006000
006000
004000
004000
004000
01ff00
3e0380
180000
000000
000000
ENDCHAR
STARTCHAR 05-08
ENCODING 9512
SWIDTH 1010 0
DWIDTH 20 0
BBX 20 20 0 -3
BITMAP
000000
000000
000000
000000
000e00
1fff00
0e4000
006000
006000
006000
004000
004000
004000
004000
00ffc0
7f01e0
380000
000000
000000
000000
ENDCHAR
STARTCHAR 05-09
ENCODING 9513
SWIDTH 1010 0
DWIDTH 20 0
BBX 20 20 0 -3
BITMAP
000000
000000
000000
000000
003000
001800
001800
001800
001300
1fff80
0c3000
007000
00d000
019000
021000
041000
18b000
007000
002000
000000
ENDCHAR
STARTCHAR 05-10
ENCODING 9514
SWIDTH 1010 0
DWIDTH 20 0
BBX 20 20 0 -3
BITMAP
001000
001800
000c00
000c00
000800
0009c0
7fffe0
3c1800
003800
006800
00c800
018800
030800
060800
0c0800
100800
605800
003800
001000
000000
ENDCHAR
STARTCHAR 05-11
ENCODING 9515
SWIDTH 1010 0
DWIDTH 20 0
BBX 20 20 0 -3
BITMAP
000000
00c000
006000
006000
006000
004180
007fc0
3fc080
1cc180
018180
018180
030100
020300
060300
040200
080600
106c00
201c00
401800
000000
ENDCHAR
STARTCHAR 05-12
ENCODING 9516
SWIDTH 1010 0
DWIDTH 20 0
BBX 20 20 0 -3
BITMAP
000040
00c030
006110
0060c0
006040
004180
007fc0
3fc080
1cc180
018180
018180
030100
020300
060300
040200
080600
106c00
201c00
401800
000000
ENDCHAR
STARTCHAR 05-13
ENCODING 9517
SWIDTH 1010 0
DWIDTH 20 0
BBX 20 20 0 -3
BITMAP
000000
018000
00c000
00c000
004f00
007c00
3fc000
1c6000
0020c0
0027e0
007800
03a000
7c3000
381000
001000
001800
001800
001800
001800
000000
ENDCHAR
STARTCHAR 05-14
ENCODING 9518
SWIDTH 1010 0
DWIDTH 20 0
BBX 20 20 0 -3
BITMAP
000040
018130
00c0d0
00c040
004f00
007c00
3fc000
1c6000
0020c0
0027e0
007800
03a000
7c3000
381000
001000
001800
001800
001800
001800
000000
ENDCHAR
STARTCHAR 05-15
ENCODING 9519
SWIDTH 1010 0
DWIDTH 20 0
BBX 20 20 0 -3
BITMAP
000000
00c000
006000
00c180
00cfc0
01b080
018180
030180
040300
080300
100600
000400
000c00
001800
003000
006000
008000
030000
0c0000
000000
ENDCHAR
STARTCHAR 05-16
ENCODING 9520
SWIDTH 1010 0
DWIDTH 20 0
BBX 20 20 0 -3
BITMAP
000040
018030
00c090
018260
019fa0
036100
030300
060300
080600
100600
200c00
000800
001800
003000
006000
00c000
010000
060000
180000
000000
ENDCHAR
STARTCHAR 05-17
ENCODING 9521
SWIDTH 1010 0
DWIDTH 20 0
BBX 20 20 0 -3
BITMAP
000000
030000
018000
018000
030000
0301c0
063fe0
07e800
0c0c00
180c00
200800
401800
001000
003000
002000
004000
008000
010000
060000
000000
ENDCHAR
STARTCHAR 05-18
ENCODING 9522
SWIDTH 1010 0
DWIDTH 20 0
BBX 20 20 0 -3
BITMAP
000040
030230
018190
018080
030000
0301c0
063fe0
07e800
0c0c00
180c00
200800
401800
001000
003000
002000
004000
008000
010000
060000
000000
ENDCHAR
STARTCHAR 05-19
ENCODING 9523
SWIDTH 1010 0
DWIDTH 20 0
BBX 20 20 0 -3
BITMAP
000000
000000
000000
000000
000180
1fffc0
0e0180
000180
000100
000100
000300
000200
000200
000300
3fff00
1c0300
000000
000000
000000
000000
ENDCHAR
STARTCHAR 05-20
ENCODING 9524
SWIDTH 1010 0
DWIDTH 20 0
BBX 20 20 0 -3
BITMAP
000040
000230
000190
000080
000300
1fffc0
0e0180
000180
000100
000100
000300
000200
000200
000300
3fff00
1c0300
000000
000000
000000
000000
ENDCHAR
STARTCHAR 05-21
ENCODING 9525
SWIDTH 1010 0
DWIDTH 20 0
BBX 20 20 0 -3
BITMAP
000000
000c00
060600
030600
030600
0306c0
433fe0
7fe600
330600
030600
030400
030400
010c00
000800
001800
001000
002000
004000
018000
000000
ENDCHAR
STARTCHAR 05-22
ENCODING 9526
SWIDTH 1010 0
DWIDTH 20 0
BBX 20 20 0 -3
BITMAP
000040
000d30
0606d0
030640
030600
0306c0
433fe0
7fe600
330600
030600
030400
030400
010c00
000800
001800
001000
002000
004000
018000
000000
ENDCHAR
STARTCHAR 05-23
ENCODING 9527
SWIDTH 1010 0
DWIDTH 20 0
BBX 20 20 0 -3
BITMAP
000000
000000
000000
060000
018000
00c000
00c000
000020
180040
060080
030180
030300
000600
000c00
001800
007000
11e000
0f8000
0e0000
000000
ENDCHAR
STARTCHAR 05-24
ENCODING 9528
SWIDTH 1010 0
DWIDTH 20 0
BBX 20 20 0 -3
BITMAP
000000
000080
000460
060320
018100
00c000
00c000
000020
180040
060080
030180
030300
000600
000c00
001800
007000
11e000
0f8000
0e0000
000000
ENDCHAR
STARTCHAR 05-25
ENCODING 9529
SWIDTH 1010 0
DWIDTH 20 0
BBX 20 20 0 -3
BITMAP
000000
000000
000000
000600
0fff00
078600
000c00
001800
001800
003000
007000
004800
008600
010300
020180
0401c0
0800c0
300080
000000
000000
ENDCHAR
STARTCHAR 05-26
ENCODING 9530
SWIDTH 1010 0
DWIDTH 20 0
BBX 20 20 0 -3
BITMAP
000040
000130
0000d0
000640
0fff00
070600
000c00
001800
001800
003000
007000
004800
008600
010300
020180
0401c0
0800c0
300080
000000
000000
ENDCHAR
STARTCHAR 05-27
ENCODING 9531
SWIDTH 1010 0
DWIDTH 20 0
BBX 20 20 0 -3
BITMAP
000000
000000
030000
018000
018000
018000
0181c0
011fe0
01f0c0
7f0300
390600
010800
010000
010000
010000
01c000
00ff80
003f80
000000
000000
ENDCHAR
STARTCHAR 05-28
ENCODING 9532
SWIDTH 1010 0
DWIDTH 20 0
BBX 20 20 0 -3
BITMAP
000040
000030
030110
0180c0
018040
018000
0181c0
011fe0
01f0c0
7f0300
390600
010800
010000
010000
010000
01c000
00ff80
003f80
000000
000000
ENDCHAR
STARTCHAR 05-29
ENCODING 9533
SWIDTH 1010 0
DWIDTH 20 0
BBX 20 20 0 -3
BITMAP
000000
000000
000200
100180
080180
060180
060300
030300
030300
020600
000600
000c00
000800
001800
003000
006000
00c000
010000
060000
000000
ENDCHAR
STARTCHAR 05-30
ENCODING 9534
SWIDTH 1010 0
DWIDTH 20 0
BBX 20 20 0 -3
BITMAP
000040
000130
0004d0
200240
100300
0c0300
0c0600
060600
060600
040c00
000c00
001800
001000
003000
006000
00c000
018000
020000
0c0000
000000
ENDCHAR
STARTCHAR 05-31
ENCODING 9535
SWIDTH 1010 0
DWIDTH 20 0
BBX 20 20 0 -3
BITMAP
000000
00c000
006000
00c180
00cfc0
01b080
018180
030180
04c300
083300
101e00
000c00
000c00
001800
003000
006000
008000
030000
0c0000
000000
ENDCHAR
STARTCHAR 05-32
ENCODING 9536
SWIDTH 1010 0
DWIDTH 20 0
BBX 20 20 0 -3
BITMAP
000040
018030
00c090
018360
019fa0
036100
030300
060300
098600
106600
203c00
001800
001800
003000
006000
00c000
010000
060000
180000
000000
ENDCHAR
STARTCHAR 05-33
ENCODING 9537
SWIDTH 1010 0
DWIDTH 20 0
BBX 20 20 0 -3
BITMAP
000000
000600
001f00
00e000
0fb800
003000
003000
00ffc0
7fb1e0
383000
002000
006000
006000
004000
00c000
008000
010000
020000
040000
000000
ENDCHAR
STARTCHAR 05-34
ENCODING 9538
SWIDTH 1010 0
DWIDTH 20 0
BBX 20 20 0 -3
BITMAP
000040
000630
001e90
00e060
0fb820
003000
003000
00ffc0
7fb1e0
383000
002000
006000
006000
004000
00c000
008000
010000
020000
040000
000000
ENDCHAR
STARTCHAR 05-35
ENCODING 9539
SWIDTH 1010 0
DWIDTH 20 0
BBX 20 20 0 -3
BITMAP
000000
000000
000000
000000
000000
000000
010000
008400
10c300
08c300
0c0600
0c0600
000c00
000800
001000
002000
004000
008000
030000
000000
ENDCHAR
STARTCHAR 05-36
ENCODING 9540
SWIDTH 1010 0
DWIDTH 20 0
BBX 20 20 0 -3
BITMAP
000000
000000
008100
00c080
1040c0
1860c0
0c6180
0c6180
0c0180
000300
000300
000600
000c00
000800
001000
002000
004000
018000
060000
000000
ENDCHAR
STARTCHAR 05-37
ENCODING 9541
SWIDTH 1010 0
DWIDTH 20 0
BBX 20 20 0 -3
BITMAP
000040
000130
0100d0
018240
208100
30c180
18c300
18c300
180300
000600
000600
000c00
001800
001000
002000
004000
008000
030000
0c0000
000000
ENDCHAR
STARTCHAR 05-38
ENCODING 9542
SWIDTH 1010 0
DWIDTH 20 0
BBX 20 20 0 -3
BITMAP
000000
000000
000e00
0fff00
070000
000000
000000
00ffc0
7f21e0
383000
003000
006000
006000
004000
00c000
008000
010000
020000
040000
000000
ENDCHAR
STARTCHAR 05-39
ENCODING 9543
SWIDTH 1010 0
DWIDTH 20 0
BBX 20 20 0 -3
BITMAP
000040
000030
001c10
1ffe80
0e0060
000020
000000
01ff80
fe43c0
706000
006000
00c000
00c000
008000
018000
010000
020000
040000
080000
000000
ENDCHAR
STARTCHAR 05-40
ENCODING 9544
SWIDTH 1010 0
DWIDTH 20 0
BBX 20 20 0 -3
BITMAP
018000
00c000
00c000
00c000
00c000
008000
008000
008000
00f000
009e00
008700
008300
008000
008000
008000
018000
018000
018000
008000
000000
ENDCHAR
STARTCHAR 05-41
ENCODING 9545
SWIDTH 1010 0
DWIDTH 20 0
BBX 20 20 0 -3
BITMAP
018000
00c080
00c060
00c220
00c180
008080
008000
008000
00f000
009e00
008700
008300
008000
008000
018000
018000
018000
018000
008000
000000
ENDCHAR
STARTCHAR 05-42
ENCODING 9546
SWIDTH 1010 0
DWIDTH 20 0
BBX 20 20 0 -3
BITMAP
000000
006000
003000
003000
002000
002000
00ffc0
7fa1e0
382000
006000
006000
004000
004000
00c000
008000
018000
010000
020000
040000
000000
ENDCHAR
STARTCHAR 05-43
ENCODING 9547
SWIDTH 1010 0
DWIDTH 20 0
BBX 20 20 0 -3
BITMAP
000000
000000
000000
000000
000000
080e00
0fff00
070000
000000
000000
000000
000000
000000
000000
41ffc0
7f01e0
380000
000000
000000
000000
ENDCHAR
STARTCHAR 05-44
ENCODING 9548
SWIDTH 1010 0
DWIDTH 20 0
BBX 20 20 0 -3
BITMAP
000000
000000
000300
003f80
0fe300
070600
000600
000c00
00d800
003000
003800
006e00
00c700
018380
030180
060180
080000
300000
000000
000000
ENDCHAR
STARTCHAR 05-45
ENCODING 9549
SWIDTH 1010 0
DWIDTH 20 0
BBX 20 20 0 -3
BITMAP
00c000
007000
003000
000600
003f00
0fe600
060c00
001800
003000
006000
00dc00
016700
0261c0
0c60c0
306000
006000
006000
006000
006000
000000
ENDCHAR
STARTCHAR 05-46
ENCODING 9550
SWIDTH 1010 0
DWIDTH 20 0
BBX 20 20 0 -3
BITMAP
000000
000000
000300
000180
000180
000300
000300
000600
000400
000c00
001800
001000
002000
004000
008000
010000
020000
0c0000
300000
000000
ENDCHAR
STARTCHAR 05-47
ENCODING 9551
SWIDTH 1010 0
DWIDTH 20 0
BBX 20 20 0 -3
BITMAP
000000
000000
000000
000000
001000
040800
030400
030600
020300
060100
040180
0c00c0
0800c0
1000e0
200060
c00060
000000
000000
000000
000000
ENDCHAR
STARTCHAR 05-48
ENCODING 9552
SWIDTH 1010 0
DWIDTH 20 0
BBX 20 20 0 -3
BITMAP
000000
000080
000460
000320
001100
040800
030400
030600
020300
060100
040180
0c00c0
0800c0
1000e0
200060
c00060
000000
000000
000000
000000
ENDCHAR
STARTCHAR 05-49
ENCODING 9553
SWIDTH 1010 0
DWIDTH 20 0
BBX 20 20 0 -3
BITMAP
000000
0000c0
000120
000120
0010c0
040800
030400
030600
020300
060100
040180
0c00c0
0800c0
1000e0
200060
c00060
000000
000000
000000
000000
ENDCHAR
STARTCHAR 05-50
ENCODING 9554
SWIDTH 1010 0
DWIDTH 20 0
BBX 20 20 0 -3
BITMAP
000000
180000
0c0000
0c0000
0c0000
080000
080600
083f00
0ff000
080000
080000
080000
080000
080000
080000
0c0000
07ff00
01fe00
000000
000000
ENDCHAR
STARTCHAR 05-51
ENCODING 9555
SWIDTH 1010 0
DWIDTH 20 0
BBX 20 20 0 -3
BITMAP
000040
180030
0c0110
0c00c0
0c0040
080000
080600
083f00
0ff000
080000
080000
080000
080000
080000
080000
0c0000
07ff00
01fe00
000000
000000
ENDCHAR
STARTCHAR 05-52
ENCODING 9556
SWIDTH 1010 0
DWIDTH 20 0
BBX 20 20 0 -3
BITMAP
000000
180060
0c0090
0c0090
0c0060
080000
080600
083f00
0ff000
080000
080000
080000
080000
080000
080000
0c0000
07ff00
01fe00
000000
000000
ENDCHAR
STARTCHAR 05-53
ENCODING 9557
SWIDTH 1010 0
DWIDTH 20 0
BBX 20 20 0 -3
BITMAP
000000
000000
000000
0000c0
101fe0
1ff0c0
0e00c0
000080
000180
000180
000100
000300
000600
000400
000800
001000
002000
00c000
030000
000000
ENDCHAR
STARTCHAR 05-54
ENCODING 9558
SWIDTH 1010 0
DWIDTH 20 0
BBX 20 20 0 -3
BITMAP
000040
000130
0000d0
000140
203f80
3fe180
1c0180
000100
000300
000300
000200
000600
000c00
000800
001000
002000
004000
018000
060000
000000
ENDCHAR
STARTCHAR 05-55
ENCODING 9559
SWIDTH 1010 0
DWIDTH 20 0
BBX 20 20 0 -3
BITMAP
000060
000090
000090
000160
203f80
3fe180
1c0180
000100
000300
000300
000200
000600
000c00
000800
001000
002000
004000
018000
060000
000000
ENDCHAR
STARTCHAR 05-56
ENCODING 9560
SWIDTH 1010 0
DWIDTH 20 0
BBX 20 20 0 -3
BITMAP
000000
000000
000000
000000
010000
038000
024000
042000
0c1000
181800
700c00
200600
000380
0001e0
0000e0
000000
000000
000000
000000
000000
ENDCHAR
STARTCHAR 05-57
ENCODING 9561
SWIDTH 1010 0
DWIDTH 20 0
BBX 20 20 0 -3
BITMAP
000000
000080
000060
000220
010180
038080
024000
042000
0c1000
181800
700c00
200600
000380
0001e0
0000e0
000000
000000
000000
000000
000000
ENDCHAR
STARTCHAR 05-58
ENCODING 9562
SWIDTH 1010 0
DWIDTH 20 0
BBX 20 20 0 -3
BITMAP
000000
000000
000180
000240
010240
038180
024000
042000
0c1000
181800
700c00
200600
000380
0001e0
0000e0
000000
000000
000000
000000
000000
ENDCHAR
STARTCHAR 05-59
ENCODING 9563
SWIDTH 1010 0
DWIDTH 20 0
BBX 20 20 0 -3
BITMAP
000000
00c000
006000
006000
006000
004000
007f80
7fc3c0
384000
004000
004400
084200
0c4100
184180
1040c0
2040c0
416000
00e000
00c000
000000
ENDCHAR
STARTCHAR 05-60
ENCODING 9564
SWIDTH 1010 0
DWIDTH 20 0
BBX 20 20 0 -3
BITMAP
000040
00c130
0060d0
006040
006000
004000
007f80
7fc3c0
384000
004000
004400
084200
0c4100
184180
1040c0
2040c0
416000
00e000
00c000
000000
ENDCHAR
STARTCHAR 05-61
ENCODING 9565
SWIDTH 1010 0
DWIDTH 20 0
BBX 20 20 0 -3
BITMAP
0000c0
00c120
006120
0060c0
006000
004000
007f80
7fc3c0
384000
004000
004400
084200
0c4100
184180
1040c0
2040c0
416000
00e000
00c000
000000
ENDCHAR
STARTCHAR 05-62
ENCODING 9566
SWIDTH 1010 0
DWIDTH 20 0
BBX 20 20 0 -3
BITMAP
000000
000000
000000
000000
0000c0
003fe0
7fe0c0
380180
000300
000400
000800
033000
00c000
007000
003800
001c00
000c00
000000
000000
000000
ENDCHAR
STARTCHAR 05-63
ENCODING 9567
SWIDTH 1010 0
DWIDTH 20 0
BBX 20 20 0 -3
BITMAP
000000
000000
030000
00e000
003c00
000e00
000600
000000
030000
00e000
003800
001c00
000c00
000000
0e0000
01c000
007000
001c00
000e00
000600
ENDCHAR
STARTCHAR 05-64
ENCODING 9568
SWIDTH 1010 0
DWIDTH 20 0
BBX 20 20 0 -3
BITMAP
000000
000000
00c000
006000
006000
00c000
00c000
008000
018000
010000
010800
020600
020300
040180
047fc0
7fc0c0
3c00c0
000000
000000
000000
ENDCHAR
STARTCHAR 05-65
ENCODING 9569
SWIDTH 1010 0
DWIDTH 20 0
BBX 20 20 0 -3
BITMAP
000000
000000
000300
000180
000180
000300
000300
000600
018400
006c00
001800
001c00
002600
004300
008300
010000
020000
0c0000
300000
000000
ENDCHAR
STARTCHAR 05-66
ENCODING 9570
SWIDTH 1010 0
DWIDTH 20 0
BBX 20 20 0 -3
BITMAP
000000
000000
000000
000e00
1fff00
0e8000
00c000
00c000
0083c0
00bfe0
7fe000
388000
008000
008000
008000
00c000
007fc0
003f80
000000
000000
ENDCHAR
STARTCHAR 05-67
ENCODING 9571
SWIDTH 1010 0
DWIDTH 20 0
BBX 20 20 0 -3
BITMAP
000000
000000
000000
000000
000000
030000
030000
018000
018700
00bf80
03c300
3e8600
18c800
00c000
004000
004000
006000
006000
006000
000000
ENDCHAR
STARTCHAR 05-68
ENCODING 9572
SWIDTH 1010 0
DWIDTH 20 0
BBX 20 20 0 -3
BITMAP
000000
030000
070000
030000
0300c0
0187e0
01b8c0
01c180
7e8300
38c600
00c800
004000
006000
006000
006000
002000
003000
003000
003000
000000
ENDCHAR
STARTCHAR 05-69
ENCODING 9573
SWIDTH 1010 0
DWIDTH 20 0
BBX 20 20 0 -3
BITMAP
000000
000000
000000
000000
000000
000000
000000
000000
001800
07fc00
030800
000800
001800
001000
001000
01ff00
1f0780
0c0000
000000
000000
ENDCHAR
STARTCHAR 05-70
ENCODING 9574
SWIDTH 1010 0
DWIDTH 20 0
BBX 20 20 0 -3
BITMAP
000000
000000
000000
000000
000e00
0fff00
070600
000400
000c00
000800
000800
001000
001000
00ffc0
7f03e0
380000
000000
000000
000000
000000
ENDCHAR
STARTCHAR 05-71
ENCODING 9575
SWIDTH 1010 0
DWIDTH 20 0
BBX 20 20 0 -3
BITMAP
000000
000000
000000
000000
000000
000000
000600
0fff00
070600
000600
000400
07fc00
030c00
000800
000800
001800
1ffc00
0c0400
000000
000000
ENDCHAR
STARTCHAR 05-72
ENCODING 9576
SWIDTH 1010 0
DWIDTH 20 0
BBX 20 20 0 -3
BITMAP
000000
000000
000000
000180
1fffc0
0e0180
000180
000180
000100
0fff00
060300
000300
000200
000200
000600
3fff00
180300
000000
000000
000000
ENDCHAR
STARTCHAR 05-73
ENCODING 9577
SWIDTH 1010 0
DWIDTH 20 0
BBX 20 20 0 -3
BITMAP
000000
000e00
0fff00
070000
000000
000180
201fc0
3ff180
1c0180
000180
000300
000200
000600
000400
000800
001000
002000
00c000
030000
000000
ENDCHAR
STARTCHAR 05-74
ENCODING 9578
SWIDTH 1010 0
DWIDTH 20 0
BBX 20 20 0 -3
BITMAP
000000
000600
060300
030300
030300
030300
030300
030300
030300
030300
030200
010600
000600
000400
000c00
000800
001000
002000
00c000
000000
ENDCHAR
STARTCHAR 05-75
ENCODING 9579
SWIDTH 1010 0
DWIDTH 20 0
BBX 20 20 0 -3
BITMAP
000000
000000
006000
003000
0c3000
063000
063000
043000
063000
043000
0c2020
0c2040
082080
102100
102600
202c00
407800
803000
000000
000000
ENDCHAR
STARTCHAR 05-76
ENCODING 9580
SWIDTH 1010 0
DWIDTH 20 0
BBX 20 20 0 -3
BITMAP
000000
000000
0c0000
060000
060000
060000
060000
060000
060000
060040
040080
040100
040200
040c00
041800
047000
05c000
0f8000
060000
000000
ENDCHAR
STARTCHAR 05-77
ENCODING 9581
SWIDTH 1010 0
DWIDTH 20 0
BBX 20 20 0 -3
BITMAP
000000
000000
000000
000000
200080
307fc0
3fc180
300180
100180
100180
180100
180300
180300
180300
180300
1fff00
180100
000000
000000
000000
ENDCHAR
STARTCHAR 05-78
ENCODING 9582
SWIDTH 1010 0
DWIDTH 20 0
BBX 20 20 0 -3
BITMAP
000000
000000
000000
000000
000000
000000
180600
0c7f00
0fc600
0c0600
0c0600
0c0400
000c00
000c00
001800
001000
002000
004000
018000
000000
ENDCHAR
STARTCHAR 05-79
ENCODING 9583
SWIDTH 1010 0
DWIDTH 20 0
BBX 20 20 0 -3
BITMAP
000000
000000
100180
183fc0
1fe180
180180
180180
180180
180100
180300
080200
000200
000400
000400
000800
001000
002000
00c000
030000
000000
ENDCHAR
STARTCHAR 05-80
ENCODING 9584
SWIDTH 1010 0
DWIDTH 20 0
BBX 20 20 0 -3
BITMAP
000000
003000
001800
001800
001000
003f00
1fd380
0c1000
021000
031000
031000
067fc0
7f90e0
381000
001000
003000
003000
003000
001000
000000
ENDCHAR
STARTCHAR 05-81
ENCODING 9585
SWIDTH 1010 0
DWIDTH 20 0
BBX 20 20 0 -3
BITMAP
000000
000000
000000
000000
001f00
1fe380
0e0600
00cc00
005000
006000
004000
004000
004000
004000
00ffc0
7f01e0
380000
000000
000000
000000
ENDCHAR
STARTCHAR 05-82
ENCODING 9586
SWIDTH 1010 0
DWIDTH 20 0
BBX 20 20 0 -3
BITMAP
000000
000000
000180
001fc0
0ff180
070180
000100
000100
003f80
0fe200
060200
000600
000c00
000800
001000
002000
004000
018000
060000
000000
ENDCHAR
STARTCHAR 05-83
ENCODING 9587
SWIDTH 1010 0
DWIDTH 20 0
BBX 20 20 0 -3
BITMAP
000000
000000
000000
180000
060000
030000
030040
000080
000100
000300
000600
000c00
001800
003000
00e000
238000
1f0000
1c0000
000000
000000
ENDCHAR
STARTCHAR 05-84
ENCODING 9588
SWIDTH 1010 0
DWIDTH 20 0
BBX 20 20 0 -3
BITMAP
000040
00c130
0060d0
006140
204180
307f80
3fc180
300180
300100
300300
100300
000200
000600
000400
000800
001000
002000
00c000
030000
000000
ENDCHAR
STARTCHAR 05-85
ENCODING 9589
SWIDTH 1010 0
DWIDTH 20 0
BBX 20 20 0 -3
BITMAP
000000
000000
000000
000000
000000
006000
003000
002000
002100
007f80
0ff180
064100
00c300
008300
018200
010600
022600
041c00
080800
000000
ENDCHAR
STARTCHAR 05-86
ENCODING 9590
SWIDTH 1010 0
DWIDTH 20 0
BBX 20 20 0 -3
BITMAP
000000
000000
000000
000000
000000
010000
018000
030000
030600
063f00
07e000
0c3000
103000
202000
006000
004000
008000
010000
060000
000000
ENDCHAR
STARTCHAR 06-01
ENCODING 9761
SWIDTH 1010 0
DWIDTH 20 0
BBX 20 20 0 -3
BITMAP
000000
000000
004000
006000
00e000
00b000
00b000
013000
011800
011800
020800
03fc00
020c00
040c00
040600
080600
0c0700
3e1fc0
000000
000000
ENDCHAR
STARTCHAR 06-02
ENCODING 9762
SWIDTH 1010 0
DWIDTH 20 0
BBX 20 20 0 -3
BITMAP
000000
000000
1ff800
060600
060300
060300
060300
060300
060600
07fc00
060c00
060300
060300
060300
060300
060300
060600
1ff800
000000
000000
ENDCHAR
STARTCHAR 06-03
ENCODING 9763
SWIDTH 1010 0
DWIDTH 20 0
BBX 20 20 0 -3
BITMAP
000000
000000
0fff80
030180
030080
030080
030000
030000
030000
030000
030000
030000
030000
030000
030000
030000
030000
0fc000
000000
000000
ENDCHAR
STARTCHAR 06-04
ENCODING 9764
SWIDTH 1010 0
DWIDTH 20 0
BBX 20 20 0 -3
BITMAP
000000
000000
004000
006000
00e000
00b000
013000
011800
011800
020800
020c00
040c00
040600
080600
080300
100300
1fff80
3fff80
000000
000000
ENDCHAR
STARTCHAR 06-05
ENCODING 9765
SWIDTH 1010 0
DWIDTH 20 0
BBX 20 20 0 -3
BITMAP
000000
000000
1fff00
060300
060100
060100
061000
061000
063000
07f000
063000
061000
061000
060000
060100
060100
060300
1fff00
000000
000000
ENDCHAR
STARTCHAR 06-06
ENCODING 9766
SWIDTH 1010 0
DWIDTH 20 0
BBX 20 20 0 -3
BITMAP
000000
000000
0fff00
0c0600
080c00
081800
001800
003000
006000
004000
00c000
00c000
018000
030000
030100
060100
0c0300
1fff00
000000
000000
ENDCHAR
STARTCHAR 06-07
ENCODING 9767
SWIDTH 1010 0
DWIDTH 20 0
BBX 20 20 0 -3
BITMAP
000000
000000
3f1f80
0c0600
0c0600
0c0600
0c0600
0c0600
0c0600
0ffe00
0c0600
0c0600
0c0600
0c0600
0c0600
0c0600
0c0600
3f1f80
000000
000000
ENDCHAR
STARTCHAR 06-08
ENCODING 9768
SWIDTH 1010 0
DWIDTH 20 0
BBX 20 20 0 -3
BITMAP
000000
000000
01f000
060c00
0c0600
180300
180300
320980
320980
33f980
33f980
320980
320980
180300
180300
0c0600
060c00
01f000
000000
000000
ENDCHAR
STARTCHAR 06-09
ENCODING 9769
SWIDTH 1010 0
DWIDTH 20 0
BBX 20 20 0 -3
BITMAP
000000
000000
03fc00
006000
006000
006000
006000
006000
006000
006000
006000
006000
006000
006000
006000
006000
006000
03fc00
000000
000000
ENDCHAR
STARTCHAR 06-10
ENCODING 9770
SWIDTH 1010 0
DWIDTH 20 0
BBX 20 20 0 -3
BITMAP
000000
000000
1f9f80
060400
060800
061000
062000
064000
068000
07c000
066000
063000
061800
061800
060c00
060600
060300
1f8fc0
000000
000000
ENDCHAR
STARTCHAR 06-11
ENCODING 9771
SWIDTH 1010 0
DWIDTH 20 0
BBX 20 20 0 -3
BITMAP
000000
000000
004000
006000
00e000
00b000
00b000
013000
011800
021800
020c00
020c00
040c00
040600
080600
080700
0c0300
3e1fc0
000000
000000
ENDCHAR
STARTCHAR 06-12
ENCODING 9772
SWIDTH 1010 0
DWIDTH 20 0
BBX 20 20 0 -3
BITMAP
000000
000000
7803e0
180380
1c0380
1c0580
160580
160980
130980
131180
119180
11a180
10e180
10e180
104180
104180
100180
7c07e0
000000
000000
ENDCHAR
STARTCHAR 06-13
ENCODING 9773
SWIDTH 1010 0
DWIDTH 20 0
BBX 20 20 0 -3
BITMAP
000000
000000
3e0f80
0f0200
0b0200
098200
09c200
08c200
086200
086200
083200
083a00
081a00
080e00
080e00
080600
080200
3e0200
000000
000000
ENDCHAR
STARTCHAR 06-14
ENCODING 9774
SWIDTH 1010 0
DWIDTH 20 0
BBX 20 20 0 -3
BITMAP
000000
000000
0fff80
0fff80
0c0180
080080
080080
010400
010400
01fc00
01fc00
010400
010400
080080
080080
0c0180
0fff80
0fff80
000000
000000
ENDCHAR
STARTCHAR 06-15
ENCODING 9775
SWIDTH 1010 0
DWIDTH 20 0
BBX 20 20 0 -3
BITMAP
000000
000000
01f000
060c00
0c0600
180300
180300
300180
300180
300180
300180
300180
300180
180300
180300
0c0600
060c00
01f000
000000
000000
ENDCHAR
STARTCHAR 06-16
ENCODING 9776
SWIDTH 1010 0
DWIDTH 20 0
BBX 20 20 0 -3
BITMAP
000000
000000
1fff80
060600
060600
060600
060600
060600
060600
060600
060600
060600
060600
060600
060600
060600
060600
1f9f80
000000
000000
ENDCHAR
STARTCHAR 06-17
ENCODING 9777
SWIDTH 1010 0
DWIDTH 20 0
BBX 20 20 0 -3
BITMAP
000000
000000
0ffe00
030300
030180
030180
030180
030180
030300
03fe00
030000
030000
030000
030000
030000
030000
030000
0fc000
000000
000000
ENDCHAR
STARTCHAR 06-18
ENCODING 9778
SWIDTH 1010 0
DWIDTH 20 0
BBX 20 20 0 -3
BITMAP
000000
000000
1fff00
0c0300
060100
030100
018000
00c000
006000
003000
004000
008000
010000
020100
040100
080300
1fff00
1fff00
000000
000000
ENDCHAR
STARTCHAR 06-19
ENCODING 9779
SWIDTH 1010 0
DWIDTH 20 0
BBX 20 20 0 -3
BITMAP
000000
000000
1fff80
186180
106080
106080
006000
006000
006000
006000
006000
006000
006000
006000
006000
006000
006000
01f800
000000
000000
ENDCHAR
STARTCHAR 06-20
ENCODING 9780
SWIDTH 1010 0
DWIDTH 20 0
BBX 20 20 0 -3
BITMAP
000000
000000
030c00
0f9f00
186180
106080
206040
206040
006000
006000
006000
006000
006000
006000
006000
006000
006000
01f800
000000
000000
ENDCHAR
STARTCHAR 06-21
ENCODING 9781
SWIDTH 1010 0
DWIDTH 20 0
BBX 20 20 0 -3
BITMAP
000000
000000
01f800
006000
006000
03fc00
0c6300
186180
3060c0
3060c0
3060c0
3060c0
186180
0c6300
03fc00
006000
006000
01f800
000000
000000
ENDCHAR
STARTCHAR 06-22
ENCODING 9782
SWIDTH 1010 0
DWIDTH 20 0
BBX 20 20 0 -3
BITMAP
000000
000000
3f0f80
0e0600
060400
030800
019000
019000
00e000
006000
00b000
00b000
011800
020c00
020c00
040600
0c0700
3f0fc0
000000
000000
ENDCHAR
STARTCHAR 06-23
ENCODING 9783
SWIDTH 1010 0
DWIDTH 20 0
BBX 20 20 0 -3
BITMAP
000000
000000
01f800
3861c0
4c6320
046200
066600
066600
066600
066600
026400
036c00
01f800
006000
006000
006000
006000
01f800
000000
000000
ENDCHAR
STARTCHAR 06-24
ENCODING 9784
SWIDTH 1010 0
DWIDTH 20 0
BBX 20 20 0 -3
BITMAP
000000
000000
01f800
060600
0c0300
080100
180180
180180
180180
080100
0c0300
040200
020400
110880
109080
189180
1f9f80
1f9f80
000000
000000
ENDCHAR
STARTCHAR 06-33
ENCODING 9793
SWIDTH 1010 0
DWIDTH 20 0
BBX 20 20 0 -3
BITMAP
000000
000000
000000
000000
000000
000000
000000
00e300
011300
021600
041400
041c00
0c1800
0c1800
0c2900
064e00
038600
000000
000000
000000
ENDCHAR
STARTCHAR 06-34
ENCODING 9794
SWIDTH 1010 0
DWIDTH 20 0
BBX 20 20 0 -3
BITMAP
000000
001c00
002200
004100
00c100
018300
010300
033600
033800
060400
060600
040600
0c0600
0c0600
0d0c00
089800
187000
180000
180000
180000
ENDCHAR
STARTCHAR 06-35
ENCODING 9795
SWIDTH 1010 0
DWIDTH 20 0
BBX 20 20 0 -3
BITMAP
000000
000000
000000
000000
000000
000000
000000
000000
078300
0c4600
184c00
005800
007000
006000
00c000
00c000
008000
018000
018000
018000
ENDCHAR
STARTCHAR 06-36
ENCODING 9796
SWIDTH 1010 0
DWIDTH 20 0
BBX 20 20 0 -3
BITMAP
000000
00f000
019c00
010600
008700
004300
002000
003000
01d800
030800
060c00
0c0c00
0c0c00
0c1800
0c1800
043000
03c000
000000
000000
000000
ENDCHAR
STARTCHAR 06-37
ENCODING 9797
SWIDTH 1010 0
DWIDTH 20 0
BBX 20 20 0 -3
BITMAP
000000
000000
000000
000000
000000
000000
000000
00fc00
018600
030000
018000
00f800
030000
060000
060000
030e00
00f800
000000
000000
000000
ENDCHAR
STARTCHAR 06-38
ENCODING 9798
SWIDTH 1010 0
DWIDTH 20 0
BBX 20 20 0 -3
BITMAP
000000
010000
020200
060600
060c00
01f800
003000
006000
00c000
018000
030000
060000
060000
070000
03c000
007000
001800
001800
001800
00f000
ENDCHAR
STARTCHAR 06-39
ENCODING 9799
SWIDTH 1010 0
DWIDTH 20 0
BBX 20 20 0 -3
BITMAP
000000
000000
000000
000000
000000
000000
000000
071c00
08a200
00c300
018300
018200
030600
030400
060c00
0c0800
0c1800
001800
003000
003000
ENDCHAR
STARTCHAR 06-40
ENCODING 9800
SWIDTH 1010 0
DWIDTH 20 0
BBX 20 20 0 -3
BITMAP
000000
001e00
006100
00c180
018180
018180
030180
030300
07ff00
060300
060600
0c0600
0c0c00
0c0c00
0c1800
063000
03c000
000000
000000
000000
ENDCHAR
STARTCHAR 06-41
ENCODING 9801
SWIDTH 1010 0
DWIDTH 20 0
BBX 20 20 0 -3
BITMAP
000000
000000
000000
000000
000000
000000
000000
008000
018000
018000
030000
030000
060200
060400
061800
03f000
01c000
000000
000000
000000
ENDCHAR
STARTCHAR 06-42
ENCODING 9802
SWIDTH 1010 0
DWIDTH 20 0
BBX 20 20 0 -3
BITMAP
000000
000000
000000
000000
000000
000000
000000
030c00
031e00
033200
024000
03c000
064000
064000
046200
0c3c00
0c1800
000000
000000
000000
ENDCHAR
STARTCHAR 06-43
ENCODING 9803
SWIDTH 1010 0
DWIDTH 20 0
BBX 20 20 0 -3
BITMAP
000000
006000
003000
001000
001000
001000
001000
003000
005800
00d800
009800
010800
030c00
020c00
060600
0c0700
0c0300
000000
000000
000000
ENDCHAR
STARTCHAR 06-44
ENCODING 9804
SWIDTH 1010 0
DWIDTH 20 0
BBX 20 20 0 -3
BITMAP
000000
000000
000000
000000
000000
000000
000000
030400
030400
020c00
020800
060800
041800
041000
0e3080
0bef00
09c600
180000
180000
100000
ENDCHAR
STARTCHAR 06-45
ENCODING 9805
SWIDTH 1010 0
DWIDTH 20 0
BBX 20 20 0 -3
BITMAP
000000
000000
000000
000000
000000
000000
000000
060100
020100
030200
030600
020c00
021800
043000
04e000
0f8000
060000
000000
000000
000000
ENDCHAR
STARTCHAR 06-46
ENCODING 9806
SWIDTH 1010 0
DWIDTH 20 0
BBX 20 20 0 -3
BITMAP
000000
001e00
003000
006000
003000
00fe00
018000
030000
030000
018000
07fe00
0c0000
0c0000
0e0000
07c000
007800
000c00
000c00
003800
07e000
ENDCHAR
STARTCHAR 06-47
ENCODING 9807
SWIDTH 1010 0
DWIDTH 20 0
BBX 20 20 0 -3
BITMAP
000000
000000
000000
000000
000000
000000
000000
007800
018400
030200
020200
060600
060600
040400
040c00
021800
01e000
000000
000000
000000
ENDCHAR
STARTCHAR 06-48
ENCODING 9808
SWIDTH 1010 0
DWIDTH 20 0
BBX 20 20 0 -3
BITMAP
000000
000000
000000
000000
000000
000000
000100
07fe00
088800
019800
011000
033000
023000
062000
042100
0c3e00
0c1c00
000000
000000
000000
ENDCHAR
STARTCHAR 06-49
ENCODING 9809
SWIDTH 1010 0
DWIDTH 20 0
BBX 20 20 0 -3
BITMAP
000000
000000
000000
000000
000000
000000
000000
003800
00c600
018300
010300
030300
020300
020600
060600
068c00
047000
0c0000
0c0000
0c0000
ENDCHAR
STARTCHAR 06-50
ENCODING 9810
SWIDTH 1010 0
DWIDTH 20 0
BBX 20 20 0 -3
BITMAP
000000
000000
000000
000000
000000
000100
000180
007f00
018800
030400
020600
060600
060600
060c00
060c00
021000
01e000
000000
000000
000000
ENDCHAR
STARTCHAR 06-51
ENCODING 9811
SWIDTH 1010 0
DWIDTH 20 0
BBX 20 20 0 -3
BITMAP
000000
000000
000000
000000
000000
000000
000100
07fe00
084000
00c000
008000
018000
018000
030400
030800
01f000
00e000
000000
000000
000000
ENDCHAR
STARTCHAR 06-52
ENCODING 9812
SWIDTH 1010 0
DWIDTH 20 0
BBX 20 20 0 -3
BITMAP
000000
000000
000000
000000
000000
000000
000000
060400
030200
030200
030200
060600
060400
040c00
043800
03f000
01c000
000000
000000
000000
ENDCHAR
STARTCHAR 06-53
ENCODING 9813
SWIDTH 1010 0
DWIDTH 20 0
BBX 20 20 0 -3
BITMAP
000000
000c00
000c00
000800
000800
001800
001000
01fc00
072200
062300
0c6300
0c6300
0c4600
044e00
03f800
008000
008000
018000
018000
018000
ENDCHAR
STARTCHAR 06-54
ENCODING 9814
SWIDTH 1010 0
DWIDTH 20 0
BBX 20 20 0 -3
BITMAP
000000
000000
000000
000000
000000
000000
000000
038300
044600
004c00
005800
005000
006000
00e000
00c000
014000
034000
064000
0c2200
181c00
ENDCHAR
STARTCHAR 06-55
ENCODING 9815
SWIDTH 1010 0
DWIDTH 20 0
BBX 20 20 0 -3
BITMAP
000000
000600
000400
000c00
000c00
000800
001800
061100
0b1100
033100
032300
022200
066600
044400
025800
01f000
008000
008000
018000
018000
ENDCHAR
STARTCHAR 06-56
ENCODING 9816
SWIDTH 1010 0
DWIDTH 20 0
BBX 20 20 0 -3
BITMAP
000000
000000
000000
000000
000000
000000
000000
030100
042080
082080
0860c0
1060c0
104080
104080
10e100
0f3e00
061c00
000000
000000
000000
ENDCHAR
STARTCHAR 07-01
ENCODING 10017
SWIDTH 1010 0
DWIDTH 20 0
BBX 20 20 0 -3
BITMAP
000000
000000
004000
006000
00e000
00b000
00b000
013000
011800
021800
020c00
03fc00
040c00
040600
040600
080600
0c0700
3e1fc0
000000
000000
ENDCHAR
STARTCHAR 07-02
ENCODING 10018
SWIDTH 1010 0
DWIDTH 20 0
BBX 20 20 0 -3
BITMAP
000000
000000
1ffe00
060600
060200
060200
060000
060000
060000
07f800
060600
060300
060300
060300
060300
060300
060600
1ff800
000000
000000
ENDCHAR
STARTCHAR 07-03
ENCODING 10019
SWIDTH 1010 0
DWIDTH 20 0
BBX 20 20 0 -3
BITMAP
000000
000000
1ff000
060c00
060600
060600
060600
060400
060800
07f800
060600
060300
060300
060300
060300
060300
060600
1ff800
000000
000000
ENDCHAR
STARTCHAR 07-04
ENCODING 10020
SWIDTH 1010 0
DWIDTH 20 0
BBX 20 20 0 -3
BITMAP
000000
000000
0fff00
030300
030180
030080
030000
030000
030000
030000
030000
030000
030000
030000
030000
030000
030000
0fc000
000000
000000
ENDCHAR
STARTCHAR 07-05
ENCODING 10021
SWIDTH 1010 0
DWIDTH 20 0
BBX 20 20 0 -3
BITMAP
000000
000000
07ff80
008600
008600
008600
008600
008600
010600
010600
010600
020600
020600
020600
040600
040600
080600
3fff80
200080
200080
ENDCHAR
STARTCHAR 07-06
ENCODING 10022
SWIDTH 1010 0
DWIDTH 20 0
BBX 20 20 0 -3
BITMAP
000000
000000
1fff00
060300
060180
060080
061000
061000
063000
07f000
063000
061000
061000
060080
060080
060180
060300
1fff00
000000
000000
ENDCHAR
STARTCHAR 07-07
ENCODING 10023
SWIDTH 1010 0
DWIDTH 20 0
BBX 20 20 0 -3
BITMAP
030c00
030c00
000000
1fff00
060300
060180
060080
061000
061000
063000
07f000
063000
061000
061000
060080
060180
060300
1fff00
000000
000000
ENDCHAR
STARTCHAR 07-08
ENCODING 10024
SWIDTH 1010 0
DWIDTH 20 0
BBX 20 20 0 -3
BITMAP
000000
000000
31f8c0
686160
686160
046200
046200
046200
026400
01f800
036c00
036c00
066600
066600
0c6300
1c6300
186180
7dfbe0
000000
000000
ENDCHAR
STARTCHAR 07-09
ENCODING 10025
SWIDTH 1010 0
DWIDTH 20 0
BBX 20 20 0 -3
BITMAP
000000
000000
03f800
060e00
080600
080300
000300
000600
000e00
01f800
000e00
000600
000300
000300
080300
080600
060e00
03f800
000000
000000
ENDCHAR
STARTCHAR 07-10
ENCODING 10026
SWIDTH 1010 0
DWIDTH 20 0
BBX 20 20 0 -3
BITMAP
000000
000000
3e0fc0
0c0300
0c0700
0c0b00
0c0b00
0c1300
0c2300
0c2300
0c4300
0c4300
0c8300
0d0300
0d0300
0e0300
0c0300
3f0fc0
000000
000000
ENDCHAR
STARTCHAR 07-11
ENCODING 10027
SWIDTH 1010 0
DWIDTH 20 0
BBX 20 20 0 -3
BITMAP
019800
019800
00f000
3e0fc0
0c0300
0c0700
0c0b00
0c1300
0c1300
0c2300
0c2300
0c4300
0c8300
0c8300
0d0300
0e0300
0c0300
3f0fc0
000000
000000
ENDCHAR
STARTCHAR 07-12
ENCODING 10028
SWIDTH 1010 0
DWIDTH 20 0
BBX 20 20 0 -3
BITMAP
000000
000000
1f8300
060780
060980
061000
061000
062000
064000
07c000
066000
063000
061800
061800
060c00
060600
060300
1f8fc0
000000
000000
ENDCHAR
STARTCHAR 07-13
ENCODING 10029
SWIDTH 1010 0
DWIDTH 20 0
BBX 20 20 0 -3
BITMAP
000000
000000
03ff80
008600
008600
008600
008600
008600
008600
008600
010600
010600
010600
010600
020600
320600
340600
181f80
000000
000000
ENDCHAR
STARTCHAR 07-14
ENCODING 10030
SWIDTH 1010 0
DWIDTH 20 0
BBX 20 20 0 -3
BITMAP
000000
000000
7803e0
180380
1c0380
1c0580
160580
160980
130980
131180
119180
21a0c0
20e0c0
20e0c0
2040c0
2040c0
3000c0
f803f0
000000
000000
ENDCHAR
STARTCHAR 07-15
ENCODING 10031
SWIDTH 1010 0
DWIDTH 20 0
BBX 20 20 0 -3
BITMAP
000000
000000
3f0fc0
0c0300
0c0300
0c0300
0c0300
0c0300
0c0300
0fff00
0c0300
0c0300
0c0300
0c0300
0c0300
0c0300
0c0300
3f0fc0
000000
000000
ENDCHAR
STARTCHAR 07-16
ENCODING 10032
SWIDTH 1010 0
DWIDTH 20 0
BBX 20 20 0 -3
BITMAP
000000
000000
01f800
060600
0c0300
180180
180180
3000c0
3000c0
3000c0
3000c0
3000c0
3000c0
180180
180180
0c0300
060600
01f800
000000
000000
ENDCHAR
STARTCHAR 07-17
ENCODING 10033
SWIDTH 1010 0
DWIDTH 20 0
BBX 20 20 0 -3
BITMAP
000000
000000
3fff80
0c0600
0c0600
0c0600
0c0600
0c0600
0c0600
0c0600
0c0600
0c0600
0c0600
0c0600
0c0600
0c0600
0c0600
3f1f80
000000
000000
ENDCHAR
STARTCHAR 07-18
ENCODING 10034
SWIDTH 1010 0
DWIDTH 20 0
BBX 20 20 0 -3
BITMAP
000000
000000
1ff800
060600
060300
060300
060300
060300
060600
07f800
060000
060000
060000
060000
060000
060000
060000
1f8000
000000
000000
ENDCHAR
STARTCHAR 07-19
ENCODING 10035
SWIDTH 1010 0
DWIDTH 20 0
BBX 20 20 0 -3
BITMAP
000000
000000
00fc00
030700
060300
0c0180
0c0080
180000
180000
180000
180000
180000
180000
0c0000
0c0080
060100
030600
00f800
000000
000000
ENDCHAR
STARTCHAR 07-20
ENCODING 10036
SWIDTH 1010 0
DWIDTH 20 0
BBX 20 20 0 -3
BITMAP
000000
000000
1fff80
186180
106080
106080
006000
006000
006000
006000
006000
006000
006000
006000
006000
006000
006000
01f800
000000
000000
ENDCHAR
STARTCHAR 07-21
ENCODING 10037
SWIDTH 1010 0
DWIDTH 20 0
BBX 20 20 0 -3
BITMAP
000000
000000
1f8fc0
0e0100
060100
030200
030200
018400
00c400
00c800
006800
007000
003000
002000
082000
1c4000
188000
0f0000
000000
000000
ENDCHAR
STARTCHAR 07-22
ENCODING 10038
SWIDTH 1010 0
DWIDTH 20 0
BBX 20 20 0 -3
BITMAP
000000
000000
01f800
006000
006000
03fc00
0c6300
186180
3060c0
3060c0
3060c0
3060c0
186180
0c6300
03fc00
006000
006000
01f800
000000
000000
ENDCHAR
STARTCHAR 07-23
ENCODING 10039
SWIDTH 1010 0
DWIDTH 20 0
BBX 20 20 0 -3
BITMAP
000000
000000
1f87c0
070300
030200
018400
018400
00c800
005000
007000
003000
005800
009800
008c00
010600
020600
060300
1f8fc0
000000
000000
ENDCHAR
STARTCHAR 07-24
ENCODING 10040
SWIDTH 1010 0
DWIDTH 20 0
BBX 20 20 0 -3
BITMAP
000000
000000
3f1f80
0c0600
0c0600
0c0600
0c0600
0c0600
0c0600
0c0600
0c0600
0c0600
0c0600
0c0600
0c0600
0c0600
0c0600
3fff80
000080
000080
ENDCHAR
STARTCHAR 07-25
ENCODING 10041
SWIDTH 1010 0
DWIDTH 20 0
BBX 20 20 0 -3
BITMAP
000000
000000
1f8fc0
060300
060300
060300
060300
060300
060300
060300
060700
030b00
00f300
000300
000300
000300
000300
000fc0
000000
000000
ENDCHAR
STARTCHAR 07-26
ENCODING 10042
SWIDTH 1010 0
DWIDTH 20 0
BBX 20 20 0 -3
BITMAP
000000
000000
fdfbf0
3060c0
3060c0
3060c0
3060c0
3060c0
3060c0
3060c0
3060c0
3060c0
3060c0
3060c0
3060c0
3060c0
3060c0
fffff0
000000
000000
ENDCHAR
STARTCHAR 07-27
ENCODING 10043
SWIDTH 1010 0
DWIDTH 20 0
BBX 20 20 0 -3
BITMAP
000000
000000
fdfbf0
3060c0
3060c0
3060c0
3060c0
3060c0
3060c0
3060c0
3060c0
3060c0
3060c0
3060c0
3060c0
3060c0
3060c0
fffff0
000010
000010
ENDCHAR
STARTCHAR 07-28
ENCODING 10044
SWIDTH 1010 0
DWIDTH 20 0
BBX 20 20 0 -3
BITMAP
000000
000000
3fc000
330000
230000
230000
030000
030000
030000
03fc00
030300
030180
030180
030180
030180
030180
030300
0ffc00
000000
000000
ENDCHAR
STARTCHAR 07-29
ENCODING 10045
SWIDTH 1010 0
DWIDTH 20 0
BBX 20 20 0 -3
BITMAP
000000
000000
7e07e0
180180
180180
180180
180180
180180
180180
1fc180
183180
181980
181980
181980
181980
181180
183180
7fc7e0
000000
000000
ENDCHAR
STARTCHAR 07-30
ENCODING 10046
SWIDTH 1010 0
DWIDTH 20 0
BBX 20 20 0 -3
BITMAP
000000
000000
1f8000
060000
060000
060000
060000
060000
060000
07f800
060600
060300
060300
060300
060300
060300
060600
1ff800
000000
000000
ENDCHAR
STARTCHAR 07-31
ENCODING 10047
SWIDTH 1010 0
DWIDTH 20 0
BBX 20 20 0 -3
BITMAP
000000
000000
01f800
060e00
080300
000300
000180
000180
01e180
027380
001d80
000180
000180
000180
000300
080300
060e00
01f800
000000
000000
ENDCHAR
STARTCHAR 07-32
ENCODING 10048
SWIDTH 1010 0
DWIDTH 20 0
BBX 20 20 0 -3
BITMAP
000000
000000
7e0f00
181980
1830c0
182040
186060
186060
186060
1fe060
186060
186060
186060
186060
182040
1830c0
181980
7e0f00
000000
000000
ENDCHAR
STARTCHAR 07-33
ENCODING 10049
SWIDTH 1010 0
DWIDTH 20 0
BBX 20 20 0 -3
BITMAP
000000
000000
00ffc0
030300
060300
060300
060300
060300
030300
00ff00
006300
00c300
00c300
018300
010300
020300
040300
180fc0
000000
000000
ENDCHAR
STARTCHAR 07-49
ENCODING 10065
SWIDTH 1010 0
DWIDTH 20 0
BBX 20 20 0 -3
BITMAP
000000
000000
000000
000000
000000
000000
000000
00f000
031800
070c00
020c00
003c00
01cc00
030c00
060c00
060c00
061d00
03e600
000000
000000
ENDCHAR
STARTCHAR 07-50
ENCODING 10066
SWIDTH 1010 0
DWIDTH 20 0
BBX 20 20 0 -3
BITMAP
000000
000200
000c00
007000
018000
030000
020000
06f800
078c00
060400
060600
060600
060600
060600
060600
020400
030c00
00f000
000000
000000
ENDCHAR
STARTCHAR 07-51
ENCODING 10067
SWIDTH 1010 0
DWIDTH 20 0
BBX 20 20 0 -3
BITMAP
000000
000000
000000
000000
000000
000000
000000
07f800
018400
018600
018600
018400
01f800
018600
018600
018600
018600
07fc00
000000
000000
ENDCHAR
STARTCHAR 07-52
ENCODING 10068
SWIDTH 1010 0
DWIDTH 20 0
BBX 20 20 0 -3
BITMAP
000000
000000
000000
000000
000000
000000
000000
07fe00
018600
018200
018200
018000
018000
018000
018000
018000
018000
07e000
000000
000000
ENDCHAR
STARTCHAR 07-53
ENCODING 10069
SWIDTH 1010 0
DWIDTH 20 0
BBX 20 20 0 -3
BITMAP
000000
000000
000000
000000
000000
000000
000000
03ff00
008c00
008c00
008c00
008c00
010c00
010c00
010c00
020c00
020c00
0fff00
080100
080100
ENDCHAR
STARTCHAR 07-54
ENCODING 10070
SWIDTH 1010 0
DWIDTH 20 0
BBX 20 20 0 -3
BITMAP
000000
000000
000000
000000
000000
000000
000000
00f800
038c00
030600
060600
07fe00
060000
060000
060000
030200
038400
00f800
000000
000000
ENDCHAR
STARTCHAR 07-55
ENCODING 10071
SWIDTH 1010 0
DWIDTH 20 0
BBX 20 20 0 -3
BITMAP
000000
000000
000000
018c00
018c00
000000
000000
00f800
038c00
030600
060600
07fe00
060000
060000
060000
030200
038400
00f800
000000
000000
ENDCHAR
STARTCHAR 07-56
ENCODING 10072
SWIDTH 1010 0
DWIDTH 20 0
BBX 20 20 0 -3
BITMAP
000000
000000
000000
000000
000000
000000
000000
19f980
3c63c0
126480
026400
016800
01f800
036c00
066600
0c6300
186180
7dfbe0
000000
000000
ENDCHAR
STARTCHAR 07-57
ENCODING 10073
SWIDTH 1010 0
DWIDTH 20 0
BBX 20 20 0 -3
BITMAP
000000
000000
000000
000000
000000
000000
000000
00f800
010c00
020600
000600
000c00
007800
000c00
000600
020600
010c00
00f800
000000
000000
ENDCHAR
STARTCHAR 07-58
ENCODING 10074
SWIDTH 1010 0
DWIDTH 20 0
BBX 20 20 0 -3
BITMAP
000000
000000
000000
000000
000000
000000
000000
0fdf80
030600
030e00
031600
031600
032600
034600
034600
038600
030600
0fdf80
000000
000000
ENDCHAR
STARTCHAR 07-59
ENCODING 10075
SWIDTH 1010 0
DWIDTH 20 0
BBX 20 20 0 -3
BITMAP
000000
000000
000000
01dc00
018c00
00f800
000000
0fcf80
030600
030e00
031600
031600
032600
034600
034600
038600
030600
0f9f80
000000
000000
ENDCHAR
STARTCHAR 07-60
ENCODING 10076
SWIDTH 1010 0
DWIDTH 20 0
BBX 20 20 0 -3
BITMAP
000000
000000
000000
000000
000000
000000
000000
0fc600
030b00
031200
031000
032000
03c000
036000
033000
031800
030c00
0f9f00
000000
000000
ENDCHAR
STARTCHAR 07-61
ENCODING 10077
SWIDTH 1010 0
DWIDTH 20 0
BBX 20 20 0 -3
BITMAP
000000
000000
000000
000000
000000
000000
000000
01ff00
004c00
004c00
004c00
004c00
004c00
008c00
008c00
048c00
0d0c00
063f00
000000
000000
ENDCHAR
STARTCHAR 07-62
ENCODING 10078
SWIDTH 1010 0
DWIDTH 20 0
BBX 20 20 0 -3
BITMAP
000000
000000
000000
000000
000000
000000
000000
1f1f80
060600
060e00
070e00
051600
059600
08a300
08e300
084300
084300
3e0fc0
000000
000000
ENDCHAR
STARTCHAR 07-63
ENCODING 10079
SWIDTH 1010 0
DWIDTH 20 0
BBX 20 20 0 -3
BITMAP
000000
000000
000000
000000
000000
000000
000000
1fbf00
060c00
060c00
060c00
060c00
07fc00
060c00
060c00
060c00
060c00
1fbf00
000000
000000
ENDCHAR
STARTCHAR 07-64
ENCODING 10080
SWIDTH 1010 0
DWIDTH 20 0
BBX 20 20 0 -3
BITMAP
000000
000000
000000
000000
000000
000000
000000
00f000
039c00
030c00
060600
060600
060600
060600
060600
030c00
039c00
00f000
000000
000000
ENDCHAR
STARTCHAR 07-65
ENCODING 10081
SWIDTH 1010 0
DWIDTH 20 0
BBX 20 20 0 -3
BITMAP
000000
000000
000000
000000
000000
000000
000000
1fff00
060c00
060c00
060c00
060c00
060c00
060c00
060c00
060c00
060c00
1fbf00
000000
000000
ENDCHAR
STARTCHAR 07-66
ENCODING 10082
SWIDTH 1010 0
DWIDTH 20 0
BBX 20 20 0 -3
BITMAP
000000
000000
000000
000000
000000
000000
000000
0f7800
038e00
030600
030300
030300
030300
030300
030600
038e00
037800
030000
030000
0fc000
ENDCHAR
STARTCHAR 07-67
ENCODING 10083
SWIDTH 1010 0
DWIDTH 20 0
BBX 20 20 0 -3
BITMAP
000000
000000
000000
000000
000000
000000
000000
00f800
038c00
030e00
060400
060000
060000
060000
060000
030200
038400
00f800
000000
000000
ENDCHAR
STARTCHAR 07-68
ENCODING 10084
SWIDTH 1010 0
DWIDTH 20 0
BBX 20 20 0 -3
BITMAP
000000
000000
000000
000000
000000
000000
000000
07fe00
066600
046200
046200
006000
006000
006000
006000
006000
006000
01f800
000000
000000
ENDCHAR
STARTCHAR 07-69
ENCODING 10085
SWIDTH 1010 0
DWIDTH 20 0
BBX 20 20 0 -3
BITMAP
000000
000000
000000
000000
000000
000000
000000
0f8f00
030400
030400
018800
018800
00d000
00d000
006000
006000
004000
0c4000
0e8000
070000
ENDCHAR
STARTCHAR 07-70
ENCODING 10086
SWIDTH 1010 0
DWIDTH 20 0
BBX 20 20 0 -3
BITMAP
000000
002000
00e000
006000
006000
006000
006000
076e00
0cf300
186180
186180
186180
186180
186180
0cf300
076e00
006000
006000
006000
01f800
ENDCHAR
STARTCHAR 07-71
ENCODING 10087
SWIDTH 1010 0
DWIDTH 20 0
BBX 20 20 0 -3
BITMAP
000000
000000
000000
000000
000000
000000
000000
0f9f00
030400
018800
00d000
00e000
006000
007000
00b800
011800
020c00
0f9f00
000000
000000
ENDCHAR
STARTCHAR 07-72
ENCODING 10088
SWIDTH 1010 0
DWIDTH 20 0
BBX 20 20 0 -3
BITMAP
000000
000000
000000
000000
000000
000000
000000
0fdf80
030600
030600
030600
030600
030600
030600
030600
030600
030600
0fff80
000080
000080
ENDCHAR
STARTCHAR 07-73
ENCODING 10089
SWIDTH 1010 0
DWIDTH 20 0
BBX 20 20 0 -3
BITMAP
000000
000000
000000
000000
000000
000000
000000
1fbf00
060c00
060c00
060c00
060c00
060c00
071c00
03ec00
000c00
000c00
003f00
000000
000000
ENDCHAR
STARTCHAR 07-74
ENCODING 10090
SWIDTH 1010 0
DWIDTH 20 0
BBX 20 20 0 -3
BITMAP
000000
000000
000000
000000
000000
000000
000000
7ef7e0
186180
186180
186180
186180
186180
186180
186180
186180
186180
7fffe0
000000
000000
ENDCHAR
STARTCHAR 07-75
ENCODING 10091
SWIDTH 1010 0
DWIDTH 20 0
BBX 20 20 0 -3
BITMAP
000000
000000
000000
000000
000000
000000
000000
7ef7e0
186180
186180
186180
186180
186180
186180
186180
186180
186180
7fffe0
000020
000020
ENDCHAR
STARTCHAR 07-76
ENCODING 10092
SWIDTH 1010 0
DWIDTH 20 0
BBX 20 20 0 -3
BITMAP
000000
000000
000000
000000
000000
000000
000000
0ff000
0cc000
08c000
08c000
00c000
00fe00
00c300
00c180
00c180
00c300
01fe00
000000
000000
ENDCHAR
STARTCHAR 07-77
ENCODING 10093
SWIDTH 1010 0
DWIDTH 20 0
BBX 20 20 0 -3
BITMAP
000000
000000
000000
000000
000000
000000
000000
3f0fc0
0c0300
0c0300
0c0300
0c0300
0fc300
0c6300
0c3300
0c3300
0c6300
3fcfc0
000000
000000
ENDCHAR
STARTCHAR 07-78
ENCODING 10094
SWIDTH 1010 0
DWIDTH 20 0
BBX 20 20 0 -3
BITMAP
000000
000000
000000
000000
000000
000000
000000
0fc000
030000
030000
030000
030000
03f800
030c00
030600
030600
030c00
0ff800
000000
000000
ENDCHAR
STARTCHAR 07-79
ENCODING 10095
SWIDTH 1010 0
DWIDTH 20 0
BBX 20 20 0 -3
BITMAP
000000
000000
000000
000000
000000
000000
000000
03f000
041c00
000c00
000600
00ce00
013600
000600
000600
000c00
041c00
03f000
000000
000000
ENDCHAR
STARTCHAR 07-80
ENCODING 10096
SWIDTH 1010 0
DWIDTH 20 0
BBX 20 20 0 -3
BITMAP
000000
000000
000000
000000
000000
000000
000000
1f9e00
063300
062100
066180
066180
07e180
066180
066180
062100
063300
1f9e00
000000
000000
ENDCHAR
STARTCHAR 07-81
ENCODING 10097
SWIDTH 1010 0
DWIDTH 20 0
BBX 20 20 0 -3
BITMAP
000000
000000
000000
000000
000000
000000
000000
01ff00
030c00
060c00
060c00
030c00
01fc00
00cc00
00cc00
018c00
030c00
0c3f00
000000
000000
ENDCHAR
STARTCHAR 08-01
ENCODING 10273
SWIDTH 1010 0
DWIDTH 20 0
BBX 20 20 0 -3
BITMAP
000000
000000
000000
000000
000000
000000
000000
000000
000000
fffff0
000000
000000
000000
000000
000000
000000
000000
000000
000000
000000
ENDCHAR
STARTCHAR 08-02
ENCODING 10274
SWIDTH 1010 0
DWIDTH 20 0
BBX 20 20 0 -3
BITMAP
004000
004000
004000
004000
004000
004000
004000
004000
004000
004000
004000
004000
004000
004000
004000
004000
004000
004000
004000
004000
ENDCHAR
STARTCHAR 08-03
ENCODING 10275
SWIDTH 1010 0
DWIDTH 20 0
BBX 20 20 0 -3
BITMAP
000000
000000
000000
000000
000000
000000
000000
000000
000000
007ff0
004000
004000
004000
004000
004000
004000
004000
004000
004000
004000
ENDCHAR
STARTCHAR 08-04
ENCODING 10276
SWIDTH 1010 0
DWIDTH 20 0
BBX 20 20 0 -3
BITMAP
000000
000000
000000
000000
000000
000000
000000
000000
000000
ffc000
004000
004000
004000
004000
004000
004000
004000
004000
004000
004000
ENDCHAR
STARTCHAR 08-05
ENCODING 10277
SWIDTH 1010 0
DWIDTH 20 0
BBX 20 20 0 -3
BITMAP
004000
004000
004000
004000
004000
004000
004000
004000
004000
ffc000
000000
000000
000000
000000
000000
000000
000000
000000
000000
000000
ENDCHAR
STARTCHAR 08-06
ENCODING 10278
SWIDTH 1010 0
DWIDTH 20 0
BBX 20 20 0 -3
BITMAP
004000
004000
004000
004000
004000
004000
004000
004000
004000
007ff0
000000
000000
000000
000000
000000
000000
000000
000000
000000
000000
ENDCHAR
STARTCHAR 08-07
ENCODING 10279
SWIDTH 1010 0
DWIDTH 20 0
BBX 20 20 0 -3
BITMAP
004000
004000
004000
004000
004000
004000
004000
004000
004000
007ff0
004000
004000
004000
004000
004000
004000
004000
004000
004000
004000
ENDCHAR
STARTCHAR 08-08
ENCODING 10280
SWIDTH 1010 0
DWIDTH 20 0
BBX 20 20 0 -3
BITMAP
000000
000000
000000
000000
000000
000000
000000
000000
000000
fffff0
004000
004000
004000
004000
004000
004000
004000
004000
004000
004000
ENDCHAR
STARTCHAR 08-09
ENCODING 10281
SWIDTH 1010 0
DWIDTH 20 0
BBX 20 20 0 -3
BITMAP
004000
004000
004000
004000
004000
004000
004000
004000
004000
ffc000
004000
004000
004000
004000
004000
004000
004000
004000
004000
004000
ENDCHAR
STARTCHAR 08-10
ENCODING 10282
SWIDTH 1010 0
DWIDTH 20 0
BBX 20 20 0 -3
BITMAP
004000
004000
004000
004000
004000
004000
004000
004000
004000
fffff0
000000
000000
000000
000000
000000
000000
000000
000000
000000
000000
ENDCHAR
STARTCHAR 08-11
ENCODING 10283
SWIDTH 1010 0
DWIDTH 20 0
BBX 20 20 0 -3
BITMAP
004000
004000
004000
004000
004000
004000
004000
004000
004000
fffff0
004000
004000
004000
004000
004000
004000
004000
004000
004000
004000
ENDCHAR
STARTCHAR 08-12
ENCODING 10284
SWIDTH 1010 0
DWIDTH 20 0
BBX 20 20 0 -3
BITMAP
000000
000000
000000
000000
000000
000000
000000
000000
000000
fffff0
fffff0
000000
000000
000000
000000
000000
000000
000000
000000
000000
ENDCHAR
STARTCHAR 08-13
ENCODING 10285
SWIDTH 1010 0
DWIDTH 20 0
BBX 20 20 0 -3
BITMAP
006000
006000
006000
006000
006000
006000
006000
006000
006000
006000
006000
006000
006000
006000
006000
006000
006000
006000
006000
006000
ENDCHAR
STARTCHAR 08-14
ENCODING 10286
SWIDTH 1010 0
DWIDTH 20 0
BBX 20 20 0 -3
BITMAP
000000
000000
000000
000000
000000
000000
000000
000000
000000
007ff0
007ff0
006000
006000
006000
006000
006000
006000
006000
006000
006000
ENDCHAR
STARTCHAR 08-15
ENCODING 10287
SWIDTH 1010 0
DWIDTH 20 0
BBX 20 20 0 -3
BITMAP
000000
000000
000000
000000
000000
000000
000000
000000
000000
ffe000
ffe000
006000
006000
006000
006000
006000
006000
006000
006000
006000
ENDCHAR
STARTCHAR 08-16
ENCODING 10288
SWIDTH 1010 0
DWIDTH 20 0
BBX 20 20 0 -3
BITMAP
006000
006000
006000
006000
006000
006000
006000
006000
006000
ffe000
ffe000
000000
000000
000000
000000
000000
000000
000000
000000
000000
ENDCHAR
STARTCHAR 08-17
ENCODING 10289
SWIDTH 1010 0
DWIDTH 20 0
BBX 20 20 0 -3
BITMAP
006000
006000
006000
006000
006000
006000
006000
006000
006000
007ff0
007ff0
000000
000000
000000
000000
000000
000000
000000
000000
000000
ENDCHAR
STARTCHAR 08-18
ENCODING 10290
SWIDTH 1010 0
DWIDTH 20 0
BBX 20 20 0 -3
BITMAP
006000
006000
006000
006000
006000
006000
006000
006000
006000
007ff0
007ff0
006000
006000
006000
006000
006000
006000
006000
006000
006000
ENDCHAR
STARTCHAR 08-19
ENCODING 10291
SWIDTH 1010 0
DWIDTH 20 0
BBX 20 20 0 -3
BITMAP
000000
000000
000000
000000
000000
000000
000000
000000
000000
fffff0
fffff0
006000
006000
006000
006000
006000
006000
006000
006000
006000
ENDCHAR
STARTCHAR 08-20
ENCODING 10292
SWIDTH 1010 0
DWIDTH 20 0
BBX 20 20 0 -3
BITMAP
006000
006000
006000
006000
006000
006000
006000
006000
006000
ffe000
ffe000
006000
006000
006000
006000
006000
006000
006000
006000
006000
ENDCHAR
STARTCHAR 08-21
ENCODING 10293
SWIDTH 1010 0
DWIDTH 20 0
BBX 20 20 0 -3
BITMAP
006000
006000
006000
006000
006000
006000
006000
006000
006000
fffff0
fffff0
000000
000000
000000
000000
000000
000000
000000
000000
000000
ENDCHAR
STARTCHAR 08-22
ENCODING 10294
SWIDTH 1010 0
DWIDTH 20 0
BBX 20 20 0 -3
BITMAP
006000
006000
006000
006000
006000
006000
006000
006000
006000
fffff0
fffff0
006000
006000
006000
006000
006000
006000
006000
006000
006000
ENDCHAR
STARTCHAR 08-23
ENCODING 10295
SWIDTH 1010 0
DWIDTH 20 0
BBX 20 20 0 -3
BITMAP
006000
006000
006000
006000
006000
006000
006000
006000
006000
007ff0
006000
006000
006000
006000
006000
006000
006000
006000
006000
006000
ENDCHAR
STARTCHAR 08-24
ENCODING 10296
SWIDTH 1010 0
DWIDTH 20 0
BBX 20 20 0 -3
BITMAP
000000
000000
000000
000000
000000
000000
000000
000000
000000
fffff0
fffff0
004000
004000
004000
004000
004000
004000
004000
004000
004000
ENDCHAR
STARTCHAR 08-25
ENCODING 10297
SWIDTH 1010 0
DWIDTH 20 0
BBX 20 20 0 -3
BITMAP
006000
006000
006000
006000
006000
006000
006000
006000
006000
ffe000
006000
006000
006000
006000
006000
006000
006000
006000
006000
006000
ENDCHAR
STARTCHAR 08-26
ENCODING 10298
SWIDTH 1010 0
DWIDTH 20 0
BBX 20 20 0 -3
BITMAP
004000
004000
004000
004000
004000
004000
004000
004000
004000
fffff0
fffff0
000000
000000
000000
000000
000000
000000
000000
000000
000000
ENDCHAR
STARTCHAR 08-27
ENCODING 10299
SWIDTH 1010 0
DWIDTH 20 0
BBX 20 20 0 -3
BITMAP
004000
004000
004000
004000
004000
004000
004000
004000
004000
fffff0
fffff0
004000
004000
004000
004000
004000
004000
004000
004000
004000
ENDCHAR
STARTCHAR 08-28
ENCODING 10300
SWIDTH 1010 0
DWIDTH 20 0
BBX 20 20 0 -3
BITMAP
004000
004000
004000
004000
004000
004000
004000
004000
004000
007ff0
007ff0
004000
004000
004000
004000
004000
004000
004000
004000
004000
ENDCHAR
STARTCHAR 08-29
ENCODING 10301
SWIDTH 1010 0
DWIDTH 20 0
BBX 20 20 0 -3
BITMAP
000000
000000
000000
000000
000000
000000
000000
000000
000000
fffff0
006000
006000
006000
006000
006000
006000
006000
006000
006000
006000
ENDCHAR
STARTCHAR 08-30
ENCODING 10302
SWIDTH 1010 0
DWIDTH 20 0
BBX 20 20 0 -3
BITMAP
004000
004000
004000
004000
004000
004000
004000
004000
004000
ffc000
ffc000
004000
004000
004000
004000
004000
004000
004000
004000
004000
ENDCHAR
STARTCHAR 08-31
ENCODING 10303
SWIDTH 1010 0
DWIDTH 20 0
BBX 20 20 0 -3
BITMAP
006000
006000
006000
006000
006000
006000
006000
006000
006000
fffff0
000000
000000
000000
000000
000000
000000
000000
000000
000000
000000
ENDCHAR
STARTCHAR 08-32
ENCODING 10304
SWIDTH 1010 0
DWIDTH 20 0
BBX 20 20 0 -3
BITMAP
006000
006000
006000
006000
006000
006000
006000
006000
006000
fffff0
006000
006000
006000
006000
006000
006000
006000
006000
006000
006000
ENDCHAR
STARTCHAR 16-01
ENCODING 12321
SWIDTH 1010 0
DWIDTH 20 0
BBX 20 20 0 -3
BITMAP
0000c0
7fffe0
031800
031800
031800
231980
3fffc0
331980
331980
331980
331980
331980
3fff80
331980
031800
031800
031800
031860
fffff0
000000
ENDCHAR
STARTCHAR 16-02
ENCODING 12322
SWIDTH 1010 0
DWIDTH 20 0
BBX 20 20 0 -3
BITMAP
000060
01fff0
8c3300
fe3300
cc3300
cd3320
cdfff0
cdb360
cdb360
cdb360
cdb360
cdb360
cdffe0
fdb360
cc3300
c03300
003300
003360
03fff0
000000
ENDCHAR
STARTCHAR 16-03
ENCODING 12323
SWIDTH 1010 0
DWIDTH 20 0
BBX 20 20 0 -3
BITMAP
1c0700
180600
180640
183fe0
1b0600
ff8600
330600
330620
337ff0
230400
620700
660600
660640
d47fe0
cc0600
0e0600
1b0600
330620
40fff0
800000
ENDCHAR
STARTCHAR 16-04
ENCODING 12324
SWIDTH 1010 0
DWIDTH 20 0
BBX 20 20 0 -3
BITMAP
440060
7efff0
6c00c0
6c00c0
6800c0
688cc0
70fec0
68ccc0
64ccc0
64ccc0
66ccc0
66ccc0
66fcc0
7eccc0
6cc0c0
6000c0
6000c0
6000c0
6003c0
600080
ENDCHAR
STARTCHAR 16-05
ENCODING 12325
SWIDTH 1010 0
DWIDTH 20 0
BBX 20 20 0 -3
BITMAP
007000
006000
006060
fffff0
000000
080300
0fff80
0c0300
0c0300
0c0300
0fff00
099320
039070
0608c0
1e0d80
f60600
060300
07e1c0
7e00f0
380060
ENDCHAR
STARTCHAR 16-06
ENCODING 12326
SWIDTH 1010 0
DWIDTH 20 0
BBX 20 20 0 -3
BITMAP
000700
00ffc0
3fc100
084180
0c6100
4c6220
7ffff0
c02020
cb31a0
1b34c0
7306c0
61fc00
020300
07ff80
0e0600
199800
60f000
039e00
0e07f0
f000e0
ENDCHAR
STARTCHAR 16-07
ENCODING 12327
SWIDTH 1010 0
DWIDTH 20 0
BBX 20 20 0 -3
BITMAP
382000
303800
303080
302040
fc47e0
33fc60
318000
307000
3060c0
34ffe0
388c00
f10c00
f00c60
33fff0
301a00
301b00
303180
3061c0
f0c0f0
230060
ENDCHAR
STARTCHAR 16-08
ENCODING 12328
SWIDTH 1010 0
DWIDTH 20 0
BBX 20 20 0 -3
BITMAP
1c0700
180600
180500
180d00
1b0980
ff9880
3310c0
333060
332070
234020
621fc0
660000
662060
d43ff0
cc3060
0e3060
1b3060
333060
403fe0
803060
ENDCHAR
STARTCHAR 16-09
ENCODING 12329
SWIDTH 1010 0
DWIDTH 20 0
BBX 20 20 0 -3
BITMAP
401000
301980
183fc0
185180
018b00
000600
001b80
1870f0
fd8e60
180c00
18ffc0
180c00
18ffc0
180c00
19ffe0
180c00
180c00
340c00
e3fff0
40ffe0
ENDCHAR
STARTCHAR 16-10
ENCODING 12330
SWIDTH 1010 0
DWIDTH 20 0
BBX 20 20 0 -3
BITMAP
070700
060620
fffff0
060600
060600
019180
1fdb00
018c60
c306c0
660300
1fffc0
3860f0
e06020
006180
3fffc0
00d800
018c00
030700
0e03e0
7000c0
ENDCHAR
STARTCHAR 16-11
ENCODING 12331
SWIDTH 1010 0
DWIDTH 20 0
BBX 20 20 0 -3
BITMAP
070700
060600
060660
fffff0
060600
060600
000060
fffff0
019800
2198c0
3fffe0
3198c0
311ac0
331ac0
361fc0
380ec0
3000c0
3000c0
3fffc0
3000c0
ENDCHAR
STARTCHAR 16-12
ENCODING 12332
SWIDTH 1010 0
DWIDTH 20 0
BBX 20 20 0 -3
BITMAP
063200
1f3f00
f86600
188800
19ffc0
18ccc0
feffc0
18ccc0
1cffc0
3a0c00
3bffe0
398c60
79ffe0
598c60
99ffe0
198c00
180c20
180c20
180ff0
1807e0
ENDCHAR
STARTCHAR 16-13
ENCODING 12333
SWIDTH 1010 0
DWIDTH 20 0
BBX 20 20 0 -3
BITMAP
0000c0
7fffe0
031800
2318c0
3fffe0
3318c0
3318c0
3318c0
3fffc0
031800
031860
fffff0
002000
001000
139880
131840
330260
630260
63ff00
01fe00
ENDCHAR
STARTCHAR 16-14
ENCODING 12334
SWIDTH 1010 0
DWIDTH 20 0
BBX 20 20 0 -3
BITMAP
390060
31fff0
318060
318060
31ffe0
fd8000
318040
31bfe0
318600
3184c0
3d8840
f1bfe0
719660
310600
330640
337fe0
320600
320620
f6fff0
240000
ENDCHAR
STARTCHAR 16-15
ENCODING 12335
SWIDTH 1010 0
DWIDTH 20 0
BBX 20 20 0 -3
BITMAP
210060
11fff0
198060
198060
01ffe0
818000
4180c0
65bfe0
658600
098480
098840
19bfe0
119660
b18600
730640
337fe0
330600
320660
36fff0
340000
ENDCHAR
STARTCHAR 16-16
ENCODING 12336
SWIDTH 1010 0
DWIDTH 20 0
BBX 20 20 0 -3
BITMAP
1c0000
1820c0
183fe0
1830c0
1830c0
1b30c0
ffb0c0
1b3fc0
1b30c0
1b30c0
1b30c0
1b30c0
1b30c0
1b3fc0
3330c0
333000
230020
630020
43fff0
81ffe0
ENDCHAR
STARTCHAR 16-17
ENCODING 12337
SWIDTH 1010 0
DWIDTH 20 0
BBX 20 20 0 -3
BITMAP
070700
060620
fffff0
060600
06e600
00c000
1fff00
030360
fffff0
000000
0fff00
0c0300
0fff00
001880
1fffc0
181800
181860
fffff0
001800
001800
ENDCHAR
STARTCHAR 16-18
ENCODING 12338
SWIDTH 1010 0
DWIDTH 20 0
BBX 20 20 0 -3
BITMAP
070700
060660
fffff0
060600
060600
0000c0
7fffe0
000000
080180
0fffc0
0c0180
0c0180
0c0180
0fff80
0c0180
180000
180000
300000
600000
800000
ENDCHAR
STARTCHAR 16-19
ENCODING 12339
SWIDTH 1010 0
DWIDTH 20 0
BBX 20 20 0 -3
BITMAP
380800
320e80
3f1840
6611e0
487e60
ff1a00
6b0220
6b7ff0
6b0d00
7f18f0
6b6260
6b0700
6b0c80
7f30c0
630180
000620
553870
5501c0
d40700
c07800
ENDCHAR
STARTCHAR 16-20
ENCODING 12340
SWIDTH 1010 0
DWIDTH 20 0
BBX 20 20 0 -3
BITMAP
1c0e00
180c00
180c40
1affe0
ff4100
1821c0
183180
3c3300
3a3260
3bfff0
7b0c00
580c00
580c00
980c40
18ffe0
180c00
180c00
180c00
180c00
180c00
ENDCHAR
STARTCHAR 16-21
ENCODING 12341
SWIDTH 1010 0
DWIDTH 20 0
BBX 20 20 0 -3
BITMAP
200060
3ffff0
300000
300000
303800
303000
303000
303000
303000
303180
37ffc0
603000
603000
603000
603000
603000
403000
403060
9ffff0
000000
ENDCHAR
STARTCHAR 16-22
ENCODING 12342
SWIDTH 1010 0
DWIDTH 20 0
BBX 20 20 0 -3
BITMAP
1c0700
180600
1b0d00
ff8d80
181880
9b18c0
ffb060
c32070
c359a0
ff0d80
c30d80
c36180
ff3180
1831a0
1901f0
ff8f80
187180
180180
180180
180180
ENDCHAR
STARTCHAR 16-23
ENCODING 12343
SWIDTH 1010 0
DWIDTH 20 0
BBX 20 20 0 -3
BITMAP
380300
33ff80
306300
306300
346300
fe6600
306660
30d7f0
30d660
30d060
36d8c0
38c8c0
f08d80
718700
318200
318700
310d80
3318c0
f230f0
24c060
ENDCHAR
STARTCHAR 16-24
ENCODING 12344
SWIDTH 1010 0
DWIDTH 20 0
BBX 20 20 0 -3
BITMAP
007000
006000
406020
7ffff0
600060
c80040
cc0000
192180
1fbfc0
31b180
31b180
633180
db3180
0b3780
063100
063000
0c3020
183020
303ff0
c01fe0
ENDCHAR
STARTCHAR 16-25
ENCODING 12345
SWIDTH 1010 0
DWIDTH 20 0
BBX 20 20 0 -3
BITMAP
1c2180
183fc0
183180
183180
1b3180
ffb180
333180
333f80
333180
233180
623180
663180
663180
d43f80
cc3180
0e3180
1b3180
333180
4031a0
81fff0
ENDCHAR
STARTCHAR 16-26
ENCODING 12346
SWIDTH 1010 0
DWIDTH 20 0
BBX 20 20 0 -3
BITMAP
0e0380
0c0300
0c0300
4d8300
7fd360
6d9ff0
6d9800
6d9800
6d9800
6d9800
7f9800
6d9800
0c1800
0c1800
0d1800
0c9800
0fd800
fcdfe0
60cfe0
400000
ENDCHAR
STARTCHAR 16-27
ENCODING 12347
SWIDTH 1010 0
DWIDTH 20 0
BBX 20 20 0 -3
BITMAP
1c0800
180e00
340c00
330c00
618840
5d9860
d81020
7f13f0
637e30
7f3830
630000
7f2060
633ff0
603060
643060
623060
633060
6db060
f1bfe0
603060
ENDCHAR
STARTCHAR 16-28
ENCODING 12348
SWIDTH 1010 0
DWIDTH 20 0
BBX 20 20 0 -3
BITMAP
083800
0e3000
083000
906060
647ff0
374060
36a260
0c3f60
082260
122260
212260
ffbe60
6da260
0c2260
4e2260
6d3ec0
4da2c0
8d80c0
0c0780
0c0100
ENDCHAR
STARTCHAR 16-29
ENCODING 12349
SWIDTH 1010 0
DWIDTH 20 0
BBX 20 20 0 -3
BITMAP
100700
1c0640
307fe0
a40600
470620
66fff0
6c1b20
081b20
1433f0
2261e0
ff9000
5b1840
183fe0
5c70c0
7a9180
5b0b00
5b0e00
981b80
1861f0
198060
ENDCHAR
STARTCHAR 16-30
ENCODING 12350
SWIDTH 1010 0
DWIDTH 20 0
BBX 20 20 0 -3
BITMAP
380700
320600
3f0600
660600
498660
ffc7f0
6d8600
6d8600
6d8600
7f8600
6da660
6dbff0
6db060
7fb060
61b060
003060
553060
55b060
d4bfe0
c03060
ENDCHAR
STARTCHAR 16-31
ENCODING 12351
SWIDTH 1010 0
DWIDTH 20 0
BBX 20 20 0 -3
BITMAP
001d80
0018c0
0018c0
001820
fffff0
001800
001800
419880
7fd8e0
618cc0
618cc0
618d80
7f8d80
618700
600300
01c720
0f0da0
f818e0
607070
01c030
ENDCHAR
STARTCHAR 16-32
ENCODING 12352
SWIDTH 1010 0
DWIDTH 20 0
BBX 20 20 0 -3
BITMAP
000060
fffff0
030c00
430c60
7ffff0
630c60
630c60
630c60
7fffe0
686460
046700
066600
066860
fffff0
01e800
03e600
0e6380
3861f0
c06060
006000
ENDCHAR
STARTCHAR 16-33
ENCODING 12353
SWIDTH 1010 0
DWIDTH 20 0
BBX 20 20 0 -3
BITMAP
1c0700
180600
190500
ff8d00
030c80
0618c0
041060
0d3070
19a1a0
395fc0
5e0000
9b0000
19a060
19bff0
183060
183060
183060
183060
183fe0
183060
ENDCHAR
STARTCHAR 16-34
ENCODING 12354
SWIDTH 1010 0
DWIDTH 20 0
BBX 20 20 0 -3
BITMAP
007000
006000
406020
7ffff0
400060
c1c040
c18080
018000
030060
fffff0
030600
060600
060c00
0f9800
0cf000
007800
00ce00
038700
0e01c0
7000c0
ENDCHAR
STARTCHAR 16-35
ENCODING 12355
SWIDTH 1010 0
DWIDTH 20 0
BBX 20 20 0 -3
BITMAP
003800
403060
7ffff0
604000
607000
606180
6fffc0
60c800
61b600
633300
67ffc0
6f3370
73ff20
633300
633300
43ff00
433320
803020
803ff0
001fe0
ENDCHAR
STARTCHAR 16-36
ENCODING 12356
SWIDTH 1010 0
DWIDTH 20 0
BBX 20 20 0 -3
BITMAP
380e00
300c00
308c20
30fff0
318060
fd9c40
301800
301800
303060
35fff0
383180
f06180
706300
306300
30fe00
30ce00
301b80
3031c0
f0e0e0
238060
ENDCHAR
STARTCHAR 16-37
ENCODING 12357
SWIDTH 1010 0
DWIDTH 20 0
BBX 20 20 0 -3
BITMAP
000700
000600
460640
7f7fe0
662080
6610c0
661980
661900
660220
7efff0
660000
6620c0
663fe0
6630c0
6630c0
7e3fc0
6630c0
6030c0
003fc0
0030c0
ENDCHAR
STARTCHAR 16-38
ENCODING 12358
SWIDTH 1010 0
DWIDTH 20 0
BBX 20 20 0 -3
BITMAP
007000
406020
7ffff0
c00060
c1c080
018020
fffff0
030600
0fcc00
0c7800
01ce00
0e0700
707300
006060
fffff0
01e800
076700
1c61f0
e06060
006000
ENDCHAR
STARTCHAR 16-39
ENCODING 12359
SWIDTH 1010 0
DWIDTH 20 0
BBX 20 20 0 -3
BITMAP
419060
7fdff0
619860
619860
7f9fe0
619860
619860
7f9fe0
606060
606460
67fe60
611860
609260
6fff60
600060
63fc60
630c60
63fc60
630de0
63fc40
ENDCHAR
STARTCHAR 16-40
ENCODING 12360
SWIDTH 1010 0
DWIDTH 20 0
BBX 20 20 0 -3
BITMAP
330700
220600
222620
ffbff0
226020
226420
3e0700
2a0600
080420
7f7ff0
490cc0
4908c0
7f18c0
491980
083580
ffb300
080780
080cc0
083860
08c060
ENDCHAR
STARTCHAR 16-41
ENCODING 12361
SWIDTH 1010 0
DWIDTH 20 0
BBX 20 20 0 -3
BITMAP
007000
006000
006000
006060
fffff0
01f000
03ec00
076600
0e6380
3860f0
e06060
006000
100180
1fffc0
180180
180180
180180
180180
1fff80
180180
ENDCHAR
STARTCHAR 16-42
ENCODING 12362
SWIDTH 1010 0
DWIDTH 20 0
BBX 20 20 0 -3
BITMAP
000000
3800e0
3000c0
3000c0
3000c0
3100c0
30c0c0
3060c0
307180
303180
300180
300180
300300
300300
308680
3306c0
3c0c60
f01870
607030
038030
ENDCHAR
STARTCHAR 16-43
ENCODING 12363
SWIDTH 1010 0
DWIDTH 20 0
BBX 20 20 0 -3
BITMAP
0e0000
0c00c0
0dffe0
0c18c0
1818c0
1818c0
33fff0
3818c0
5818c0
9818c0
1818c0
19ffc0
1818c0
181800
181800
183000
183000
186000
18c000
190000
ENDCHAR
STARTCHAR 16-44
ENCODING 12364
SWIDTH 1010 0
DWIDTH 20 0
BBX 20 20 0 -3
BITMAP
0e0e00
0c0c00
0c0c00
0c0c00
180c60
19fff0
300000
380080
5880e0
9840c0
1860c0
186180
186180
186100
186300
180200
180200
180260
1bfff0
180000
ENDCHAR
STARTCHAR 16-45
ENCODING 12365
SWIDTH 1010 0
DWIDTH 20 0
BBX 20 20 0 -3
BITMAP
0e0e00
0c0c00
0c0c00
0c0c60
1bfff0
181800
181800
383800
382880
7868e0
586cc0
98e580
19e500
1b6600
186300
186300
186180
1861c0
1bf8f0
198060
ENDCHAR
STARTCHAR 16-46
ENCODING 12366
SWIDTH 1010 0
DWIDTH 20 0
BBX 20 20 0 -3
BITMAP
0e1c00
0c1980
0cffc0
0c3180
1861a0
1bfff0
180000
3880c0
38ffe0
78c0c0
58ffc0
98c6c0
180600
1806c0
19ffe0
18c600
18c660
1bfff0
180600
180600
ENDCHAR
STARTCHAR 16-47
ENCODING 12367
SWIDTH 1010 0
DWIDTH 20 0
BBX 20 20 0 -3
BITMAP
400060
7ffff0
600060
61dc60
619860
619a60
6fff60
619860
619860
619860
619a60
6fff60
619860
631860
631860
661860
681860
600060
7fffe0
600060
ENDCHAR
STARTCHAR 16-48
ENCODING 12368
SWIDTH 1010 0
DWIDTH 20 0
BBX 20 20 0 -3
BITMAP
007000
006060
fffff0
006000
0060c0
3fffe0
0060c0
1060c0
1fffc0
186000
306060
3ffff0
306060
00d060
00dbc0
018c80
030600
060380
1c01f0
e00060
ENDCHAR
STARTCHAR 16-49
ENCODING 12369
SWIDTH 1010 0
DWIDTH 20 0
BBX 20 20 0 -3
BITMAP
001c00
007f00
1fe000
006060
fffff0
01f000
036c00
066600
0c6380
3881f0
c0e060
00c000
018060
fffff0
030600
060c00
0df800
006f00
03c3c0
7c00c0
ENDCHAR
STARTCHAR 16-50
ENCODING 12370
SWIDTH 1010 0
DWIDTH 20 0
BBX 20 20 0 -3
BITMAP
001d80
0018c0
0018c0
401820
7ffff0
601800
609800
6fd880
6018e0
630cc0
624cc0
7fed80
64cd80
648700
6f8300
69c720
4365a0
c66ce0
881870
002030
ENDCHAR
STARTCHAR 16-51
ENCODING 12371
SWIDTH 1010 0
DWIDTH 20 0
BBX 20 20 0 -3
BITMAP
4060e0
7ff0c0
6060c0
6060c0
7fe0c0
606ff0
6000c0
6080c0
6fc0c0
6008c0
60c4c0
7fe6c0
6306c0
6b40c0
6f40c0
4b60c0
5360c0
c300c0
8f03c0
020080
ENDCHAR
STARTCHAR 16-52
ENCODING 12372
SWIDTH 1010 0
DWIDTH 20 0
BBX 20 20 0 -3
BITMAP
1c2000
183900
1831c0
183180
1c6360
5a7ff0
5b6300
5be300
d8e340
d97fe0
986300
186300
186340
187fe0
186300
186300
186300
186360
187ff0
186000
ENDCHAR
STARTCHAR 16-53
ENCODING 12373
SWIDTH 1010 0
DWIDTH 20 0
BBX 20 20 0 -3
BITMAP
007000
0060c0
7fffe0
040400
030700
030c60
fffff0
000000
1fff80
180180
1fff80
180180
1fff80
004000
073080
161860
161a30
260230
e7ff00
c1fe00
ENDCHAR
STARTCHAR 16-54
ENCODING 12374
SWIDTH 1010 0
DWIDTH 20 0
BBX 20 20 0 -3
BITMAP
4060e0
7ff0c0
6060c0
7fe0c0
601ff0
6080c0
6fc8c0
6004c0
6fe6c0
5346c0
5b20c0
9320c0
2f03c0
020080
006000
171860
161930
260130
e7ff80
c1ff00
ENDCHAR
STARTCHAR 16-55
ENCODING 12375
SWIDTH 1010 0
DWIDTH 20 0
BBX 20 20 0 -3
BITMAP
080300
0fff80
0c0300
0c0300
0fff00
0c0300
0c0300
0fff00
0cc300
018060
03fff0
066660
1c6660
30cc60
c18c60
0318c0
0630c0
186180
018f80
000100
ENDCHAR
STARTCHAR 16-56
ENCODING 12376
SWIDTH 1010 0
DWIDTH 20 0
BBX 20 20 0 -3
BITMAP
1c0e00
180c00
180cc0
18ffe0
1a0c00
ff1b00
1830c0
18c0c0
3c0020
3afff0
3b00c0
7b44c0
587ec0
5844c0
9844c0
187cc0
1844c0
1840c0
1803c0
180080
ENDCHAR
STARTCHAR 16-57
ENCODING 12377
SWIDTH 1010 0
DWIDTH 20 0
BBX 20 20 0 -3
BITMAP
18e000
0cc000
0cc000
00cc00
7ffe00
018c00
018c00
030d80
07ffc0
060180
0c0180
1801a0
3ffff0
600060
844c60
122660
133660
3330c0
6003c0
000080
ENDCHAR
STARTCHAR 16-58
ENCODING 12378
SWIDTH 1010 0
DWIDTH 20 0
BBX 20 20 0 -3
BITMAP
100180
1fffc0
186180
186180
1fff80
186180
186180
1fff80
180180
000060
fffff0
0c2080
0c20e0
0c1180
0c1a00
0c0c00
0cc600
0f0380
fc01f0
700060
ENDCHAR
STARTCHAR 16-59
ENCODING 12379
SWIDTH 1010 0
DWIDTH 20 0
BBX 20 20 0 -3
BITMAP
100180
1fffc0
186180
186180
1fff80
186180
186180
1fff80
180180
038e00
030cc0
7fffe0
030c00
030c60
fffff0
040000
070e00
0e0380
1801c0
6000c0
ENDCHAR
STARTCHAR 16-60
ENCODING 12380
SWIDTH 1010 0
DWIDTH 20 0
BBX 20 20 0 -3
BITMAP
061c00
1f1880
f83fc0
183180
186180
1a9b00
ff0b00
180600
180c00
1c1b80
3ae320
3b07f0
3b0c60
781860
5866c0
9802c0
180180
180300
180600
183800
ENDCHAR
STARTCHAR 16-61
ENCODING 12381
SWIDTH 1010 0
DWIDTH 20 0
BBX 20 20 0 -3
BITMAP
101000
1c1d00
3419c0
a71980
463320
6c3ff0
683300
187300
107340
24bfe0
223300
ff3300
7b3340
183fe0
5c3300
7a3300
db3300
9b3320
183ff0
183000
ENDCHAR
STARTCHAR 16-62
ENCODING 12382
SWIDTH 1010 0
DWIDTH 20 0
BBX 20 20 0 -3
BITMAP
100e00
1c0c80
107fc0
a41980
4719a0
66fff0
6c0000
1820c0
143fe0
2230c0
ff30c0
7b3fc0
180600
5c0640
7a7fe0
5b3600
5b3620
98fff0
180600
180600
ENDCHAR
STARTCHAR 16-63
ENCODING 12383
SWIDTH 1010 0
DWIDTH 20 0
BBX 20 20 0 -3
BITMAP
2000c0
3fffe0
3060c0
3fffc0
3060c0
3060c0
3fffc0
3000c0
080300
0fff80
0c0300
0c0300
0fff00
0c0300
0c0300
0fff00
0c0300
0c0300
0c0f00
0c0200
ENDCHAR
STARTCHAR 16-64
ENCODING 12384
SWIDTH 1010 0
DWIDTH 20 0
BBX 20 20 0 -3
BITMAP
070700
060660
fffff0
060600
001800
007f00
1fe000
006060
fffff0
036800
066700
1c61f0
f38060
030000
fffff0
060600
0f8c00
0c7c00
01c780
7e0180
ENDCHAR
STARTCHAR 16-65
ENCODING 12385
SWIDTH 1010 0
DWIDTH 20 0
BBX 20 20 0 -3
BITMAP
007000
006000
006000
006060
fffff0
019000
019040
031070
0618c0
0c0980
3c0b00
cc0c00
0c0c00
0c0600
0c0600
0c0300
0c0180
0cf1c0
7f80f0
380060
ENDCHAR
STARTCHAR 16-66
ENCODING 12386
SWIDTH 1010 0
DWIDTH 20 0
BBX 20 20 0 -3
BITMAP
088060
7cfff0
00c460
04ffe0
fec460
00c460
08ffe0
7c0000
0040c0
087fe0
7c60c0
0060c0
8c7fc0
fe60c0
cc60c0
cc7fc0
cc60c0
fc60c0
cc63c0
c06080
ENDCHAR
STARTCHAR 16-67
ENCODING 12387
SWIDTH 1010 0
DWIDTH 20 0
BBX 20 20 0 -3
BITMAP
401c00
301980
18ffc0
183180
0061a0
03fff0
000000
18ffc0
fcc0c0
18ffc0
180600
1806c0
19ffe0
18c600
18c660
1bfff0
180600
340600
e3fff0
40ffc0
ENDCHAR
STARTCHAR 16-68
ENCODING 12388
SWIDTH 1010 0
DWIDTH 20 0
BBX 20 20 0 -3
BITMAP
400e00
308cc0
18ffe0
18ccc0
00ffc0
000c20
03fff0
180000
fcffc0
18c0c0
18ffc0
18c0c0
18ffc0
18c0c0
18ffc0
182300
1838c0
34c0c0
e30000
40fff0
ENDCHAR
STARTCHAR 16-69
ENCODING 12389
SWIDTH 1010 0
DWIDTH 20 0
BBX 20 20 0 -3
BITMAP
400060
7ffff0
600000
61c000
618300
63ff80
623000
643000
603180
6fffc0
603000
606800
606600
60c300
618180
630180
6c0000
600060
7ffff0
600000
ENDCHAR
STARTCHAR 16-70
ENCODING 12390
SWIDTH 1010 0
DWIDTH 20 0
BBX 20 20 0 -3
BITMAP
070e00
060c00
060c00
060c00
060cc0
7fffe0
060c00
060c00
060c00
060c00
060c00
060c60
fffff0
060c00
060c00
0c0c00
0c0c00
180c00
300c00
c00c00
ENDCHAR
STARTCHAR 16-71
ENCODING 12391
SWIDTH 1010 0
DWIDTH 20 0
BBX 20 20 0 -3
BITMAP
007000
006000
006000
006060
fffff0
00e000
00c400
118700
0d0c00
061900
0331c0
036300
00c600
038c00
061800
383600
006380
01c0c0
070060
780060
ENDCHAR
STARTCHAR 16-72
ENCODING 12392
SWIDTH 1010 0
DWIDTH 20 0
BBX 20 20 0 -3
BITMAP
380e80
300cc0
300cc0
300c20
33fff0
300c00
fc0c00
322c40
33f470
332660
332660
3326c0
33e2c0
332380
3c0180
f033a0
67c6a0
030ce0
001870
007030
ENDCHAR
STARTCHAR 16-73
ENCODING 12393
SWIDTH 1010 0
DWIDTH 20 0
BBX 20 20 0 -3
BITMAP
007000
006060
fffff0
018400
010300
021f80
3fe0c0
1f00c0
000300
0fff80
0c0300
0c0300
0fff00
0c0300
0c0300
0fff00
0c0300
0c0300
0c0f00
0c0200
ENDCHAR
STARTCHAR 16-74
ENCODING 12394
SWIDTH 1010 0
DWIDTH 20 0
BBX 20 20 0 -3
BITMAP
0e0860
0c0ff0
0c6c60
fffcc0
180c80
18cd00
1fed00
38cc80
38cc60
78cc60
5fcc30
98cc30
18cc30
18cc30
1fcfe0
18ccc0
18cc00
18cc00
1bcc00
188c00
ENDCHAR
STARTCHAR 16-75
ENCODING 12395
SWIDTH 1010 0
DWIDTH 20 0
BBX 20 20 0 -3
BITMAP
0c4640
fe6460
30c6c0
331510
31a5a0
304440
20a4a0
63f7f0
7d1510
6c0480
ec04c0
6ffff0
6d8440
6d8460
7de6c0
6db380
613320
0307a0
021cf0
046020
ENDCHAR
STARTCHAR 16-76
ENCODING 12396
SWIDTH 1010 0
DWIDTH 20 0
BBX 20 20 0 -3
BITMAP
000000
000000
000000
000000
000000
000000
000000
000000
000060
fffff0
000000
000000
000000
000000
000000
000000
000000
000000
000000
000000
ENDCHAR
STARTCHAR 16-77
ENCODING 12397
SWIDTH 1010 0
DWIDTH 20 0
BBX 20 20 0 -3
BITMAP
007000
006000
006060
fffff0
006000
006180
1fffc0
000000
400060
7ffff0
600060
ce0440
cc1e80
0c7800
0fc000
0c0000
0c0040
0c0040
0fffe0
07ffc0
ENDCHAR
STARTCHAR 16-78
ENCODING 12398
SWIDTH 1010 0
DWIDTH 20 0
BBX 20 20 0 -3
BITMAP
208100
1041c0
186180
186320
03fff0
806100
406100
64c080
64c0c0
098060
090070
1a0020
1100c0
b1ffe0
71b6c0
31b6c0
31b6c0
31b6c0
37fff0
300000
ENDCHAR
STARTCHAR 16-79
ENCODING 12399
SWIDTH 1010 0
DWIDTH 20 0
BBX 20 20 0 -3
BITMAP
403800
303100
183f80
186300
004200
0084c0
03ffe0
18ccc0
fcccc0
18ccc0
18ffc0
183600
183600
186620
186620
18c7f0
1903e0
360000
e3fff0
40ffc0
ENDCHAR
STARTCHAR 16-80
ENCODING 12400
SWIDTH 1010 0
DWIDTH 20 0
BBX 20 20 0 -3
BITMAP
020060
0701f0
1c0f80
f9f840
188870
184460
1a66c0
ff6680
180100
38d060
3cdff0
3ad860
7bd860
5ad860
58dfe0
98d860
18d860
18d860
18dfe0
18d860
ENDCHAR
STARTCHAR 16-81
ENCODING 12401
SWIDTH 1010 0
DWIDTH 20 0
BBX 20 20 0 -3
BITMAP
070700
060660
fffff0
060600
060600
007000
406000
306020
18fff0
18cc60
018c40
020c80
000c00
000c00
031a00
0c1b00
303180
e061c0
40c0f0
030060
ENDCHAR
STARTCHAR 16-82
ENCODING 12402
SWIDTH 1010 0
DWIDTH 20 0
BBX 20 20 0 -3
BITMAP
070e00
060c00
060c60
fffff0
060c00
060c00
000180
3fffc0
006000
006000
006000
006060
fffff0
006000
006000
006000
006000
006000
03e000
004000
ENDCHAR
STARTCHAR 16-83
ENCODING 12403
SWIDTH 1010 0
DWIDTH 20 0
BBX 20 20 0 -3
BITMAP
380820
327df0
3f0820
660820
4828a0
ff38e0
6b28a0
6b6180
6b7df0
7f4510
6b0410
6b2490
6b1450
7f0410
631450
006db0
554920
550820
d479e0
c01040
ENDCHAR
STARTCHAR 16-84
ENCODING 12404
SWIDTH 1010 0
DWIDTH 20 0
BBX 20 20 0 -3
BITMAP
038000
030000
030400
060300
040180
0c00c0
087fc0
7fece0
3b0c60
030c00
030c00
030c00
030c00
060c00
060c00
0c0c00
0c0c20
180c20
300ff0
c007e0
ENDCHAR
STARTCHAR 16-85
ENCODING 12405
SWIDTH 1010 0
DWIDTH 20 0
BBX 20 20 0 -3
BITMAP
010000
03c000
072060
4c3ff0
703060
603060
603060
603060
613060
7fb060
603060
603060
603060
603060
603060
6133e0
7fb040
603000
603000
003000
ENDCHAR
STARTCHAR 16-86
ENCODING 12406
SWIDTH 1010 0
DWIDTH 20 0
BBX 20 20 0 -3
BITMAP
010060
01fff0
8d8060
ff8e60
cd8c60
cd8c60
cd8c60
cdbf60
cd8c60
cd8c60
cd8c60
cd8a60
cd9b60
fd9360
cd9060
c1a060
018060
018060
01ffe0
018060
ENDCHAR
STARTCHAR 16-87
ENCODING 12407
SWIDTH 1010 0
DWIDTH 20 0
BBX 20 20 0 -3
BITMAP
080300
0fff80
0c0300
0c0300
0fff00
0c0300
100180
1fffc0
180180
1fff80
180180
1fff80
180180
180180
1fff80
1a0180
039c00
070700
1c01c0
6000c0
ENDCHAR
STARTCHAR 16-88
ENCODING 12408
SWIDTH 1010 0
DWIDTH 20 0
BBX 20 20 0 -3
BITMAP
400060
7ffff0
600060
607060
606060
606060
606260
6fff60
606060
606060
60f060
60d060
619860
618c60
630e60
660760
680260
600060
7fffe0
600060
ENDCHAR
STARTCHAR 16-89
ENCODING 12409
SWIDTH 1010 0
DWIDTH 20 0
BBX 20 20 0 -3
BITMAP
390060
31fff0
318060
318e60
358c60
ff8c60
6d8c60
6dbf60
6d8c60
6d8c60
6d8c60
4d9a60
e99a60
d99360
d9b360
1da060
35c060
258060
41ffe0
818060
ENDCHAR
STARTCHAR 16-90
ENCODING 12410
SWIDTH 1010 0
DWIDTH 20 0
BBX 20 20 0 -3
BITMAP
00c1c0
7fe180
00c180
00c180
00c180
20c180
3fc180
30c180
300180
200180
60c180
7fe180
60c180
00c180
00c180
00c180
018180
018180
0f0180
020180
ENDCHAR
STARTCHAR 16-91
ENCODING 12411
SWIDTH 1010 0
DWIDTH 20 0
BBX 20 20 0 -3
BITMAP
1c1c00
181800
341800
331820
619ff0
5db660
d83640
7f2640
634600
7f0600
630600
7f0600
630d00
600d00
640c80
620c80
6318c0
6d9860
f1b070
604020
ENDCHAR
STARTCHAR 16-92
ENCODING 12412
SWIDTH 1010 0
DWIDTH 20 0
BBX 20 20 0 -3
BITMAP
200180
100fe0
19fc00
180040
011070
8088c0
40cc80
64cd00
6400c0
0807e0
09fe00
180c00
100c60
b7fff0
700c00
300c00
300c00
300cc0
31ffe0
300000
ENDCHAR
STARTCHAR 16-93
ENCODING 12413
SWIDTH 1010 0
DWIDTH 20 0
BBX 20 20 0 -3
BITMAP
3841c0
306180
348180
331180
333980
316180
30d180
310980
37fd80
338d80
300180
37fd80
360d80
37fd80
660d80
67fda0
660da0
660da0
463df0
8608e0
ENDCHAR
STARTCHAR 16-94
ENCODING 12414
SWIDTH 1010 0
DWIDTH 20 0
BBX 20 20 0 -3
BITMAP
038e00
030c60
fffff0
030c00
440700
7f0600
660d00
6418c0
683770
68c020
643fc0
620180
630300
637fe0
7f0000
66fff0
601880
601060
60fff0
603830
ENDCHAR
STARTCHAR 17-01
ENCODING 12577
SWIDTH 1010 0
DWIDTH 20 0
BBX 20 20 0 -3
BITMAP
440e00
7f0c00
668c20
64fff0
6d8060
698040
700180
68ffc0
640000
640060
67fff0
663300
663300
7e3300
6c6300
606300
606320
60c320
6183f0
6601e0
ENDCHAR
STARTCHAR 17-02
ENCODING 12578
SWIDTH 1010 0
DWIDTH 20 0
BBX 20 20 0 -3
BITMAP
440e00
7f0c00
661a00
643180
6c60c0
68c170
713fa0
680000
647fc0
640180
660300
667fc0
660000
7efff0
6c1800
601880
603040
6027e0
61fc30
60e030
ENDCHAR
STARTCHAR 17-03
ENCODING 12579
SWIDTH 1010 0
DWIDTH 20 0
BBX 20 20 0 -3
BITMAP
440180
7f0fc0
66f880
6448e0
6c2580
682500
7000c0
68ffe0
6400c0
64ffc0
6600c0
66ffc0
660cc0
7e0600
6cb640
60b020
61b130
633130
633f80
601f00
ENDCHAR
STARTCHAR 17-04
ENCODING 12580
SWIDTH 1010 0
DWIDTH 20 0
BBX 20 20 0 -3
BITMAP
0e10c0
0c1fe0
0c98c0
ffd8c0
421fc0
2398c0
332060
32bff0
fff060
003fe0
433060
7fbfe0
633060
633fe0
7f3060
630900
630c80
7f1840
633060
004060
ENDCHAR
STARTCHAR 17-05
ENCODING 12581
SWIDTH 1010 0
DWIDTH 20 0
BBX 20 20 0 -3
BITMAP
000380
460300
7f0300
660300
660320
66fff0
660300
660300
660300
666300
663300
661b00
661b00
660300
7e0300
660300
600300
000300
000f00
000200
ENDCHAR
STARTCHAR 17-06
ENCODING 12582
SWIDTH 1010 0
DWIDTH 20 0
BBX 20 20 0 -3
BITMAP
00e000
00c000
00c000
018060
fffff0
030000
030000
060000
060000
0c0000
1c0180
37ffc0
660180
860180
060180
060180
060180
060180
07ff80
060180
ENDCHAR
STARTCHAR 17-07
ENCODING 12583
SWIDTH 1010 0
DWIDTH 20 0
BBX 20 20 0 -3
BITMAP
007000
006000
406060
7ffff0
400060
c00040
c00640
0fff00
006000
006000
006000
0060c0
7fffe0
006000
006000
006000
006000
006000
01e000
004000
ENDCHAR
STARTCHAR 17-08
ENCODING 12584
SWIDTH 1010 0
DWIDTH 20 0
BBX 20 20 0 -3
BITMAP
004000
007000
04c200
07ff00
060600
060600
060600
07fe00
060600
060040
07ffe0
060000
060060
07fff0
100860
144660
322660
6330c0
e333c0
c20080
ENDCHAR
STARTCHAR 17-09
ENCODING 12585
SWIDTH 1010 0
DWIDTH 20 0
BBX 20 20 0 -3
BITMAP
018060
ffdff0
018060
018060
018060
419060
318c60
198660
198660
018060
0380e0
0d8360
198660
318c60
e1b860
419060
018060
018060
0f83e0
010040
ENDCHAR
STARTCHAR 17-10
ENCODING 12586
SWIDTH 1010 0
DWIDTH 20 0
BBX 20 20 0 -3
BITMAP
400000
3000c0
19ffe0
180c00
000c00
000c00
180c00
fc0c60
1bfff0
180c00
180c00
180c00
180c00
180c00
180c00
183c00
180800
340000
e3fff0
40ffe0
ENDCHAR
STARTCHAR 17-11
ENCODING 12587
SWIDTH 1010 0
DWIDTH 20 0
BBX 20 20 0 -3
BITMAP
000060
fffff0
006000
006000
406060
7ffff0
606060
686860
646460
666660
666660
606060
686860
646460
666660
666660
606060
606060
6061e0
606040
ENDCHAR
STARTCHAR 17-12
ENCODING 12588
SWIDTH 1010 0
DWIDTH 20 0
BBX 20 20 0 -3
BITMAP
018000
03c000
4f1060
781ff0
639860
631860
631860
631860
631860
631860
631860
631860
6f1860
f31860
6319e0
061840
061800
0c1800
181800
601800
ENDCHAR
STARTCHAR 17-13
ENCODING 12589
SWIDTH 1010 0
DWIDTH 20 0
BBX 20 20 0 -3
BITMAP
420200
338300
321640
049fe0
ffd840
0c9fc0
4c9840
7f9fc0
6c1840
cc9820
ffdff0
cc9800
1c9860
1c9ff0
2f8060
2d1560
4c5560
8c50e0
0c83c0
0c0080
ENDCHAR
STARTCHAR 17-14
ENCODING 12590
SWIDTH 1010 0
DWIDTH 20 0
BBX 20 20 0 -3
BITMAP
007000
406060
7ffff0
c398c0
c71920
1c1830
600fe0
1c0000
183fc0
1a30c0
ff3fc0
1830c0
193fc0
ffb0c0
183fc0
141300
361b20
363320
6063f0
8181e0
ENDCHAR
STARTCHAR 17-15
ENCODING 12591
SWIDTH 1010 0
DWIDTH 20 0
BBX 20 20 0 -3
BITMAP
000000
000600
7fff00
030600
030600
030600
030600
060600
060660
fffff0
060600
060600
060600
0c0600
0c0600
0c0600
0c0600
0c0660
fffff0
000000
ENDCHAR
STARTCHAR 17-16
ENCODING 12592
SWIDTH 1010 0
DWIDTH 20 0
BBX 20 20 0 -3
BITMAP
001000
031d00
ff99c0
181900
183320
103ff0
303300
3f7300
337340
73bfe0
733300
b33300
333300
333340
333fe0
3f3300
333300
303320
003ff0
003000
ENDCHAR
STARTCHAR 17-17
ENCODING 12593
SWIDTH 1010 0
DWIDTH 20 0
BBX 20 20 0 -3
BITMAP
008000
01c000
2700c0
381fe0
3000c0
3000c0
3000c0
3000c0
3000c0
3100c0
3f9fc0
3000c0
3000c0
3000c0
3000c0
3000c0
3000c0
3000c0
3fffc0
3000c0
ENDCHAR
STARTCHAR 17-18
ENCODING 12594
SWIDTH 1010 0
DWIDTH 20 0
BBX 20 20 0 -3
BITMAP
208180
10ffc0
18c180
18d180
00df80
80d980
40d980
62d9a0
6bfff0
0b0060
0b4360
1b7fe0
136360
136360
b36360
737f60
336360
336060
3301e0
330040
ENDCHAR
STARTCHAR 17-19
ENCODING 12595
SWIDTH 1010 0
DWIDTH 20 0
BBX 20 20 0 -3
BITMAP
001c00
981980
fc1fc0
da1820
dbfff0
db3060
db3240
db3f00
dbf080
db3080
db3fc0
db1f80
fb0000
da1b80
c79b20
06db30
0cdb40
081b80
101b20
01fff0
ENDCHAR
STARTCHAR 17-20
ENCODING 12596
SWIDTH 1010 0
DWIDTH 20 0
BBX 20 20 0 -3
BITMAP
0080c0
00ffe0
8cc0c0
fec0c0
ccc0c0
ccffc0
ccc0c0
ccc0c0
ccc0c0
ccffc0
ccc0c0
ccc0c0
ccc0c0
fcffc0
ccc0c0
c02000
003380
0060e0
00c070
030030
ENDCHAR
STARTCHAR 17-21
ENCODING 12597
SWIDTH 1010 0
DWIDTH 20 0
BBX 20 20 0 -3
BITMAP
10d840
fc73f0
31d0c0
3800e0
54d950
947250
019000
7fffe0
630c60
7fffe0
000000
7f80e0
6180c0
7fbff0
6180c0
7f98c0
640cc0
630cc0
fd83c0
618080
ENDCHAR
STARTCHAR 17-22
ENCODING 12598
SWIDTH 1010 0
DWIDTH 20 0
BBX 20 20 0 -3
BITMAP
070700
060660
fffff0
060600
060600
4060e0
7ff0c0
6060c0
606ff0
7fe0c0
6000c0
67e8c0
6004c0
6ff6c0
6186c0
69a0c0
4da0c0
49b0c0
97b3c0
010080
ENDCHAR
STARTCHAR 17-23
ENCODING 12599
SWIDTH 1010 0
DWIDTH 20 0
BBX 20 20 0 -3
BITMAP
3820c0
323fe0
3f30c0
663fc0
4930c0
ffbfc0
6b4020
6b7ff0
6b6960
7f6960
6b7fe0
6b0000
6b00c0
7f7fe0
6310c0
001180
550b00
550e00
d51bf0
c0e0c0
ENDCHAR
STARTCHAR 17-24
ENCODING 12600
SWIDTH 1010 0
DWIDTH 20 0
BBX 20 20 0 -3
BITMAP
1c0e40
180c70
180c60
187fc0
1b0cc0
ff8d80
330d80
330f20
33fff0
230c00
621800
463840
4658e0
f49980
cc1e00
0e1800
1b1820
331820
401ff0
800fe0
ENDCHAR
STARTCHAR 17-25
ENCODING 12601
SWIDTH 1010 0
DWIDTH 20 0
BBX 20 20 0 -3
BITMAP
400060
7ffff0
600000
68c840
6fefe0
6ccd80
6ccd80
6fcd80
6ccd80
6ccda0
6fdff0
6cc300
6c03c0
6d0780
6c8580
4ccd80
4dc9a0
bed9a0
9831f0
0040e0
ENDCHAR
STARTCHAR 17-26
ENCODING 12602
SWIDTH 1010 0
DWIDTH 20 0
BBX 20 20 0 -3
BITMAP
200ec0
100c60
180c60
180c00
000c60
83fff0
400c00
650c60
65fff0
098c60
098c60
19ffe0
118c60
b18c60
71ffe0
318c60
318c60
318c60
318de0
318c40
ENDCHAR
STARTCHAR 17-27
ENCODING 12603
SWIDTH 1010 0
DWIDTH 20 0
BBX 20 20 0 -3
BITMAP
000300
001fc0
10f800
1fc200
18c200
18c200
18c200
18c200
18c200
18c100
18c100
18c100
30c180
30c980
30cc80
30c4c0
20fe60
6fc670
460420
800020
ENDCHAR
STARTCHAR 17-28
ENCODING 12604
SWIDTH 1010 0
DWIDTH 20 0
BBX 20 20 0 -3
BITMAP
419060
7fdff0
619860
619860
7f9fe0
619860
619860
7f9fe0
619860
600460
67fe60
606060
606860
63fc60
606060
606260
6fff60
600060
6001e0
600040
ENDCHAR
STARTCHAR 17-29
ENCODING 12605
SWIDTH 1010 0
DWIDTH 20 0
BBX 20 20 0 -3
BITMAP
004100
8c31c0
fe3200
cdfff0
cc1b00
cc9b60
ccfff0
ccd360
cce3e0
ccc060
ccffe0
ccc060
fcffe0
ccc060
c00180
03fff0
000180
00e180
003780
000100
ENDCHAR
STARTCHAR 17-30
ENCODING 12606
SWIDTH 1010 0
DWIDTH 20 0
BBX 20 20 0 -3
BITMAP
000000
000300
1fff80
000000
000000
000000
000000
000060
fffff0
01c000
018000
030000
030000
020200
060100
040180
083fc0
ffe0c0
780060
400060
ENDCHAR
STARTCHAR 17-31
ENCODING 12607
SWIDTH 1010 0
DWIDTH 20 0
BBX 20 20 0 -3
BITMAP
410020
31fff0
1b0060
1b0e40
000c00
01ffe0
000c00
18ffc0
fcccc0
18ffc0
18ccc0
18ffc0
18ccc0
180c20
1bfff0
180c00
180c00
340000
e3fff0
40ffe0
ENDCHAR
STARTCHAR 17-32
ENCODING 12608
SWIDTH 1010 0
DWIDTH 20 0
BBX 20 20 0 -3
BITMAP
000180
1fffc0
406020
7ffff0
c06020
df6fa0
006000
1f6f80
006000
000180
3fffc0
000000
000060
fffff0
070000
060100
0c0080
081fc0
7ff060
1c0060
ENDCHAR
STARTCHAR 17-33
ENCODING 12609
SWIDTH 1010 0
DWIDTH 20 0
BBX 20 20 0 -3
BITMAP
038e00
030c60
fffff0
030c00
030c00
080180
0e03c0
0c0f00
1cfc00
180c00
300c00
380c60
5bfff0
980c00
180c00
180c00
180c00
180cc0
19ffe0
180000
ENDCHAR
STARTCHAR 17-34
ENCODING 12610
SWIDTH 1010 0
DWIDTH 20 0
BBX 20 20 0 -3
BITMAP
0e0060
0c7ff0
1a18c0
1998c0
30d8c0
6edfc0
cc18c0
2d98c0
3fd8c0
319fc0
3f98c0
3198c0
3198c0
3f98f0
307fc0
3138c0
3080c0
37c0c0
7cc0c0
30c0c0
ENDCHAR
STARTCHAR 17-35
ENCODING 12611
SWIDTH 1010 0
DWIDTH 20 0
BBX 20 20 0 -3
BITMAP
0d0000
0f8060
4c5ff0
7fe460
c0c460
de8460
200460
3b02c0
61c2c0
ccc2c0
1a0380
318180
60e180
bfc380
3186c0
3f86c0
318c60
3f9870
319020
3fa020
ENDCHAR
STARTCHAR 17-36
ENCODING 12612
SWIDTH 1010 0
DWIDTH 20 0
BBX 20 20 0 -3
BITMAP
088200
044380
066600
466420
7ffff0
c00060
c40640
07ff00
060600
060600
07fe00
066600
004000
108180
1fffc0
180180
180180
180180
1fff80
180180
ENDCHAR
STARTCHAR 17-37
ENCODING 12613
SWIDTH 1010 0
DWIDTH 20 0
BBX 20 20 0 -3
BITMAP
419060
7fdff0
619860
7f9fe0
619860
7f9fe0
619860
7f9fe0
220880
398e60
619830
806030
006000
fffff0
018600
030c00
0fd800
007f00
03c3c0
7c00c0
ENDCHAR
STARTCHAR 17-38
ENCODING 12614
SWIDTH 1010 0
DWIDTH 20 0
BBX 20 20 0 -3
BITMAP
20c040
3fe0e0
30c180
3fc300
30cc00
3fc000
060020
066070
fff0c0
000180
3fc300
30cc00
30c020
3fc030
060060
2680c0
364180
666300
9e6600
041800
ENDCHAR
STARTCHAR 17-39
ENCODING 12615
SWIDTH 1010 0
DWIDTH 20 0
BBX 20 20 0 -3
BITMAP
000e00
000c00
8c0c00
fe8cc0
ccffe0
ccccc0
ccccc0
ccccc0
ccccc0
fcccc0
ccccc0
cffff0
cc1a00
cc1a00
cc1900
fc3180
0030c0
0060e0
00c070
030060
ENDCHAR
STARTCHAR 17-40
ENCODING 12616
SWIDTH 1010 0
DWIDTH 20 0
BBX 20 20 0 -3
BITMAP
007000
006000
2060c0
3fffe0
3060c0
3060c0
3fffc0
3060c0
3060c0
3060c0
3fffc0
3060c0
306100
0031c0
003300
003e20
001c20
006f20
07c3f0
fc00f0
ENDCHAR
STARTCHAR 17-41
ENCODING 12617
SWIDTH 1010 0
DWIDTH 20 0
BBX 20 20 0 -3
BITMAP
108100
0841c0
0c6300
0c6200
400420
7ffff0
c00060
c07040
006000
006060
fffff0
00f000
01e800
036c00
066600
0c6300
1861c0
3060f0
c06060
006000
ENDCHAR
STARTCHAR 17-42
ENCODING 12618
SWIDTH 1010 0
DWIDTH 20 0
BBX 20 20 0 -3
BITMAP
038000
007000
001c00
000c00
006000
0ff000
006080
0060e0
036180
7fe300
037400
066800
066c00
0c6600
0c6300
1861c0
3060f0
606060
81e000
004000
ENDCHAR
STARTCHAR 17-43
ENCODING 12619
SWIDTH 1010 0
DWIDTH 20 0
BBX 20 20 0 -3
BITMAP
207000
101c00
180c00
180000
000c00
81fe20
400c30
640c60
646e40
0bfe80
086f00
186d00
106d80
b06c80
70ccc0
30cc60
318c70
330c20
343c00
300800
ENDCHAR
STARTCHAR 17-44
ENCODING 12620
SWIDTH 1010 0
DWIDTH 20 0
BBX 20 20 0 -3
BITMAP
200e00
100c00
190c60
19fff0
018c60
818c60
41ffe0
658c60
658c60
098c60
09ffe0
198c60
100d00
b00dc0
700f00
300620
300f20
303ba0
30e1f0
370070
ENDCHAR
STARTCHAR 17-45
ENCODING 12621
SWIDTH 1010 0
DWIDTH 20 0
BBX 20 20 0 -3
BITMAP
0039c0
0831a0
fdfff0
303180
303180
300e00
300c00
308cc0
fcffe0
30ccc0
30ccc0
30ccc0
30ccc0
33fff0
3c1a00
f01a00
603100
006180
00c0f0
030060
ENDCHAR
STARTCHAR 17-46
ENCODING 12622
SWIDTH 1010 0
DWIDTH 20 0
BBX 20 20 0 -3
BITMAP
000100
7fff80
0c0300
0c0320
1827f0
1ff660
306060
36c060
61c0c0
4373c0
8c3080
000000
100180
1fffc0
199980
199980
199980
1999a0
fffff0
000000
ENDCHAR
STARTCHAR 17-47
ENCODING 12623
SWIDTH 1010 0
DWIDTH 20 0
BBX 20 20 0 -3
BITMAP
700060
613ff0
638200
7c0300
609460
609ff0
7fd860
3f9860
001fe0
031860
0f9860
7c1fe0
0d9860
ffd860
1e1fe0
3d1860
2d8880
6d8e60
8c1830
0c2030
ENDCHAR
STARTCHAR 17-48
ENCODING 12624
SWIDTH 1010 0
DWIDTH 20 0
BBX 20 20 0 -3
BITMAP
710060
63bff0
7c0200
608300
609460
7fdff0
3f9860
001860
011fe0
7f9860
001860
009fe0
ffd860
0c1860
4d1fe0
7c9860
4cc880
8cce60
3c1830
082030
ENDCHAR
STARTCHAR 17-49
ENCODING 12625
SWIDTH 1010 0
DWIDTH 20 0
BBX 20 20 0 -3
BITMAP
070700
060600
060660
fffff0
060600
067600
006000
106180
1fffc0
186180
186180
186180
1861a0
fffff0
00d000
018800
030600
060380
1c01f0
e00060
ENDCHAR
STARTCHAR 17-50
ENCODING 12626
SWIDTH 1010 0
DWIDTH 20 0
BBX 20 20 0 -3
BITMAP
10e040
1cc1e0
30d800
23fc00
419800
919800
1bfc20
3003f0
23f8c0
7318c0
b318c0
33f8c0
3060c0
3060c0
37f8c0
3360c0
3360c0
3ffcc0
3063c0
306080
ENDCHAR
STARTCHAR 17-51
ENCODING 12627
SWIDTH 1010 0
DWIDTH 20 0
BBX 20 20 0 -3
BITMAP
087000
7c1c00
000c00
040000
fe0c00
01fe20
080c30
7c0c60
006e40
0bfe80
7c6f00
006d00
8c6d80
fe6c80
ccccc0
cccc60
cd8c70
cd0c20
fe3c00
cc0800
ENDCHAR
STARTCHAR 17-52
ENCODING 12628
SWIDTH 1010 0
DWIDTH 20 0
BBX 20 20 0 -3
BITMAP
1c2080
1810e0
341980
321900
634260
437ff0
846060
7e6060
086060
0a6060
ff7fe0
080300
891300
491b00
6b1b00
6a3300
09b320
1e6320
f8c3f0
6101e0
ENDCHAR
STARTCHAR 17-53
ENCODING 12629
SWIDTH 1010 0
DWIDTH 20 0
BBX 20 20 0 -3
BITMAP
200e00
100c00
180c60
1bfff0
004400
807700
406660
64c7f0
648c60
09cc60
0adb60
18d0c0
10e8c0
b0c580
70c380
30c300
30c780
30c4c0
30c870
30d020
ENDCHAR
STARTCHAR 17-54
ENCODING 12630
SWIDTH 1010 0
DWIDTH 20 0
BBX 20 20 0 -3
BITMAP
003800
103060
1ffff0
980000
588600
78ff00
58c640
18c640
1987e0
1903c0
fa0000
580180
1bffc0
108300
304600
206c00
603800
406e00
81c3f0
0e00e0
ENDCHAR
STARTCHAR 17-55
ENCODING 12631
SWIDTH 1010 0
DWIDTH 20 0
BBX 20 20 0 -3
BITMAP
080400
040700
060600
060c00
001060
fffff0
030400
030400
060200
0c0300
1801c0
3000f0
c00060
1fff80
199980
199980
199980
1999a0
fffff0
000000
ENDCHAR
STARTCHAR 17-56
ENCODING 12632
SWIDTH 1010 0
DWIDTH 20 0
BBX 20 20 0 -3
BITMAP
404860
7feff0
660c60
660c60
668c60
7fcc60
660c60
668c60
7fcfe0
660d60
660d00
666d00
7ffd00
606c80
156880
5568c0
5568c0
d0d860
83d070
00b020
ENDCHAR
STARTCHAR 17-57
ENCODING 12633
SWIDTH 1010 0
DWIDTH 20 0
BBX 20 20 0 -3
BITMAP
1c4080
1830e0
181980
181900
188260
5cfff0
5ac060
5bc060
dac060
d8c060
98ffe0
18d360
181b00
181b00
183300
183300
186320
186320
18c3f0
1b01e0
ENDCHAR
STARTCHAR 17-58
ENCODING 12634
SWIDTH 1010 0
DWIDTH 20 0
BBX 20 20 0 -3
BITMAP
08c180
7cffc0
00c180
04c180
feff80
00c180
08c180
7cff80
006180
086020
7cfff0
00c060
8dc460
fece60
ccf060
ccc460
ccfe60
cc7cc0
fc03c0
cc0080
ENDCHAR
STARTCHAR 17-59
ENCODING 12635
SWIDTH 1010 0
DWIDTH 20 0
BBX 20 20 0 -3
BITMAP
0e0680
0c06c0
0c06c0
7f4620
0c7ff0
0c6600
0d6640
ffe670
0c6660
0c62c0
6d62c0
4fe380
4c61a0
4c7ba0
4de6e0
6c8c70
5c3030
478000
c1fff0
807fe0
ENDCHAR
STARTCHAR 17-60
ENCODING 12636
SWIDTH 1010 0
DWIDTH 20 0
BBX 20 20 0 -3
BITMAP
419060
7fdff0
619860
619860
7f9fe0
619860
619860
7f9fe0
620860
618c60
619060
67fe60
660660
660660
67fe60
61b060
61b460
633460
663ee0
681c40
ENDCHAR
STARTCHAR 17-61
ENCODING 12637
SWIDTH 1010 0
DWIDTH 20 0
BBX 20 20 0 -3
BITMAP
1c0020
19fff0
180c00
1a48c0
ff7fe0
1860c0
187fc0
3860c0
3e7fc0
3b60c0
3b7fc0
7860c0
583800
5830c0
987fe0
18c180
1b2700
181e00
183bf0
19c0e0
ENDCHAR
STARTCHAR 17-62
ENCODING 12638
SWIDTH 1010 0
DWIDTH 20 0
BBX 20 20 0 -3
BITMAP
400060
7ffff0
600000
6863a0
6ff330
6c6330
6fe300
6c6360
6ffff0
6c6300
600300
686300
6ff680
6c6680
6fe680
4c66c0
4fe440
cc6c60
8de870
0c5020
ENDCHAR
STARTCHAR 17-63
ENCODING 12639
SWIDTH 1010 0
DWIDTH 20 0
BBX 20 20 0 -3
BITMAP
400060
7ffff0
606060
606060
606060
606060
606060
606060
606060
606060
7fffe0
600060
600060
600060
600060
600060
600060
600060
6001e0
600040
ENDCHAR
STARTCHAR 17-64
ENCODING 12640
SWIDTH 1010 0
DWIDTH 20 0
BBX 20 20 0 -3
BITMAP
400060
7ffff0
606060
606460
67fe60
606060
6fff60
600060
67fe60
660660
660660
67fe60
60e160
61f3e0
636c60
6c6660
606660
606060
7fffe0
600060
ENDCHAR
STARTCHAR 17-65
ENCODING 12641
SWIDTH 1010 0
DWIDTH 20 0
BBX 20 20 0 -3
BITMAP
3a0060
33fff0
330000
333fc0
3330c0
333fc0
ff30c0
333fc0
330600
330c40
337fe0
331980
331d00
3f3300
f306c0
6318c0
036000
030060
03fff0
030000
ENDCHAR
STARTCHAR 17-66
ENCODING 12642
SWIDTH 1010 0
DWIDTH 20 0
BBX 20 20 0 -3
BITMAP
00e000
00c000
00c060
fffff0
031000
060c00
0c7700
1861c0
3ffff0
d861a0
186180
1fff80
186180
186180
1fff80
186180
006020
006020
007ff0
003fe0
ENDCHAR
STARTCHAR 17-67
ENCODING 12643
SWIDTH 1010 0
DWIDTH 20 0
BBX 20 20 0 -3
BITMAP
007000
406020
7ffff0
c00060
c80340
0fff80
0c0300
0fff00
0c0300
0fff00
0cc300
018060
fffff0
030600
060c00
0f9800
0c7c00
00c700
0383c0
7c00c0
ENDCHAR
STARTCHAR 17-68
ENCODING 12644
SWIDTH 1010 0
DWIDTH 20 0
BBX 20 20 0 -3
BITMAP
0000c0
0c03e0
fe1f00
08f600
180600
100600
307600
266640
7f67e0
666600
066600
266600
266600
166600
1c6660
0dfff0
1c0000
330000
61fff0
803fe0
ENDCHAR
STARTCHAR 17-69
ENCODING 12645
SWIDTH 1010 0
DWIDTH 20 0
BBX 20 20 0 -3
BITMAP
1c10c0
189fe0
1fd8c0
3198c0
3198c0
619bc0
931880
1b1800
061820
061820
0c1ff0
180fe0
e72000
061000
161880
161860
360230
260230
e7ff00
c3fe00
ENDCHAR
STARTCHAR 17-70
ENCODING 12646
SWIDTH 1010 0
DWIDTH 20 0
BBX 20 20 0 -3
BITMAP
381c00
301800
301860
33fff0
303200
fc6100
306cc0
30cc70
31ffe0
32ccc0
30ccc0
3cffc0
f0ccc0
70ccc0
30ffc0
30ccc0
300c20
300c20
f00ff0
2007e0
ENDCHAR
STARTCHAR 17-71
ENCODING 12647
SWIDTH 1010 0
DWIDTH 20 0
BBX 20 20 0 -3
BITMAP
3801c0
300fe0
33f880
3088e0
30ccc0
fccd80
300100
33ffe0
303000
33ffe0
306000
3c6180
f0ffc0
70c180
31a300
331e00
320e00
341b80
f031f0
21c060
ENDCHAR
STARTCHAR 17-72
ENCODING 12648
SWIDTH 1010 0
DWIDTH 20 0
BBX 20 20 0 -3
BITMAP
207200
106200
186200
186100
006100
80c180
40c0c0
6480f0
658060
090020
0a0000
1880c0
10ffe0
b0c0c0
70c0c0
30c0c0
30c0c0
30c0c0
30ffc0
30c0c0
ENDCHAR
STARTCHAR 17-73
ENCODING 12649
SWIDTH 1010 0
DWIDTH 20 0
BBX 20 20 0 -3
BITMAP
200e00
100c00
190c20
19fff0
030020
830140
407f80
640c00
648cc0
08ffe0
08ccc0
18ccc0
10ffc0
b0ccc0
70ccc0
30ffc0
302000
307380
30c0e0
330060
ENDCHAR
STARTCHAR 17-74
ENCODING 12650
SWIDTH 1010 0
DWIDTH 20 0
BBX 20 20 0 -3
BITMAP
007000
046100
0461c0
0c6300
386400
30d800
018600
030380
0e01c0
7070c0
006000
046080
0c60e0
18d180
70d200
618800
030c00
060700
1c03f0
e000e0
ENDCHAR
STARTCHAR 17-75
ENCODING 12651
SWIDTH 1010 0
DWIDTH 20 0
BBX 20 20 0 -3
BITMAP
1c0e00
180c60
180ff0
1a1860
5b90c0
5b2080
5a4100
5c0200
d86860
d86ff0
186c60
1c6c60
1a6c60
1b6fe0
336c60
336c60
206c60
606c60
406fe0
806c60
ENDCHAR
STARTCHAR 17-76
ENCODING 12652
SWIDTH 1010 0
DWIDTH 20 0
BBX 20 20 0 -3
BITMAP
1c0060
18fff0
181b00
1a1b00
5b9b60
5afff0
5adb60
5cdb60
d8db60
d8ffe0
18ce60
1c0c00
1a0c00
1b0cc0
337fe0
330c00
200c00
600c60
41fff0
800000
ENDCHAR
STARTCHAR 17-77
ENCODING 12653
SWIDTH 1010 0
DWIDTH 20 0
BBX 20 20 0 -3
BITMAP
038e00
030c60
fffff0
030c00
03fc00
030c00
0c03a0
0d1b30
fdff40
0d9b80
0d9b00
0d9b20
3d9b20
edfbf0
4d99e0
000000
110840
308420
e0c630
c0c630
ENDCHAR
STARTCHAR 17-78
ENCODING 12654
SWIDTH 1010 0
DWIDTH 20 0
BBX 20 20 0 -3
BITMAP
080e00
8e0cc0
4dffe0
380c00
300c60
73fff0
980000
1880c0
1cffe0
3cc0c0
2cc0c0
6cffc0
4cd2c0
8c3a20
0c6330
0fe160
0c6180
187cc0
7be070
118020
ENDCHAR
STARTCHAR 17-79
ENCODING 12655
SWIDTH 1010 0
DWIDTH 20 0
BBX 20 20 0 -3
BITMAP
100180
1c7fc0
100180
340180
a77f80
460180
6c01a0
69fff0
181200
142a40
22cd70
ff1d40
7b3580
186680
5a8ec0
7a1e60
db3670
9b4620
181c00
180800
ENDCHAR
STARTCHAR 17-80
ENCODING 12656
SWIDTH 1010 0
DWIDTH 20 0
BBX 20 20 0 -3
BITMAP
0b0700
4ac640
7fe7e0
6accc0
7fd180
6ac100
7fd260
001ff0
fffb60
001b60
7fdb60
60dfe0
60d860
7fd800
111800
199800
1a1820
01d820
fe1ff0
300fe0
ENDCHAR
STARTCHAR 17-81
ENCODING 12657
SWIDTH 1010 0
DWIDTH 20 0
BBX 20 20 0 -3
BITMAP
038e00
030c00
030c60
fffff0
030c00
030c00
1c10c0
189fe0
1fd8c0
3198c0
3198c0
6198c0
931bc0
1b1880
061800
061800
0c1820
181820
301ff0
c00fe0
ENDCHAR
STARTCHAR 17-82
ENCODING 12658
SWIDTH 1010 0
DWIDTH 20 0
BBX 20 20 0 -3
BITMAP
030c60
fffff0
030c00
400060
7ffff0
606060
67fe60
606060
6fff60
600060
67fe60
660660
67fe60
60e160
617b60
636c60
6c6c60
606060
7fffe0
600060
ENDCHAR
STARTCHAR 17-83
ENCODING 12659
SWIDTH 1010 0
DWIDTH 20 0
BBX 20 20 0 -3
BITMAP
400e00
300cc0
19ffe0
180c00
000c60
03fff0
000000
18ffc0
fcc0c0
18c0c0
18ffc0
181c20
183e70
186d80
18ccc0
1b0cc0
180c00
340000
e3fff0
40ffe0
ENDCHAR
STARTCHAR 17-84
ENCODING 12660
SWIDTH 1010 0
DWIDTH 20 0
BBX 20 20 0 -3
BITMAP
181d00
181900
341900
231080
619080
41b0c0
822060
7f2070
084020
0b0000
ffa0c0
083fe0
8930c0
49b0c0
6b30c0
6a30c0
09b0c0
1e30c0
f83fc0
6030c0
ENDCHAR
STARTCHAR 17-85
ENCODING 12661
SWIDTH 1010 0
DWIDTH 20 0
BBX 20 20 0 -3
BITMAP
0c1080
08dfc0
1ff880
219ba0
531920
961830
0cefe0
18c000
2fff00
cc0300
0fff00
0c0300
0fff00
0c0000
0fff80
0c0060
0ffff0
288860
6ccde0
cccc40
ENDCHAR
STARTCHAR 17-86
ENCODING 12662
SWIDTH 1010 0
DWIDTH 20 0
BBX 20 20 0 -3
BITMAP
00e000
38c0c0
30ffe0
310000
328180
30ffc0
fcc180
30c180
30ff80
30c180
300000
3100c0
31ffe0
3db6c0
f1b6c0
61b6c0
01b6c0
01b6c0
07fff0
000000
ENDCHAR
STARTCHAR 17-87
ENCODING 12663
SWIDTH 1010 0
DWIDTH 20 0
BBX 20 20 0 -3
BITMAP
0e0700
0c0600
0c0600
0c8d00
ffcd00
0c0c80
0c1880
0d98c0
1fb460
19a270
19c320
198180
198180
118000
118800
318600
230300
630180
4f00c0
8200c0
ENDCHAR
STARTCHAR 17-88
ENCODING 12664
SWIDTH 1010 0
DWIDTH 20 0
BBX 20 20 0 -3
BITMAP
2000c0
11ffe0
180c00
180c00
001800
801860
43fff0
643000
643000
086060
087ff0
18c060
10c060
b00060
700060
3000c0
3000c0
3000c0
300780
300100
ENDCHAR
STARTCHAR 17-89
ENCODING 12665
SWIDTH 1010 0
DWIDTH 20 0
BBX 20 20 0 -3
BITMAP
0e4060
0c7ff0
6c6660
6c6660
6d7fe0
7fe660
6c6660
cc6660
8c7fe0
0d6060
7f8e00
0c0c60
0cfff0
0c0c60
0c1c60
0d9860
1e30c0
f860c0
60c3c0
030080
ENDCHAR
STARTCHAR 17-90
ENCODING 12666
SWIDTH 1010 0
DWIDTH 20 0
BBX 20 20 0 -3
BITMAP
000000
430860
7f8ff0
630c60
630c60
630c60
630c60
630c60
630c60
63fc60
630c60
600060
600060
600060
600060
600060
7fffe0
600060
600000
000000
ENDCHAR
STARTCHAR 17-91
ENCODING 12667
SWIDTH 1010 0
DWIDTH 20 0
BBX 20 20 0 -3
BITMAP
007000
006000
006000
086300
0fff80
0c6300
0c6300
0c6300
0c6300
0c6300
0c6360
fffff0
00d000
019000
018800
030400
060600
0c0380
3801f0
c00060
ENDCHAR
STARTCHAR 17-92
ENCODING 12668
SWIDTH 1010 0
DWIDTH 20 0
BBX 20 20 0 -3
BITMAP
004000
007000
20c0c0
3fffe0
3000c0
3474c0
3366c0
3368c0
37fec0
30e0c0
31f8c0
3366c0
3c66c0
3000c0
30c0c0
fffff0
019000
030e00
0e03f0
f000e0
ENDCHAR
STARTCHAR 17-93
ENCODING 12669
SWIDTH 1010 0
DWIDTH 20 0
BBX 20 20 0 -3
BITMAP
041000
060c00
0c0e00
180600
3000c0
c1ffe0
040c00
060c00
0c0c00
180c00
380d80
d8ffc0
180c00
180c00
180c00
180c00
180c00
180c60
1bfff0
180000
ENDCHAR
STARTCHAR 17-94
ENCODING 12670
SWIDTH 1010 0
DWIDTH 20 0
BBX 20 20 0 -3
BITMAP
003800
003000
203060
3ffff0
300000
302000
301800
300c00
300600
307600
306000
316080
316040
316060
236030
666030
6e6080
4c6080
807fc0
003f80
ENDCHAR
STARTCHAR 18-01
ENCODING 12833
SWIDTH 1010 0
DWIDTH 20 0
BBX 20 20 0 -3
BITMAP
1c4060
187ff0
186660
186660
1a6660
ffe660
187fe0
186660
186660
1b6660
1c6660
387fe0
f86660
580600
180600
180600
180600
180600
780600
100600
ENDCHAR
STARTCHAR 18-02
ENCODING 12834
SWIDTH 1010 0
DWIDTH 20 0
BBX 20 20 0 -3
BITMAP
0000c0
8dffe0
fe0c00
cc0c00
cc0c00
cc0c00
cc0c00
cc0c00
fc0c80
ccffc0
cc0c00
cc0c00
cc0c00
cc0c00
fc0c00
cc0c00
c00c00
000c60
03fff0
000000
ENDCHAR
STARTCHAR 18-03
ENCODING 12835
SWIDTH 1010 0
DWIDTH 20 0
BBX 20 20 0 -3
BITMAP
1c3b80
183340
18ffe0
183300
fe3320
19fff0
380c00
3c8cc0
3affe0
3accc0
7accc0
58ffc0
58ccc0
58ccc0
98ffc0
18c0c0
182000
1839c0
186070
198030
ENDCHAR
STARTCHAR 18-04
ENCODING 12836
SWIDTH 1010 0
DWIDTH 20 0
BBX 20 20 0 -3
BITMAP
000e00
418c00
7fcc00
600c20
639ff0
631660
733640
6a2640
664600
660600
670600
658d00
6d8d00
680d00
701980
601880
7ff0c0
6020c0
006070
008060
ENDCHAR
STARTCHAR 18-05
ENCODING 12837
SWIDTH 1010 0
DWIDTH 20 0
BBX 20 20 0 -3
BITMAP
001180
419fc0
7fd980
601980
6399a0
6311a0
7331f0
6a20e0
664000
660060
677ff0
659060
6d9060
6808c0
700d80
600700
7fc700
600dc0
0038f0
00e060
ENDCHAR
STARTCHAR 18-06
ENCODING 12838
SWIDTH 1010 0
DWIDTH 20 0
BBX 20 20 0 -3
BITMAP
000000
0000c0
7fffe0
006000
006000
006000
006000
006000
006000
006300
1fff80
006000
006000
006000
006000
006000
006000
006060
fffff0
000000
ENDCHAR
STARTCHAR 18-07
ENCODING 12839
SWIDTH 1010 0
DWIDTH 20 0
BBX 20 20 0 -3
BITMAP
038800
030400
060380
1c81f0
f0e060
018200
010100
023f00
1fe180
0e0180
018060
fffff0
419060
318c60
318c60
0d8360
318c60
e1b860
4791e0
010040
ENDCHAR
STARTCHAR 18-08
ENCODING 12840
SWIDTH 1010 0
DWIDTH 20 0
BBX 20 20 0 -3
BITMAP
1c0400
180700
184c40
1a7fe0
ff4040
0664c0
065540
0c4440
0c7fc0
1a4e40
137540
3a4540
5c4840
9a0820
1bfff0
1b1a00
183180
1860c0
18c070
1b0020
ENDCHAR
STARTCHAR 18-09
ENCODING 12841
SWIDTH 1010 0
DWIDTH 20 0
BBX 20 20 0 -3
BITMAP
108200
0c6380
0c6600
400420
7ffff0
c0c060
c88340
0fff80
0c0300
0fff00
0c0300
0fff00
0c0000
0fff80
0c0060
0ffff0
200060
288860
eccdc0
cccc80
ENDCHAR
STARTCHAR 18-10
ENCODING 12842
SWIDTH 1010 0
DWIDTH 20 0
BBX 20 20 0 -3
BITMAP
000400
830600
ffa4c0
c03fe0
c730c0
c63fc0
e630c0
d43fc0
cc30c0
cc3020
ce3ff0
cb3000
db3060
d03ff0
e00060
c05560
ff5560
c0d0c0
0083c0
000080
ENDCHAR
STARTCHAR 18-11
ENCODING 12843
SWIDTH 1010 0
DWIDTH 20 0
BBX 20 20 0 -3
BITMAP
038e00
030cc0
7fffe0
030c00
030c60
fffff0
006000
106180
1fffc0
186180
186180
1fff80
186180
186180
1fff80
1a0180
039e00
0703c0
1c01f0
e00070
ENDCHAR
STARTCHAR 18-12
ENCODING 12844
SWIDTH 1010 0
DWIDTH 20 0
BBX 20 20 0 -3
BITMAP
400060
7ffff0
600060
640860
620e60
630860
611260
6fff60
606060
606060
676760
666660
666660
666660
666660
67fe60
660660
600060
6001e0
600040
ENDCHAR
STARTCHAR 18-13
ENCODING 12845
SWIDTH 1010 0
DWIDTH 20 0
BBX 20 20 0 -3
BITMAP
200e00
100c00
180c00
180c00
010c60
81fff0
418c60
658c60
658c60
098c60
098c60
198c60
11ffe0
b18c60
700c00
300c00
300c00
300c00
300c00
300c00
ENDCHAR
STARTCHAR 18-14
ENCODING 12846
SWIDTH 1010 0
DWIDTH 20 0
BBX 20 20 0 -3
BITMAP
070700
060600
060660
fffff0
060600
060600
000000
440e00
360c40
1c4c60
184cc0
384c80
68cd00
8ccc00
1c1a00
6c1300
8c3180
0c61c0
78c0f0
138040
ENDCHAR
STARTCHAR 18-15
ENCODING 12847
SWIDTH 1010 0
DWIDTH 20 0
BBX 20 20 0 -3
BITMAP
081c00
0c1800
081840
1bffe0
10c200
306380
306620
77fff0
700000
b1ff80
318180
31ff80
318180
31ff80
310180
301800
316d60
336d30
3661b0
363f00
ENDCHAR
STARTCHAR 18-16
ENCODING 12848
SWIDTH 1010 0
DWIDTH 20 0
BBX 20 20 0 -3
BITMAP
2000c0
3fffe0
3000c0
3000c0
3fffc0
300000
3000c0
3fffe0
304000
306200
304100
308f80
37f0c0
3380c0
203000
67ffc0
603000
403060
5ffff0
800000
ENDCHAR
STARTCHAR 18-17
ENCODING 12849
SWIDTH 1010 0
DWIDTH 20 0
BBX 20 20 0 -3
BITMAP
1c0e00
180c00
180c40
19ffe0
5c4100
5a3180
5a3220
dbfff0
980000
18ffc0
18c0c0
18ffc0
18c0c0
18ffc0
18c0c0
180400
18b240
18b2b0
1bb0d0
1b1f80
ENDCHAR
STARTCHAR 18-18
ENCODING 12850
SWIDTH 1010 0
DWIDTH 20 0
BBX 20 20 0 -3
BITMAP
4c0e00
7e0c00
6c0c40
6dffe0
6c4100
6c3180
7c3220
6ffff0
6c0000
6cffc0
6cc0c0
6cffc0
7cc0c0
6cffc0
6cc0c0
6c0400
4cb240
4cb2b0
bdb0d0
8b1f80
ENDCHAR
STARTCHAR 18-19
ENCODING 12851
SWIDTH 1010 0
DWIDTH 20 0
BBX 20 20 0 -3
BITMAP
1c00c0
18ffe0
1800c0
1a1080
ff0d00
180600
188660
38fff0
3ccc60
3acc60
7affe0
5acc60
58cc60
98cc60
18ffe0
18cc60
18cc60
18cc60
18cde0
18cc40
ENDCHAR
STARTCHAR 18-20
ENCODING 12852
SWIDTH 1010 0
DWIDTH 20 0
BBX 20 20 0 -3
BITMAP
0e0e00
0c0c00
6c0c00
6c0c00
6d0c00
7f8c00
6c0cc0
4cffe0
cc0c00
8c0c00
0c0c00
0c0c00
0f8c00
3c0c00
ec0c00
4c0c00
0c0c00
0c0c60
0dfff0
0c0000
ENDCHAR
STARTCHAR 18-21
ENCODING 12853
SWIDTH 1010 0
DWIDTH 20 0
BBX 20 20 0 -3
BITMAP
000600
7fff00
000c00
001800
003000
006000
00c000
018000
030000
060000
0c0000
180000
300000
200000
600020
600020
780070
3fffe0
0fffc0
000000
ENDCHAR
STARTCHAR 18-22
ENCODING 12854
SWIDTH 1010 0
DWIDTH 20 0
BBX 20 20 0 -3
BITMAP
0e1c00
0c1800
0c1860
0ffff0
183200
186100
306cc0
38cc70
59ffe0
9eccc0
18ccc0
18ffc0
18ccc0
18ccc0
18ffc0
18ccc0
180c20
180c20
180ff0
1807e0
ENDCHAR
STARTCHAR 18-23
ENCODING 12855
SWIDTH 1010 0
DWIDTH 20 0
BBX 20 20 0 -3
BITMAP
1c0860
180ff0
30cc60
3fec60
660c60
860c60
064c60
ffec60
060c60
060c60
764c60
67ec60
660c60
660c60
660de0
67ec40
fe0c00
600c00
000c00
000c00
ENDCHAR
STARTCHAR 18-24
ENCODING 12856
SWIDTH 1010 0
DWIDTH 20 0
BBX 20 20 0 -3
BITMAP
2000c0
3fffe0
3060c0
3064c0
37fec0
30d0c0
30ccc0
3186c0
3606c0
3000c0
3fffc0
3040c0
003000
039880
131860
130030
330130
e30100
c3ff80
01ff00
ENDCHAR
STARTCHAR 18-25
ENCODING 12857
SWIDTH 1010 0
DWIDTH 20 0
BBX 20 20 0 -3
BITMAP
208180
18ffc0
0cc180
0cc180
00ff80
80c180
40c180
64ff80
64c180
080000
0900c0
19ffe0
11b6c0
b1b6c0
71b6c0
31b6c0
31b6c0
31b6c0
37fff0
300000
ENDCHAR
STARTCHAR 18-26
ENCODING 12858
SWIDTH 1010 0
DWIDTH 20 0
BBX 20 20 0 -3
BITMAP
0200c0
0703e0
1c1f00
f9f880
1848e0
182480
182500
feffc0
1800c0
18ffc0
3c00c0
3affc0
3a00c0
7a0c00
580660
58b630
98b0b0
19b080
1bbfc0
1b1f80
ENDCHAR
STARTCHAR 18-27
ENCODING 12859
SWIDTH 1010 0
DWIDTH 20 0
BBX 20 20 0 -3
BITMAP
007000
006000
0060c0
7fffe0
040200
020300
030600
020460
fffff0
000000
080300
0fff80
0c0300
0c0300
0fff00
0c0300
0c0300
0c0300
0fff00
0c0300
ENDCHAR
STARTCHAR 18-28
ENCODING 12860
SWIDTH 1010 0
DWIDTH 20 0
BBX 20 20 0 -3
BITMAP
000000
000060
fffff0
006000
006000
006000
006000
007000
006c00
006600
006700
006300
006000
006000
006000
006000
006000
006000
006000
006000
ENDCHAR
STARTCHAR 18-29
ENCODING 12861
SWIDTH 1010 0
DWIDTH 20 0
BBX 20 20 0 -3
BITMAP
039c00
031800
031800
061800
061800
0c1860
0c18f0
1c1b80
3c1c00
6c1800
8c1800
0c1800
0c1800
0c1800
0c1800
0c1820
0c1820
0c1830
0c1ff0
0c0fe0
ENDCHAR
STARTCHAR 18-30
ENCODING 12862
SWIDTH 1010 0
DWIDTH 20 0
BBX 20 20 0 -3
BITMAP
0e0000
0c8060
0cfff0
0cc000
18c000
18c000
30c060
38fff0
58d060
98d060
18d840
1988c0
198c80
198d80
190700
1b0700
1a0d80
1c18e0
187070
19c020
ENDCHAR
STARTCHAR 18-31
ENCODING 12863
SWIDTH 1010 0
DWIDTH 20 0
BBX 20 20 0 -3
BITMAP
0e0000
0c0060
0dfff0
0c00c0
1800c0
188cc0
30fec0
38ccc0
58ccc0
98ccc0
18ccc0
18ccc0
18fcc0
18ccc0
18c0c0
1800c0
1800c0
1800c0
1807c0
180080
ENDCHAR
STARTCHAR 18-32
ENCODING 12864
SWIDTH 1010 0
DWIDTH 20 0
BBX 20 20 0 -3
BITMAP
1dc000
198000
198460
1987f0
31b660
37fe60
31b660
31b660
71b660
71b660
b1b660
31b660
31b660
31b660
313660
313660
333660
3237e0
32e660
344600
ENDCHAR
STARTCHAR 18-33
ENCODING 12865
SWIDTH 1010 0
DWIDTH 20 0
BBX 20 20 0 -3
BITMAP
0e0000
0c0060
0ffff0
0c3600
183600
183600
313660
39fff0
59b660
99b660
19b660
19b660
19b660
19b660
19b660
19b660
19b660
19ffe0
198060
198000
ENDCHAR
STARTCHAR 18-34
ENCODING 12866
SWIDTH 1010 0
DWIDTH 20 0
BBX 20 20 0 -3
BITMAP
0e0e00
0c0c00
0c0c00
0c0cc0
18ffe0
180c00
300c00
380c00
580c60
9bfff0
180000
180e00
180c00
180cc0
18ffe0
180c00
180c00
180c00
180c60
1bfff0
ENDCHAR
STARTCHAR 18-35
ENCODING 12867
SWIDTH 1010 0
DWIDTH 20 0
BBX 20 20 0 -3
BITMAP
0e0000
0c0000
0c0860
0c0ff0
0ccc60
ffec60
0ccc60
0ccc60
0ccc60
0ccc60
0ccc60
0ccc60
18cc60
18cc60
18cc60
18cc60
30cc60
218fe0
678c60
810c00
ENDCHAR
STARTCHAR 18-36
ENCODING 12868
SWIDTH 1010 0
DWIDTH 20 0
BBX 20 20 0 -3
BITMAP
000060
fffff0
000180
000180
000180
106180
1ff180
186180
186180
186180
186180
186180
1fe180
186180
180180
000180
000180
000180
000f80
000100
ENDCHAR
STARTCHAR 18-37
ENCODING 12869
SWIDTH 1010 0
DWIDTH 20 0
BBX 20 20 0 -3
BITMAP
007000
006020
fffff0
006000
3fffc0
000000
1fff80
180180
1fff80
040400
020600
030860
fffff0
060000
0610c0
7fdfe0
0cd8c0
08d8c0
1bdfc0
7098c0
ENDCHAR
STARTCHAR 18-38
ENCODING 12870
SWIDTH 1010 0
DWIDTH 20 0
BBX 20 20 0 -3
BITMAP
000020
fffff0
006000
084300
0fff80
0c0300
0fff00
0c0300
0fff00
0c0300
0fff00
0c0300
038000
030600
07ff00
0d0c00
709800
007800
03dff0
fe03c0
ENDCHAR
STARTCHAR 18-39
ENCODING 12871
SWIDTH 1010 0
DWIDTH 20 0
BBX 20 20 0 -3
BITMAP
380700
300600
304620
367ff0
ff4020
36c0a0
36bfc0
260d00
661920
643530
6cc4a0
4c0ec0
e81680
d826c0
18ce40
141660
363630
26c620
401e00
800400
ENDCHAR
STARTCHAR 18-40
ENCODING 12872
SWIDTH 1010 0
DWIDTH 20 0
BBX 20 20 0 -3
BITMAP
007000
006000
406060
7ffff0
c00060
c00640
0fff00
00c800
018840
0748f0
382580
00f600
03b200
0e3300
307180
01f1c0
03b0e0
0e3040
70f000
002000
ENDCHAR
STARTCHAR 18-41
ENCODING 12873
SWIDTH 1010 0
DWIDTH 20 0
BBX 20 20 0 -3
BITMAP
007000
406020
7ffff0
c00020
dfffa0
004000
0fff00
0c0300
0fff00
0c0300
0fff00
0c0360
fffff0
060200
0c0100
1fffc0
30c370
c18320
031e00
1c0400
ENDCHAR
STARTCHAR 18-42
ENCODING 12874
SWIDTH 1010 0
DWIDTH 20 0
BBX 20 20 0 -3
BITMAP
0601c0
1f0180
f82180
181980
180d80
1b0d80
ff8180
180180
184180
383180
3c1980
3a1980
7b01a0
5b01f0
980f80
18f980
180180
180180
180180
180180
ENDCHAR
STARTCHAR 18-43
ENCODING 12875
SWIDTH 1010 0
DWIDTH 20 0
BBX 20 20 0 -3
BITMAP
023060
8bfbf0
ff3060
cb3060
cb3060
cb3060
cbf3e0
cb3060
fb0000
cb0060
cbeff0
cb0460
cb0460
cb02c0
fb03c0
cbe180
c303c0
0306e0
030c70
033020
ENDCHAR
STARTCHAR 18-44
ENCODING 12876
SWIDTH 1010 0
DWIDTH 20 0
BBX 20 20 0 -3
BITMAP
100180
1fffc0
186180
186180
186180
1fff80
186180
186180
186180
1fff80
186180
006060
fffff0
01e800
036400
066300
0c61c0
3860f0
e06060
006000
ENDCHAR
STARTCHAR 18-45
ENCODING 12877
SWIDTH 1010 0
DWIDTH 20 0
BBX 20 20 0 -3
BITMAP
0e0000
0c0860
0ccff0
ffec60
18cc60
18cc60
18cc60
30cc60
318fe0
678c60
810000
007000
006060
fffff0
036800
066600
0c6380
3860f0
e06060
006000
ENDCHAR
STARTCHAR 18-46
ENCODING 12878
SWIDTH 1010 0
DWIDTH 20 0
BBX 20 20 0 -3
BITMAP
009c00
ffd800
031860
7b1ff0
4b3660
7b2640
4b2640
034600
0f0600
028600
ffc600
030500
7b0d00
4b0d00
4b0c80
7b0880
4b18c0
031060
0f2070
024020
ENDCHAR
STARTCHAR 18-47
ENCODING 12879
SWIDTH 1010 0
DWIDTH 20 0
BBX 20 20 0 -3
BITMAP
200000
100060
1bfff0
180180
000180
811980
41fd80
659980
659980
099980
099980
199980
11f980
b19980
718180
300180
300180
300180
300780
300100
ENDCHAR
STARTCHAR 18-48
ENCODING 12880
SWIDTH 1010 0
DWIDTH 20 0
BBX 20 20 0 -3
BITMAP
007000
006000
006000
006000
006000
046080
0460e0
0460c0
0c6180
086100
186200
30d200
30d400
018800
018c00
030600
060300
0c01c0
3000f0
c00060
ENDCHAR
STARTCHAR 18-49
ENCODING 12881
SWIDTH 1010 0
DWIDTH 20 0
BBX 20 20 0 -3
BITMAP
080000
fc0060
31fff0
3000c0
3000c0
308cc0
30fec0
30ccc0
fcccc0
30ccc0
30ccc0
30ccc0
30fcc0
30ccc0
30c0c0
3c00c0
f000c0
4000c0
0007c0
000080
ENDCHAR
STARTCHAR 18-50
ENCODING 12882
SWIDTH 1010 0
DWIDTH 20 0
BBX 20 20 0 -3
BITMAP
1c2180
183fc0
183180
1a3180
ff3780
063580
063580
0cb5a0
0cfff0
18c060
38d360
3cdfe0
7adb60
5adb60
9adb60
18df60
18db60
18d860
18c1e0
18c040
ENDCHAR
STARTCHAR 18-51
ENCODING 12883
SWIDTH 1010 0
DWIDTH 20 0
BBX 20 20 0 -3
BITMAP
000700
007f80
1ff000
006000
006000
006000
006000
006060
fffff0
00f000
01f800
016c00
036600
066380
0c61c0
1860f0
306060
c06020
006000
006000
ENDCHAR
STARTCHAR 18-52
ENCODING 12884
SWIDTH 1010 0
DWIDTH 20 0
BBX 20 20 0 -3
BITMAP
060700
1f0600
f84620
187ff0
184020
18c0a0
1abfc0
ff0d00
181920
383d30
3cc560
3a0ec0
7b1680
5b26c0
58ce40
981660
183630
18c620
181e00
180400
ENDCHAR
STARTCHAR 18-53
ENCODING 12885
SWIDTH 1010 0
DWIDTH 20 0
BBX 20 20 0 -3
BITMAP
1c0e00
198c60
3fdff0
661600
832300
230340
3fffe0
3000c0
3070c0
3064c0
37fec0
3060c0
33fcc0
330cc0
330cc0
33fcc0
330cc0
3000c0
3fffc0
3000c0
ENDCHAR
STARTCHAR 18-54
ENCODING 12886
SWIDTH 1010 0
DWIDTH 20 0
BBX 20 20 0 -3
BITMAP
070700
060600
060660
fffff0
060600
060600
060600
013800
03b000
063040
0c30e0
3c33c0
ec3e00
0c3000
0c3000
0c3000
0c3020
0c3020
0c3ff0
0c1fe0
ENDCHAR
STARTCHAR 18-55
ENCODING 12887
SWIDTH 1010 0
DWIDTH 20 0
BBX 20 20 0 -3
BITMAP
070e00
060c00
060c60
fffff0
060c00
060c00
000060
fffff0
000300
106300
1ff300
186300
186300
186300
1fe300
186300
180300
000300
000f00
000200
ENDCHAR
STARTCHAR 18-56
ENCODING 12888
SWIDTH 1010 0
DWIDTH 20 0
BBX 20 20 0 -3
BITMAP
038700
030600
030660
fffff0
030600
030600
0e0000
0c0860
0ccff0
ffec60
0ccc60
0ccc60
0ccc60
0ccc60
18cc60
18cc60
318c60
318c60
678fe0
c10c60
ENDCHAR
STARTCHAR 18-57
ENCODING 12889
SWIDTH 1010 0
DWIDTH 20 0
BBX 20 20 0 -3
BITMAP
038e00
030c00
030c60
fffff0
030c00
030c00
100000
180060
1bfff0
300180
311980
71fd80
719980
b19980
319980
31f980
319980
300180
300780
300100
ENDCHAR
STARTCHAR 18-58
ENCODING 12890
SWIDTH 1010 0
DWIDTH 20 0
BBX 20 20 0 -3
BITMAP
038e00
030c00
030c60
fffff0
030c00
030c00
0000c0
7fffe0
0c6300
0c6360
fffff0
0c6300
0c6340
7fffe0
006000
0060c0
7fffe0
006000
006000
006000
ENDCHAR
STARTCHAR 18-59
ENCODING 12891
SWIDTH 1010 0
DWIDTH 20 0
BBX 20 20 0 -3
BITMAP
070700
060660
fffff0
060600
060600
100180
1fffc0
186180
1fff80
186180
1fff80
186180
006060
fffff0
01f000
036c00
0e6700
3861f0
e06060
006000
ENDCHAR
STARTCHAR 18-60
ENCODING 12892
SWIDTH 1010 0
DWIDTH 20 0
BBX 20 20 0 -3
BITMAP
1c9860
18fbf0
18d860
9ad860
ffd860
dad860
dafbe0
dad860
dac000
fec060
daf7f0
18c260
18c260
1ac2c0
1af180
1ec180
f2c3c0
62c6e0
40cc70
00d020
ENDCHAR
STARTCHAR 18-61
ENCODING 12893
SWIDTH 1010 0
DWIDTH 20 0
BBX 20 20 0 -3
BITMAP
044060
7e7ff0
006660
026660
ff7fe0
006660
046660
7e7fe0
006660
040600
7e0660
00fff0
860f00
ff1f00
c61680
c636c0
c62660
c64670
fe8620
c60600
ENDCHAR
STARTCHAR 18-62
ENCODING 12894
SWIDTH 1010 0
DWIDTH 20 0
BBX 20 20 0 -3
BITMAP
003b80
8c3320
fdfff0
cc3300
cc3300
cc0040
cdffe0
cc6d80
cc6da0
cffff0
cc6d80
cc6d80
cdffe0
fc0c00
cc0cc0
c1ffe0
000c00
000c00
000c00
000c00
ENDCHAR
STARTCHAR 18-63
ENCODING 12895
SWIDTH 1010 0
DWIDTH 20 0
BBX 20 20 0 -3
BITMAP
021c40
0798e0
0c1980
381e00
cc1820
0c1ff0
0c0fe0
000000
080300
0fff80
0c0300
0fff00
0c0300
0fff00
0c0300
0fff00
0a0300
039c00
0e03c0
7000c0
ENDCHAR
STARTCHAR 18-64
ENCODING 12896
SWIDTH 1010 0
DWIDTH 20 0
BBX 20 20 0 -3
BITMAP
41c000
218000
318460
31b7f0
0ffe60
01b660
01b660
31b660
f9b660
333660
333660
333660
323660
363660
3467e0
39e660
304000
e80000
47fff0
41ffc0
ENDCHAR
STARTCHAR 18-65
ENCODING 12897
SWIDTH 1010 0
DWIDTH 20 0
BBX 20 20 0 -3
BITMAP
404180
307fc0
186180
186980
006f80
006d80
016da0
19fff0
fd8060
19bf60
19b360
19b360
19b360
19bf60
19b060
1981e0
198040
340000
e3fff0
40ffc0
ENDCHAR
STARTCHAR 18-66
ENCODING 12898
SWIDTH 1010 0
DWIDTH 20 0
BBX 20 20 0 -3
BITMAP
000180
1fffc0
406020
7ffff0
406030
df6fa0
c06040
1f6f80
006000
418060
7fdff0
618060
7f9fe0
618020
603ff0
7f88c0
600580
7f8700
601df0
60e060
ENDCHAR
STARTCHAR 18-67
ENCODING 12899
SWIDTH 1010 0
DWIDTH 20 0
BBX 20 20 0 -3
BITMAP
1c0700
180600
180660
9b7ff0
ff90c0
db10c0
db10c0
db10c0
db0880
db0980
ff0d80
db0500
180700
180700
1a0d80
190980
1f98c0
f9b0e0
606070
418020
ENDCHAR
STARTCHAR 18-68
ENCODING 12900
SWIDTH 1010 0
DWIDTH 20 0
BBX 20 20 0 -3
BITMAP
106700
1cf6c0
1bc660
18c660
30c600
30c660
77fff0
70c300
70c340
b0c370
30c360
30db60
30e1c0
37c180
32c1a0
30c1a0
30c3e0
30c6e0
33cc70
309030
ENDCHAR
STARTCHAR 18-69
ENCODING 12901
SWIDTH 1010 0
DWIDTH 20 0
BBX 20 20 0 -3
BITMAP
382700
3076c0
31e660
306660
b66600
b46660
b7fff0
b46300
b46340
b46370
b46360
b46b60
b471c0
b7e180
fd61a0
8461a0
8063e0
0066e0
00ec70
005030
ENDCHAR
STARTCHAR 18-70
ENCODING 12902
SWIDTH 1010 0
DWIDTH 20 0
BBX 20 20 0 -3
BITMAP
019d00
07d8c0
7e1860
0c1860
0c1800
0c1860
fffff0
0c1800
0c1840
0c0870
0c0c60
0cccc0
0f0d80
fc0780
6c0300
0c0720
0c0da0
0c19e0
3c70f0
09c070
ENDCHAR
STARTCHAR 18-71
ENCODING 12903
SWIDTH 1010 0
DWIDTH 20 0
BBX 20 20 0 -3
BITMAP
040180
07ffc0
060c00
060c00
060c00
060c00
060c00
060c00
060c60
fffff0
003c00
006c00
00cc00
018c00
030c00
060c00
180c00
600c00
003c00
000800
ENDCHAR
STARTCHAR 18-72
ENCODING 12904
SWIDTH 1010 0
DWIDTH 20 0
BBX 20 20 0 -3
BITMAP
000060
fffff0
006000
006000
006000
746670
67ff60
666660
666660
666660
67fe60
666660
666660
666660
67fe60
660660
660060
600060
7fffe0
600060
ENDCHAR
STARTCHAR 18-73
ENCODING 12905
SWIDTH 1010 0
DWIDTH 20 0
BBX 20 20 0 -3
BITMAP
40c700
7fe600
660600
660600
660600
660600
66c600
7fe600
60c600
60cd00
60cd00
7fcd00
66cd00
660d80
660980
6618c0
66d8c0
7ff060
602070
604020
ENDCHAR
STARTCHAR 18-74
ENCODING 12906
SWIDTH 1010 0
DWIDTH 20 0
BBX 20 20 0 -3
BITMAP
038e00
030c60
fffff0
030c00
030c00
000180
3fffc0
0c0600
0c0600
0c0600
0c0660
fffff0
001e00
003600
00e600
018600
070600
1c0600
e01e00
000400
ENDCHAR
STARTCHAR 18-75
ENCODING 12907
SWIDTH 1010 0
DWIDTH 20 0
BBX 20 20 0 -3
BITMAP
382700
3076c0
31e660
b46660
fe6600
b46660
b7fff0
b46300
b46340
b46370
fc6360
b46b60
3071c0
33e180
3561a0
3461a0
3e63e0
f466e0
60ec70
405030
ENDCHAR
STARTCHAR 18-76
ENCODING 12908
SWIDTH 1010 0
DWIDTH 20 0
BBX 20 20 0 -3
BITMAP
0e0000
0c0860
0ccff0
ffec60
18cc60
18cc60
30cfe0
378c60
690300
8fff80
0c0300
0fff00
0c0300
0fff00
0c0300
0fff00
0a0300
039c00
0e03c0
7000c0
ENDCHAR
STARTCHAR 18-77
ENCODING 12909
SWIDTH 1010 0
DWIDTH 20 0
BBX 20 20 0 -3
BITMAP
031d00
ff99c0
361980
361300
363260
363ff0
367300
36b300
363340
ffbfe0
0e3300
1e3300
1e3340
363fe0
363300
663300
463300
863360
1e3ff0
043000
ENDCHAR
STARTCHAR 18-78
ENCODING 12910
SWIDTH 1010 0
DWIDTH 20 0
BBX 20 20 0 -3
BITMAP
1c1700
183ec0
34f660
322660
612600
5d2660
d8fff0
7e2300
622340
7e2370
622360
7e2b40
62f1c0
606180
6421a0
6223a0
6322e0
6f2660
f2e430
605830
ENDCHAR
STARTCHAR 18-79
ENCODING 12911
SWIDTH 1010 0
DWIDTH 20 0
BBX 20 20 0 -3
BITMAP
0e0000
0cc860
ffeff0
18cc60
18cc60
30cc60
30cfe0
678c60
890300
0fff80
0c6000
0fff00
0c6000
0fff00
0c6060
0ffff0
200060
299860
eccde0
cccc40
ENDCHAR
STARTCHAR 18-80
ENCODING 12912
SWIDTH 1010 0
DWIDTH 20 0
BBX 20 20 0 -3
BITMAP
007000
006000
00d000
019000
030800
060600
0c0380
3800f0
e70e60
060c00
060c00
060c00
060c00
060c00
060c00
0c0c00
0c0c00
180c00
100c00
600c00
ENDCHAR
STARTCHAR 18-81
ENCODING 12913
SWIDTH 1010 0
DWIDTH 20 0
BBX 20 20 0 -3
BITMAP
007000
006000
00d000
018800
030600
0e0380
380cf0
e7fe60
000000
000000
0000c0
7fffe0
01c000
018000
030400
020200
060100
043f80
7fc0c0
1800c0
ENDCHAR
STARTCHAR 18-82
ENCODING 12914
SWIDTH 1010 0
DWIDTH 20 0
BBX 20 20 0 -3
BITMAP
1c0060
193ff0
1f8660
330660
22c460
7fec60
e4c9e0
64d040
64e380
7fdb00
64d340
64dfe0
64e300
7fc300
60c320
60fff0
60c300
40c300
c3c300
808300
ENDCHAR
STARTCHAR 18-83
ENCODING 12915
SWIDTH 1010 0
DWIDTH 20 0
BBX 20 20 0 -3
BITMAP
400060
7ffff0
600060
600060
600060
620c60
63fe60
630c60
630c60
630c60
630c60
630c60
630c60
63fc60
630c60
600060
600060
600060
7fffe0
600060
ENDCHAR
STARTCHAR 18-84
ENCODING 12916
SWIDTH 1010 0
DWIDTH 20 0
BBX 20 20 0 -3
BITMAP
380800
300e00
301800
311180
31ffc0
fd9980
319980
31ff80
319980
319980
31ff80
306d00
3c6d40
f06d20
606df0
00cf20
00cc00
018c20
030ff0
0c07e0
ENDCHAR
STARTCHAR 18-85
ENCODING 12917
SWIDTH 1010 0
DWIDTH 20 0
BBX 20 20 0 -3
BITMAP
380e00
300c00
300c60
33fff0
300c00
fdffe0
319260
319260
319260
31ffe0
300c00
300c60
33fff0
3c3200
f06220
60e170
076180
006cc0
03f0f0
018060
ENDCHAR
STARTCHAR 18-86
ENCODING 12918
SWIDTH 1010 0
DWIDTH 20 0
BBX 20 20 0 -3
BITMAP
0c8060
fefff0
0cc060
08c060
18d360
10df60
36db60
3fdb60
66db60
66db60
06db60
26df60
26db60
74c060
dcc060
88ffe0
1cc060
130000
21fff0
c03fe0
ENDCHAR
STARTCHAR 18-87
ENCODING 12919
SWIDTH 1010 0
DWIDTH 20 0
BBX 20 20 0 -3
BITMAP
1c1c00
181800
181800
181980
19ffc0
5c1980
5a1980
5b1980
db1980
d819a0
1bfff0
183400
183400
183200
186200
186300
184180
18c1c0
1980f0
1a0060
ENDCHAR
STARTCHAR 18-88
ENCODING 12920
SWIDTH 1010 0
DWIDTH 20 0
BBX 20 20 0 -3
BITMAP
1c0000
180180
19ffc0
184180
582300
5c3600
5a1c00
5b3600
da6380
d8c0f0
9b1c60
181800
181980
19ffc0
181800
181800
181800
181860
1ffff0
180000
ENDCHAR
STARTCHAR 18-89
ENCODING 12921
SWIDTH 1010 0
DWIDTH 20 0
BBX 20 20 0 -3
BITMAP
1c7000
186000
186060
18fff0
188000
5940c0
5c7fe0
5a64c0
5b64c0
db64c0
d864c0
9bfff0
18c8c0
18c8c0
18c8c0
18c8c0
18ffe0
18c180
180780
180100
ENDCHAR
STARTCHAR 18-90
ENCODING 12922
SWIDTH 1010 0
DWIDTH 20 0
BBX 20 20 0 -3
BITMAP
1c8060
18fff0
18c000
18c700
58c600
5cc640
5ad670
5bd660
5ad6c0
d8d680
d8b700
98a600
198600
198d00
190d00
1b1880
1a18c0
1c3060
186070
198020
ENDCHAR
STARTCHAR 18-91
ENCODING 12923
SWIDTH 1010 0
DWIDTH 20 0
BBX 20 20 0 -3
BITMAP
1c0e00
180c00
180c60
5bfff0
580c00
5cffe0
5a9260
5a9260
da9260
98ffe0
980c00
180c60
1bfff0
183200
186220
18e170
1f6180
186cc0
1bf0f0
198060
ENDCHAR
STARTCHAR 18-92
ENCODING 12924
SWIDTH 1010 0
DWIDTH 20 0
BBX 20 20 0 -3
BITMAP
001d80
0018c0
0018c0
001820
fffff0
001800
1dd880
1998e0
198cc0
198cc0
7fed80
198d80
198700
198600
318700
318da0
6199a0
41b0e0
806070
038030
ENDCHAR
STARTCHAR 18-93
ENCODING 12925
SWIDTH 1010 0
DWIDTH 20 0
BBX 20 20 0 -3
BITMAP
1c40c0
187fe0
1860c0
1860c0
1a60c0
ff60c0
187fc0
1860c0
180000
180060
1efff0
f81860
581860
181860
183060
1830c0
1860c0
1860c0
78c780
130100
ENDCHAR
STARTCHAR 18-94
ENCODING 12926
SWIDTH 1010 0
DWIDTH 20 0
BBX 20 20 0 -3
BITMAP
003800
033000
ffb000
033000
033060
037ff0
836180
ff6180
c35180
c0d100
c08b00
c10b00
c00e00
c10600
c10e00
ff9b00
7f3180
0061c0
00c0f0
030060
ENDCHAR
STARTCHAR 19-01
ENCODING 13089
SWIDTH 1010 0
DWIDTH 20 0
BBX 20 20 0 -3
BITMAP
0801c0
0e1180
508980
7fcd80
6d8d80
6d8180
7f9180
6d8980
6d8d80
6d8da0
7f81f0
364780
367980
364180
36a180
27f180
2691a0
660020
47fff0
83ffe0
ENDCHAR
STARTCHAR 19-02
ENCODING 13090
SWIDTH 1010 0
DWIDTH 20 0
BBX 20 20 0 -3
BITMAP
007000
006000
8c6060
fefff0
cc8000
cd40c0
cc7fe0
cc64c0
fc64c0
cc64c0
cc64c0
cffff0
ccc8c0
ccc8c0
fcc8c0
ccc8c0
c0ffe0
00c180
000780
000100
ENDCHAR
STARTCHAR 19-03
ENCODING 13091
SWIDTH 1010 0
DWIDTH 20 0
BBX 20 20 0 -3
BITMAP
1c0360
180330
180330
180300
1afff0
ff0300
185b00
185300
3c5340
3a5370
3aff60
7a5160
5851c0
5851c0
985180
1893a0
1893a0
1906e0
181c70
187030
ENDCHAR
STARTCHAR 19-04
ENCODING 13092
SWIDTH 1010 0
DWIDTH 20 0
BBX 20 20 0 -3
BITMAP
207000
106000
186060
18fff0
008000
8140c0
407fe0
6464c0
6464c0
0864c0
0864c0
1bfff0
10c8c0
b0c8c0
70c8c0
30c8c0
30ffe0
30c180
300780
300100
ENDCHAR
STARTCHAR 19-05
ENCODING 13093
SWIDTH 1010 0
DWIDTH 20 0
BBX 20 20 0 -3
BITMAP
200060
3ffff0
300000
303800
303000
303000
313080
3130e0
3130c0
333180
633100
666a00
666a00
606400
60c400
60c600
418300
c301c0
8600f0
180060
ENDCHAR
STARTCHAR 19-06
ENCODING 13094
SWIDTH 1010 0
DWIDTH 20 0
BBX 20 20 0 -3
BITMAP
100180
1fffc0
186180
186180
1fff80
186180
186180
186180
1fff80
199180
030c00
060700
1f81f0
f30660
030600
030600
060600
060600
0c0600
100600
ENDCHAR
STARTCHAR 19-07
ENCODING 13095
SWIDTH 1010 0
DWIDTH 20 0
BBX 20 20 0 -3
BITMAP
1c1c00
181840
1998e0
1fd980
181e00
181820
181820
1f9ff0
f84fe0
607000
00c000
088300
0fff80
0c0300
0c0300
0fff00
0c0300
0c0300
0fff00
0c0300
ENDCHAR
STARTCHAR 19-08
ENCODING 13096
SWIDTH 1010 0
DWIDTH 20 0
BBX 20 20 0 -3
BITMAP
080600
0e0600
080500
900d00
620880
3398c0
363070
0c6020
0a0180
111fc0
278000
fd8060
6c7ff0
0c0c00
4d0c00
6d0880
cd9840
8d91e0
0c7e30
0c3830
ENDCHAR
STARTCHAR 19-09
ENCODING 13097
SWIDTH 1010 0
DWIDTH 20 0
BBX 20 20 0 -3
BITMAP
070700
060660
fffff0
060600
067600
006000
00d000
018800
030600
0e0380
3801f0
e70e60
060c00
060c00
060c00
060c00
0c0c00
0c0c00
180c00
200c00
ENDCHAR
STARTCHAR 19-10
ENCODING 13098
SWIDTH 1010 0
DWIDTH 20 0
BBX 20 20 0 -3
BITMAP
120020
1f1ff0
22c220
7fe620
e4dce0
3fc500
24cfe0
64d900
7fc120
40dff0
83c100
008100
2060c0
3fffe0
3060c0
3fffc0
006080
006040
ffffe0
3e0060
ENDCHAR
STARTCHAR 19-11
ENCODING 13099
SWIDTH 1010 0
DWIDTH 20 0
BBX 20 20 0 -3
BITMAP
419060
7fdff0
619860
619860
7f9fe0
619860
619860
7f9fe0
619860
600060
600460
67fe60
619860
619860
619a60
6fff60
631860
631860
6619e0
641840
ENDCHAR
STARTCHAR 19-12
ENCODING 13100
SWIDTH 1010 0
DWIDTH 20 0
BBX 20 20 0 -3
BITMAP
467380
7f6320
666370
647bc0
646300
686320
686320
647bf0
62e1e0
634200
630300
634460
637ff0
6e6060
606060
607fe0
606060
606060
607fe0
606060
ENDCHAR
STARTCHAR 19-13
ENCODING 13101
SWIDTH 1010 0
DWIDTH 20 0
BBX 20 20 0 -3
BITMAP
080300
0fff80
0c0300
0c0300
0c0300
0fff00
0c0300
0c0300
0c0300
0fff00
0c0300
0c0300
0c0300
0fff00
0c0300
020000
039c00
060780
1c01e0
e00060
ENDCHAR
STARTCHAR 19-14
ENCODING 13102
SWIDTH 1010 0
DWIDTH 20 0
BBX 20 20 0 -3
BITMAP
0708c0
766fe0
666cc0
666cc0
7fecc0
606cc0
000cc0
fffcc0
000cc0
7fecc0
606cc0
606cc0
7fecc0
208cc0
10ecc0
198cd0
1908d0
07d8d0
fe10f0
302070
ENDCHAR
STARTCHAR 19-15
ENCODING 13103
SWIDTH 1010 0
DWIDTH 20 0
BBX 20 20 0 -3
BITMAP
0e0700
0c0600
0cc600
ffe600
0e0660
0c3ff0
180660
910660
61c660
330660
360660
0c8660
18e660
318660
630460
860460
0d0cc0
1888c0
30cbc0
c0d080
ENDCHAR
STARTCHAR 19-16
ENCODING 13104
SWIDTH 1010 0
DWIDTH 20 0
BBX 20 20 0 -3
BITMAP
0e0700
0c0600
0cc600
0fe600
18c600
18d600
18d600
30ce00
6cc600
86c700
06c780
0186f0
018660
030620
030600
060600
0c0600
180600
300600
c00600
ENDCHAR
STARTCHAR 19-17
ENCODING 13105
SWIDTH 1010 0
DWIDTH 20 0
BBX 20 20 0 -3
BITMAP
000700
000600
860660
fffff0
c60700
c60600
c60c00
c64880
c630e0
c61980
c61b00
c60640
c60c70
fe18c0
c63180
c0c300
000680
000c60
003030
01c030
ENDCHAR
STARTCHAR 19-18
ENCODING 13106
SWIDTH 1010 0
DWIDTH 20 0
BBX 20 20 0 -3
BITMAP
007000
006000
406020
7ffff0
c00060
c07040
006300
1fff80
006000
0fff00
006060
fffff0
000000
080300
0fff80
0c0300
0c0300
0c0300
0fff00
0c0300
ENDCHAR
STARTCHAR 19-19
ENCODING 13107
SWIDTH 1010 0
DWIDTH 20 0
BBX 20 20 0 -3
BITMAP
007000
3860e0
3060c0
3fffc0
400020
7ffff0
600000
603800
603080
67ffc0
603000
6030c0
6fffe0
600000
603080
47ffc0
403000
803060
9ffff0
000000
ENDCHAR
STARTCHAR 19-20
ENCODING 13108
SWIDTH 1010 0
DWIDTH 20 0
BBX 20 20 0 -3
BITMAP
324040
23efe0
224580
224580
224580
b3c580
aa4580
aa4580
aa45a0
a3dff0
224100
2201c0
228380
224380
226780
23e5a0
2f6da0
2619a0
2031f0
2040e0
ENDCHAR
STARTCHAR 19-21
ENCODING 13109
SWIDTH 1010 0
DWIDTH 20 0
BBX 20 20 0 -3
BITMAP
192040
11f7e0
112280
152280
ff2280
11e280
112280
312280
3922a0
35eff0
752100
550180
5141c0
912180
113380
11f2a0
17b6a0
130ca0
1018f0
1020e0
ENDCHAR
STARTCHAR 19-22
ENCODING 13110
SWIDTH 1010 0
DWIDTH 20 0
BBX 20 20 0 -3
BITMAP
210060
11fff0
198000
198700
018600
818640
41bfe0
658600
658600
098660
09fff0
198000
118700
b18600
730640
333fe0
330600
320600
360660
34fff0
ENDCHAR
STARTCHAR 19-23
ENCODING 13111
SWIDTH 1010 0
DWIDTH 20 0
BBX 20 20 0 -3
BITMAP
0020c0
033fe0
ffb0c0
1830c0
183fc0
1830c0
3030c0
333fc0
3fb0c0
330020
73fff0
730180
b301a0
33fff0
334180
3f2180
333180
303180
000780
000100
ENDCHAR
STARTCHAR 19-24
ENCODING 13112
SWIDTH 1010 0
DWIDTH 20 0
BBX 20 20 0 -3
BITMAP
070700
060660
fffff0
060600
007000
006180
3fffc0
006020
fffff0
01c100
030080
061fc0
3ff060
0f8060
100180
1fffc0
199980
199980
fffff0
000000
ENDCHAR
STARTCHAR 19-25
ENCODING 13113
SWIDTH 1010 0
DWIDTH 20 0
BBX 20 20 0 -3
BITMAP
10e040
1cc3e0
30d000
23f800
40c000
90c020
18d7f0
37f8c0
3000c0
70e0c0
b0c0c0
30d0c0
33f8c0
30c0c0
30c0c0
30ccc0
30f0c0
37c0c0
3303c0
300080
ENDCHAR
STARTCHAR 19-26
ENCODING 13114
SWIDTH 1010 0
DWIDTH 20 0
BBX 20 20 0 -3
BITMAP
040700
7e0600
000660
02fff0
ff0700
000600
040c00
7e4880
0030e0
041980
7e1b00
000640
860c70
ff18c0
c63180
c6c300
c60680
c60c60
fe3030
c6c030
ENDCHAR
STARTCHAR 19-27
ENCODING 13115
SWIDTH 1010 0
DWIDTH 20 0
BBX 20 20 0 -3
BITMAP
180700
187670
366660
336660
637fe0
c06060
840000
7efff0
180000
1a7fe0
ff6060
186060
1a7fe0
9b0080
da30e0
5c1980
581900
1f0260
f8fff0
600000
ENDCHAR
STARTCHAR 19-28
ENCODING 13116
SWIDTH 1010 0
DWIDTH 20 0
BBX 20 20 0 -3
BITMAP
110380
1f8300
110300
170320
153ff0
554380
7fe300
c04600
a15480
3f88e0
310d80
310b40
3f0670
3108c0
313180
3f0300
310680
310c60
371030
326030
ENDCHAR
STARTCHAR 19-29
ENCODING 13117
SWIDTH 1010 0
DWIDTH 20 0
BBX 20 20 0 -3
BITMAP
2080c0
10ffe0
18ccc0
18ccc0
00ccc0
80ffc0
40ccc0
64ccc0
64ccc0
08ffc0
08ccc0
180c00
100c40
b1ffe0
700c00
300c00
300c00
300c60
33fff0
300000
ENDCHAR
STARTCHAR 19-30
ENCODING 13118
SWIDTH 1010 0
DWIDTH 20 0
BBX 20 20 0 -3
BITMAP
0648c0
ffefd0
0608f0
3f9040
000fe0
7fc480
64c300
7fc7f0
4038c0
800600
1fff00
006020
fffff0
076400
1c6300
effff0
0c0360
0fff00
0c0300
0fff00
ENDCHAR
STARTCHAR 19-31
ENCODING 13119
SWIDTH 1010 0
DWIDTH 20 0
BBX 20 20 0 -3
BITMAP
1c0700
180600
180640
183fe0
9b0600
ff8600
db0600
db0660
db7ff0
db0000
db0700
ff0600
db0640
183fe0
1a0600
190600
198600
1f8660
f97ff0
400000
ENDCHAR
STARTCHAR 19-32
ENCODING 13120
SWIDTH 1010 0
DWIDTH 20 0
BBX 20 20 0 -3
BITMAP
3800c0
31ffe0
300000
300000
348180
feffc0
30c180
30c180
30c180
30ff80
30c180
34c180
38c180
f0c180
60ff80
00c180
000000
000060
07fff0
000000
ENDCHAR
STARTCHAR 19-33
ENCODING 13121
SWIDTH 1010 0
DWIDTH 20 0
BBX 20 20 0 -3
BITMAP
1c0e00
180c00
180c60
19fff0
1a0000
ff0e00
180c00
38cc60
3cfff0
7acc60
5bcc60
5acc60
d8cc60
98cc60
18cc60
18cde0
180c40
180c00
180c00
180c00
ENDCHAR
STARTCHAR 19-34
ENCODING 13122
SWIDTH 1010 0
DWIDTH 20 0
BBX 20 20 0 -3
BITMAP
1c2060
183ff0
183000
9b3000
ffb020
db3ff0
db3300
db3300
db3360
ff33f0
db3360
d83660
1a2660
1a6660
1f6660
fb4cc0
608cc0
4118c0
003380
004100
ENDCHAR
STARTCHAR 19-35
ENCODING 13123
SWIDTH 1010 0
DWIDTH 20 0
BBX 20 20 0 -3
BITMAP
181c00
181800
341800
231860
61bff0
41a060
826060
7f4860
088e60
080860
ff9a60
081260
897f60
49b360
690060
6a0040
0980c0
1e00c0
f80780
600180
ENDCHAR
STARTCHAR 19-36
ENCODING 13124
SWIDTH 1010 0
DWIDTH 20 0
BBX 20 20 0 -3
BITMAP
070070
066060
7ff760
066660
fffe60
066660
7fe660
060660
7fe660
060660
fff660
000660
7fe660
666660
7fe660
666060
7fe060
000060
fff1e0
380040
ENDCHAR
STARTCHAR 19-37
ENCODING 13125
SWIDTH 1010 0
DWIDTH 20 0
BBX 20 20 0 -3
BITMAP
01c1c0
918180
f9a1a0
d7f7f0
d18180
d18180
d18180
d1b1a0
dffff0
d14140
d14140
f56560
d55550
c55550
0d5550
094140
024340
024240
05c5c0
088880
ENDCHAR
STARTCHAR 19-38
ENCODING 13126
SWIDTH 1010 0
DWIDTH 20 0
BBX 20 20 0 -3
BITMAP
020000
038000
030600
07ff00
060600
0d0c00
199800
60f000
006000
01d800
070f00
1c03f0
e000e0
0fff00
0c0300
0c0300
0c0300
0c0300
0fff00
0c0300
ENDCHAR
STARTCHAR 19-39
ENCODING 13127
SWIDTH 1010 0
DWIDTH 20 0
BBX 20 20 0 -3
BITMAP
007000
006000
406060
7ffff0
608000
608220
6ffbf0
600320
67f320
663340
67f380
600340
602320
67f330
606330
40c330
4ff3e0
c68340
808300
038300
ENDCHAR
STARTCHAR 19-40
ENCODING 13128
SWIDTH 1010 0
DWIDTH 20 0
BBX 20 20 0 -3
BITMAP
380e00
300c00
300c00
310c60
31fff0
fd8000
318800
318e00
318c00
318c00
3d8c00
f19880
719840
319840
311820
333020
332030
3223f0
f2fe30
247030
ENDCHAR
STARTCHAR 19-41
ENCODING 13129
SWIDTH 1010 0
DWIDTH 20 0
BBX 20 20 0 -3
BITMAP
391080
3088e0
30cd80
32cd20
fffff0
320020
3681a0
36ffc0
30c180
30ff80
3cc180
f0ff80
70c180
30c180
30ff80
306600
306620
30c620
f187f0
2603e0
ENDCHAR
STARTCHAR 19-42
ENCODING 13130
SWIDTH 1010 0
DWIDTH 20 0
BBX 20 20 0 -3
BITMAP
1c1c00
181800
1818c0
1a1fe0
ff30c0
182980
186980
3cc700
3a0600
3b0f00
7b39c0
78e0f0
580020
d87fc0
9860c0
1860c0
1860c0
1860c0
187fc0
1860c0
ENDCHAR
STARTCHAR 19-43
ENCODING 13131
SWIDTH 1010 0
DWIDTH 20 0
BBX 20 20 0 -3
BITMAP
1c0700
180600
180660
1afff0
ff0700
180600
180c00
1c4880
3a30e0
3b1980
3b1b00
780640
580c70
5818c0
983180
18c300
180680
180c60
183830
19e030
ENDCHAR
STARTCHAR 19-44
ENCODING 13132
SWIDTH 1010 0
DWIDTH 20 0
BBX 20 20 0 -3
BITMAP
0e0980
0c0fc0
0d8d80
ffcd80
0c0da0
0c09a0
0d19f0
7fa0e0
000000
408060
7fdff0
c08860
d30860
1f84c0
1b0780
1b4300
334380
3366c0
61dc70
803020
ENDCHAR
STARTCHAR 19-45
ENCODING 13133
SWIDTH 1010 0
DWIDTH 20 0
BBX 20 20 0 -3
BITMAP
0831a0
8dfff0
5c3180
184600
304620
30fff0
51c600
99ffe0
1ac600
3cffe0
2cc600
2cfff0
4cc000
4c00c0
8dffe0
0c21c0
0c1300
181e00
7873f0
1380e0
ENDCHAR
STARTCHAR 19-46
ENCODING 13134
SWIDTH 1010 0
DWIDTH 20 0
BBX 20 20 0 -3
BITMAP
000e00
020c00
ff4c20
187ff0
18cc60
18c840
301900
3311c0
3fb300
733fe0
737300
b3b300
333fe0
333300
333300
3f3fe0
333300
303320
003ff0
003000
ENDCHAR
STARTCHAR 19-47
ENCODING 13135
SWIDTH 1010 0
DWIDTH 20 0
BBX 20 20 0 -3
BITMAP
0c18c0
3efff0
f018c0
302300
302200
347ff0
fee200
317fe0
306200
787fe0
746200
747ff0
766000
b600c0
b0ffe0
3010c0
300980
300f00
3039f0
31c0e0
ENDCHAR
STARTCHAR 19-48
ENCODING 13136
SWIDTH 1010 0
DWIDTH 20 0
BBX 20 20 0 -3
BITMAP
088200
044380
066600
466420
7ffff0
c00060
c80340
0fff80
0c0300
0fff00
0c0300
0fff00
0c0300
0fff00
0d9b00
019800
031820
061820
1c1ff0
e00fe0
ENDCHAR
STARTCHAR 19-49
ENCODING 13137
SWIDTH 1010 0
DWIDTH 20 0
BBX 20 20 0 -3
BITMAP
038000
030600
07ff00
0c0c00
1810c0
6fffe0
0c30c0
0c30c0
0c30c0
0fffc0
0c30c0
0c30c0
0c30c0
0fffc0
1800c0
1800c0
3000c0
2000c0
6007c0
800080
ENDCHAR
STARTCHAR 19-50
ENCODING 13138
SWIDTH 1010 0
DWIDTH 20 0
BBX 20 20 0 -3
BITMAP
0e0700
0c0600
0d0640
7fbfe0
0c0600
0c0600
0c0600
0cc660
fffff0
140500
551540
759d40
549560
549520
541520
942500
340d00
240900
240900
4c1300
ENDCHAR
STARTCHAR 19-51
ENCODING 13139
SWIDTH 1010 0
DWIDTH 20 0
BBX 20 20 0 -3
BITMAP
1c0e00
180c00
1a0c60
ff7ff0
181100
9b1cc0
ffb060
db2060
db4100
ff11c0
db1180
db0b00
ff0b00
db0e00
180600
1a0f00
ff1980
1830c0
1860f0
188060
ENDCHAR
STARTCHAR 19-52
ENCODING 13140
SWIDTH 1010 0
DWIDTH 20 0
BBX 20 20 0 -3
BITMAP
070860
060ff0
066c60
fffc60
000cc0
3fccc0
30cc80
30cd00
3fcd80
000cc0
00cc40
ffec60
008c20
050c30
07cc30
fe0c30
760df0
060c60
1e0c00
040c00
ENDCHAR
STARTCHAR 19-53
ENCODING 13141
SWIDTH 1010 0
DWIDTH 20 0
BBX 20 20 0 -3
BITMAP
419060
7fdff0
619860
619860
7f9fe0
619860
619860
7f9fe0
600060
618860
61fc60
631860
67b060
6cf060
799c60
6307e0
67fd60
7b0c60
63fde0
630c40
ENDCHAR
STARTCHAR 19-54
ENCODING 13142
SWIDTH 1010 0
DWIDTH 20 0
BBX 20 20 0 -3
BITMAP
880060
fdfff0
cc0000
c84180
d87fc0
d06180
e06180
d07f80
c90060
c9fff0
cdb360
cdb360
cda3e0
fda1e0
d9c060
c1bf60
c18c60
c18c60
c18de0
c18c40
ENDCHAR
STARTCHAR 19-55
ENCODING 13143
SWIDTH 1010 0
DWIDTH 20 0
BBX 20 20 0 -3
BITMAP
038e00
030c00
030c60
fffff0
030c00
030c00
03fc00
036c00
086300
0fff80
0c6300
0c6300
0fff00
0c6300
006060
fffff0
006000
006000
006000
006000
ENDCHAR
STARTCHAR 19-56
ENCODING 13144
SWIDTH 1010 0
DWIDTH 20 0
BBX 20 20 0 -3
BITMAP
108100
084180
0c6300
4c6660
7ffff0
600060
c00640
cfff40
000600
000c00
001800
007000
006060
fffff0
006000
006000
006000
006000
03e000
004000
ENDCHAR
STARTCHAR 19-57
ENCODING 13145
SWIDTH 1010 0
DWIDTH 20 0
BBX 20 20 0 -3
BITMAP
000c00
003f00
08f000
0f8000
0c0180
0fffc0
0c0c00
0c0c00
0c0c00
0c0c60
fffff0
000000
007000
3860e0
3060c0
3060c0
3060c0
3060c0
3fffc0
3000c0
ENDCHAR
STARTCHAR 19-58
ENCODING 13146
SWIDTH 1010 0
DWIDTH 20 0
BBX 20 20 0 -3
BITMAP
007000
404040
328c70
1bfec0
1b0d00
030c00
03fc00
0b0dc0
330c70
e3fc30
430c00
007000
006060
fffff0
01f000
036c00
0e6700
3861f0
e06060
006000
ENDCHAR
STARTCHAR 19-59
ENCODING 13147
SWIDTH 1010 0
DWIDTH 20 0
BBX 20 20 0 -3
BITMAP
0e0060
0c3ff0
4c8200
7fc300
c09460
d89ff0
111860
3f9860
231fe0
561860
8e1860
199fe0
60d860
bfd860
331fe0
331860
330880
330e60
3f1830
332030
ENDCHAR
STARTCHAR 19-60
ENCODING 13148
SWIDTH 1010 0
DWIDTH 20 0
BBX 20 20 0 -3
BITMAP
000060
f7bff0
948200
948300
949460
f79ff0
001860
031860
7f9fe0
001860
019860
ffdfe0
181860
319860
7fdfe0
619860
018880
030e60
1f1830
066030
ENDCHAR
STARTCHAR 19-61
ENCODING 13149
SWIDTH 1010 0
DWIDTH 20 0
BBX 20 20 0 -3
BITMAP
3871c0
306180
306180
31f980
306180
fc6180
306980
33fdc0
3001a0
3071b0
3c61b0
f06180
71f980
306180
306180
306180
307d80
33e180
f18180
200180
ENDCHAR
STARTCHAR 19-62
ENCODING 13150
SWIDTH 1010 0
DWIDTH 20 0
BBX 20 20 0 -3
BITMAP
1c0e00
188c20
3fdff0
643200
864300
060300
007000
006000
006180
3fffc0
000000
080400
040700
060600
030c00
030800
001000
002060
fffff0
000000
ENDCHAR
STARTCHAR 19-63
ENCODING 13151
SWIDTH 1010 0
DWIDTH 20 0
BBX 20 20 0 -3
BITMAP
391000
31f860
3127f0
352260
fffa60
310a40
310940
39f980
752980
7722c0
752470
b1f860
b10020
300e00
300cc0
31ffe0
300c00
300c60
33fff0
300000
ENDCHAR
STARTCHAR 19-64
ENCODING 13152
SWIDTH 1010 0
DWIDTH 20 0
BBX 20 20 0 -3
BITMAP
1c0060
19fff0
180000
1a7fc0
ff64c0
187fc0
1864c0
3c7fc0
3a0020
3bfff0
7a0000
587fc0
5864c0
987fc0
1864c0
187fc0
1860c0
180020
19fff0
180000
ENDCHAR
STARTCHAR 19-65
ENCODING 13153
SWIDTH 1010 0
DWIDTH 20 0
BBX 20 20 0 -3
BITMAP
1c80c0
18ffe0
18c0c0
18c0c0
feffc0
18c0c0
18c100
38c780
3cde00
3ac600
3bc680
7ac7c0
58de00
58c640
98c7e0
19be00
198620
190620
1a07f0
1803e0
ENDCHAR
STARTCHAR 19-66
ENCODING 13154
SWIDTH 1010 0
DWIDTH 20 0
BBX 20 20 0 -3
BITMAP
3011c0
243980
3e6180
65e1a0
4869b0
fe65a0
6a67a0
6bfda0
6a65a0
7ee180
6af180
6ae980
6b6940
7e6140
626340
006240
556260
556620
d46430
c06820
ENDCHAR
STARTCHAR 19-67
ENCODING 13155
SWIDTH 1010 0
DWIDTH 20 0
BBX 20 20 0 -3
BITMAP
201000
10b860
18c3f0
18c060
00c060
80fbe0
40c060
64c060
64ffe0
08a060
083000
186060
10fff0
b18060
760360
30ad60
30a460
31a0c0
3303c0
300080
ENDCHAR
STARTCHAR 19-68
ENCODING 13156
SWIDTH 1010 0
DWIDTH 20 0
BBX 20 20 0 -3
BITMAP
070070
060060
462760
7ff660
c02660
c72660
060660
3fc660
060660
3fc660
060660
7fe660
000660
20c660
3fe660
30c060
30c060
30c060
3fc1e0
30c040
ENDCHAR
STARTCHAR 19-69
ENCODING 13157
SWIDTH 1010 0
DWIDTH 20 0
BBX 20 20 0 -3
BITMAP
008180
00ffc0
8cc180
fec180
ccff80
ccc180
ccc180
ccff80
cc6180
cc6020
ccfff0
cd8060
fee460
ccce60
c0f060
00c460
00fe60
007cc0
0003c0
000080
ENDCHAR
STARTCHAR 19-70
ENCODING 13158
SWIDTH 1010 0
DWIDTH 20 0
BBX 20 20 0 -3
BITMAP
1c0e00
180c00
181a00
181900
5c3180
5a30c0
5a6070
dac060
d900a0
d87fc0
180000
180000
1840c0
187fe0
1860c0
1860c0
1860c0
1860c0
187fc0
1860c0
ENDCHAR
STARTCHAR 19-71
ENCODING 13159
SWIDTH 1010 0
DWIDTH 20 0
BBX 20 20 0 -3
BITMAP
1c00c0
1807e0
18ff00
180c00
1a0c00
ff0c00
180c60
19fff0
180c00
180c00
1e0c00
f88cc0
58ffe0
18c0c0
18c0c0
18c0c0
18c0c0
18c0c0
78ffc0
10c0c0
ENDCHAR
ENDFONT
